<?xml version="1.0" encoding="UTF-8" standalone="no"?>
<!-- Created with Inkscape (http://www.inkscape.org/) -->

<svg
   width="499.69016mm"
   height="110.33556mm"
   viewBox="0 0 499.69016 110.33556"
   version="1.1"
   id="svg1"
   xmlns:inkscape="http://www.inkscape.org/namespaces/inkscape"
   xmlns:sodipodi="http://sodipodi.sourceforge.net/DTD/sodipodi-0.dtd"
   xmlns="http://www.w3.org/2000/svg"
   xmlns:svg="http://www.w3.org/2000/svg">
  <sodipodi:namedview
     id="namedview1"
     pagecolor="#ffffff"
     bordercolor="#111111"
     borderopacity="1"
     inkscape:showpageshadow="0"
     inkscape:pageopacity="0"
     inkscape:pagecheckerboard="1"
     inkscape:deskcolor="#d1d1d1"
     inkscape:document-units="mm" />
  <defs
     id="defs1" />
  <g
     inkscape:label="Layer 1"
     inkscape:groupmode="layer"
     id="layer1"
     transform="translate(334.48273,-142.78837)">
    <path
       style="fill:#000000;stroke-width:0.264583"
       id="path47"
       d="m 148.62985,231.37744 c -0.18533,-0.22281 -0.37065,-0.44561 -0.55598,-0.66842 -0.26231,-0.32909 -0.51843,-0.66321 -0.78694,-0.98727 -0.36031,-0.43483 -2.08428,-2.13593 -1.61453,-2.88231 0.093,-0.14786 0.2981,0.18225 0.44714,0.27337 0.21173,-0.24962 0.38221,-0.54114 0.63518,-0.74886 0.96085,-0.78896 2.53909,-1.49228 3.81011,-1.19683 0.31348,0.0729 0.85953,0.19303 0.81844,0.51223 -0.0383,0.29711 -0.59662,0.0547 -0.89494,0.082 -0.23986,0.56764 -0.41118,1.1694 -0.71958,1.70292 -2.22531,3.84963 -6.11558,7.25407 -10.15094,9.1054 -0.7704,0.35344 -1.61147,0.52621 -2.4172,0.78931 -0.99584,-0.0376 -1.9213,0.26639 -2.50819,-0.77014 -0.16598,-0.29314 -0.19588,-0.67488 -0.12106,-1.00334 0.0339,-0.14855 0.34489,-0.0791 0.40002,-0.22113 0.16514,-0.42543 0.10573,-0.90866 0.2109,-1.35274 0.0976,-0.41189 0.26353,-0.80451 0.3953,-1.20677 0.62063,-1.64888 1.0649,-2.90793 -0.9612,-4.38858 -0.48073,-0.3513 -3.63004,0.90473 -4.24716,1.12784 -0.32334,0.0352 -0.6491,0.15837 -0.97002,0.10549 -0.56204,-0.0926 -0.99679,-0.73995 -1.29555,-1.11827 -0.54075,-0.68474 -1.17732,-1.48632 -1.55073,-2.27918 -0.62057,-0.8689 -1.25411,-1.88203 -2.30932,-2.30562 -0.61995,-0.24886 -1.34321,-0.0757 -2.00399,0.0224 -1.60773,0.23893 -3.60737,1.33997 -5.09727,2.00877 -0.87625,0.34487 -1.66347,0.76057 -2.6293,0.77447 -1.09931,0.0158 -2.03127,-0.65662 -3.05759,-0.91017 -0.37403,-0.0924 -0.76287,-0.10853 -1.1443,-0.16279 -0.58329,0.18096 -1.24184,0.20393 -1.74986,0.54287 -1.30854,0.87307 -2.40655,2.77317 -3.02221,4.12474 -0.85106,1.86837 -1.58596,4.36027 -1.78,6.39467 -0.11174,1.17146 0.018,2.35349 0.027,3.53023 0.73644,2.76577 0.76941,4.20334 2.99813,6.41815 1.70761,1.69696 5.14638,1.79884 6.88985,0.11419 0.58115,-0.56154 0.81257,-1.39712 1.21886,-2.09568 -0.0389,-0.81346 0.17678,-1.68071 -0.11669,-2.44038 -1.74371,-4.51368 -6.11814,-5.15009 -10.30577,-5.28859 -1.48747,-0.21971 0.076,-0.0384 0.25792,0.26495 0.29348,0.48933 0.0873,1.16987 0.35251,1.67509 0.0769,0.14644 0.32261,-0.20166 0.3343,-0.36664 0.0618,-0.87267 0.46128,-1.97016 -0.12255,-2.62171 -0.66328,-0.74023 -1.92583,-0.49262 -2.88875,-0.73892 -6.728724,0.44154 -13.482184,0.83305 -20.221796,0.27099 -2.385005,-0.1989 -4.776147,-0.43834 -7.121014,-0.91731 -2.085499,-0.42599 -4.086569,-1.19292 -6.129856,-1.78937 -1.506885,-0.98946 -5.717781,-2.4922 -4.74965,-5.58673 0.242766,-0.77598 1.417667,-0.79772 2.107258,-1.22847 1.42539,-0.89035 2.709744,-2.0309 4.236252,-2.73392 5.354167,-2.46582 7.834151,-2.32 13.724694,-3.11037 9.690417,0.15387 4.991701,-0.10837 14.099455,0.7251 0.373595,0.0575 1.186371,-5.22594 0.812779,-5.28341 v 0 c -10.329338,-3.64393 -4.876911,-2.50616 -16.406693,-3.16728 -6.872264,1.25571 -10.578888,1.16486 -16.501584,5.20039 -4.851156,3.30542 -7.454966,6.90981 -6.904653,13.12095 0.451059,5.09092 4.596376,6.7885 8.093874,9.30289 2.422736,0.7527 4.77856,1.77041 7.268212,2.25809 2.590956,0.50753 5.248854,0.66328 7.888621,0.7109 6.981076,0.12594 13.969862,-1.2532 20.436891,-3.83447 -0.50427,-1.69183 -0.33217,-0.67148 -0.1571,-3.1003 -0.0696,-0.26555 -0.45875,0.36715 -0.52668,0.63313 -0.57131,2.23666 -0.86254,2.65999 0.8888,3.78015 0.31274,0.20003 0.70677,0.22747 1.06015,0.3412 1.57034,0.24852 3.18381,0.44631 4.66812,1.05504 0.4775,0.19582 0.86954,0.591 1.36782,0.72543 1.64475,0.44374 -1.11561,-1.59962 1.1069,0.31685 0.0726,0.18252 0.23886,0.35224 0.21783,0.54754 -0.0537,0.49842 -0.73521,0.60157 -1.07579,0.49988 -0.32313,-0.0965 -0.56213,-0.37304 -0.85041,-0.54804 -1.0569,-0.6416 -0.18513,0.44714 -1.02878,-2.26484 -0.17451,-2.90181 -0.32629,-2.7428 0.19595,-5.74014 0.29463,-1.691 0.91122,-3.31544 1.20287,-5.00696 0.15586,-0.904 0.19288,-0.78284 -0.23185,-1.10139 1.17826,0.52333 2.26031,1.11185 3.56073,1.32105 1.91498,0.30806 3.72371,-0.0473 5.49959,-0.76947 1.53693,-0.73706 1.70934,-0.78237 3.13923,-1.60571 0.34367,-0.19789 0.73316,-0.34282 1.01314,-0.62367 0.0802,-0.0805 -1.9e-4,-0.23737 -0.0561,-0.33631 -0.17872,-0.31622 -0.27373,-0.92722 -0.63459,-0.88583 -0.32345,0.0371 0.21579,0.61432 0.32369,0.92148 0.40982,0.73631 0.77905,1.49673 1.22946,2.20893 1.3953,2.20627 3.57389,4.01513 6.30843,3.98762 0.56425,-0.006 1.10941,-0.207 1.66412,-0.3105 0.30131,-0.12787 2.04626,-0.79941 2.35096,-1.16343 0.0884,-0.1056 -0.16077,-0.22611 -0.21552,-0.35247 -1.29319,-2.98481 -0.60997,-3.19846 -2.13577,-0.86295 -0.59044,1.36547 -1.29738,2.58514 -1.17816,4.16378 0.15499,2.05226 0.73827,4.09162 2.37307,5.46395 1.9044,1.59864 3.07231,1.34067 5.43257,1.58444 1.16494,-0.25687 2.37324,-0.36426 3.49481,-0.77062 5.22227,-1.8921 10.56021,-6.69732 12.16233,-12.13594 0.36342,-1.23366 0.28015,-2.55685 0.42023,-3.83527 -0.74827,-1.16982 -1.22338,-2.56867 -2.24479,-3.50946 -0.58969,-0.54314 -1.50781,-0.61057 -2.3063,-0.68241 -2.31698,-0.20843 -4.89015,1.04166 -6.37247,2.78112 -0.48922,0.57408 -0.75571,1.30556 -1.13357,1.95834 -0.0147,1.0053 -0.19298,2.02159 -0.044,3.01588 0.0898,0.59957 0.42903,1.14172 0.74458,1.65938 0.96252,1.57904 2.59431,2.52286 4.18097,3.34875 0.17402,0.0833 1.3527,-2.37767 1.17868,-2.46101 z" />
    <path
       style="fill:#000000;stroke-width:0.264583"
       id="path48"
       d="m 165.17627,215.53784 c -2.32084,-1.36123 -4.95634,-2.10742 -7.52392,-2.84054 -1.64665,-0.47016 -3.29213,-0.9514 -4.96219,-1.33012 -1.82298,-0.4134 -3.64996,-0.85566 -5.50966,-1.0446 -1.76478,-0.17928 -3.54753,-0.0372 -5.3213,-0.0557 -0.29282,-0.0299 -0.71578,4.11132 -0.42295,4.14122 v 0 c 1.72604,0.69131 3.39487,1.54746 5.17811,2.07392 3.21757,0.9499 7.22747,1.32365 10.57179,1.59913 1.54166,0.127 4.44859,0.3003 6.17668,0.22648 0.37911,-0.0162 0.75118,-0.10809 1.12676,-0.16214 0.18439,0.0486 0.87107,-2.55905 0.68668,-2.6076 z" />
    <path
       style="fill:#000000;stroke-width:0.264583"
       id="path49"
       d="m 127.56268,208.14789 c -2.29506,-0.70326 -4.70754,-1.03782 -7.08967,-1.27173 -1.41412,-0.13886 -2.8307,-0.30248 -4.2516,-0.30799 -1.50926,-0.006 -3.01301,0.18267 -4.51951,0.274 -0.33922,0.0155 -0.12027,4.81275 0.21895,4.79727 v 0 c 1.51925,0.1604 3.03171,0.41033 4.55776,0.48121 1.4077,0.0654 2.81891,-0.0174 4.22703,-0.0732 1.45961,-0.0578 4.20403,-0.24402 5.77553,-0.53932 0.42789,-0.0804 0.83407,-0.25013 1.2511,-0.37519 0.21108,-0.012 0.0415,-2.99704 -0.16959,-2.98504 z" />
    <path
       style="fill:#000000;stroke-width:0.264583"
       id="path52"
       d="m 50.05588,213.02201 c -0.852985,0.57697 -0.24924,0.0398 -0.182745,2.13458 0.07127,2.24506 0.04849,4.61212 -0.14672,6.84233 -0.324254,3.70444 -0.679751,5.156 -1.350899,8.82267 -0.612277,3.3317 -1.692005,6.54166 -2.653635,9.78065 -0.128342,0.13319 1.755216,1.94821 1.883558,1.81502 v 0 c 0.960342,-0.60821 2.078029,-1.02004 2.881026,-1.82464 2.450878,-2.45575 2.817789,-4.67502 3.955315,-7.8542 0.302564,-1.65508 0.710231,-3.29437 0.907695,-4.96525 0.348385,-2.94798 0.354214,-6.31473 0.0013,-9.2779 -0.211526,-1.77602 -0.755298,-4.361 -1.565103,-6.0562 -0.353089,-0.73914 -0.876877,-1.38386 -1.315318,-2.07579 -0.187999,-0.17073 -2.60247,2.488 -2.414471,2.65873 z" />
    <path
       style="fill:#000000;stroke-width:0.264583"
       id="path54"
       d="m 40.430748,221.93331 c -1.022508,-0.58589 -2.230167,-0.74092 -3.288977,-1.22944 -0.275061,-0.1269 -0.54787,-0.27937 -0.764923,-0.49068 -0.125418,-0.12209 -0.382551,-0.55223 -0.225978,-0.47399 0.239501,0.11969 0.34232,0.41178 0.513479,0.61766 0.06998,0.033 0.132906,0.10636 0.209944,0.0991 0.986319,-0.0932 0.416576,-0.42707 1.670154,-0.29476 0.33501,0.0353 0.672552,0.14355 0.957556,0.32315 0.975323,0.61462 0.75747,0.96998 0.91382,2.06697 -0.185092,0.35382 -0.418285,0.68637 -0.555273,1.06144 -1.265777,3.46566 -0.449828,3.10788 -2.985447,6.44486 -2.214875,2.91486 -4.953106,5.26606 -7.931613,7.36707 -1.662552,1.17275 -3.455385,2.14894 -5.183077,3.22342 -1.717171,0.9839 -3.434342,1.96779 -5.151513,2.95169 -0.318529,0.10966 1.232326,4.61434 1.550855,4.50468 v 0 c 2.202411,-0.57658 4.404821,-1.15316 6.607233,-1.72975 2.038122,-1.16463 4.199157,-2.1366 6.114373,-3.49391 4.987258,-3.53444 9.192442,-8.42148 11.010479,-14.34221 0.42296,-1.37744 0.731046,-2.82787 0.685461,-4.26806 -0.04884,-1.54284 -0.64262,-3.01961 -0.96393,-4.52941 -0.582454,-0.73199 -1.030483,-1.59502 -1.747364,-2.19596 -2.16036,-1.811 -5.975614,-1.55387 -7.803679,0.63444 -0.446667,0.53469 -0.6351,1.24027 -0.952653,1.8604 0.247578,0.83498 0.348805,1.7282 0.74273,2.50493 0.238977,0.47121 0.6823,0.81913 1.104313,1.13701 1.469387,1.10681 3.427489,1.35666 5.202835,1.25984 0.21273,0.0192 0.483928,-2.9893 0.271195,-3.00847 z" />
    <path
       style="fill:#000000;stroke-width:0.264583"
       id="path55"
       d="m 24.853268,204.6653 c -0.08841,0.52979 -0.219298,1.05422 -0.26524,1.58937 -0.151285,1.76222 -0.08685,4.65075 -0.0638,6.28165 0.03415,2.41537 0.174791,7.44336 0.100874,9.7289 -0.06195,1.91557 -0.247464,3.82514 -0.371197,5.73771 -0.693302,5.11889 -0.933803,10.72668 -3.779398,15.25599 -1.306693,2.07985 -3.135163,3.70577 -5.647359,4.0928 -1.251019,0.19273 -2.526389,-0.16169 -3.789583,-0.24254 -1.3663526,-0.49312 -2.7914965,-0.84661 -4.0990578,-1.47936 -3.9442236,-1.90866 -7.65863128,-5.02724 -8.8381725,-9.44501 -0.4206202,-1.57536 0.8937939,-6.03116 1.1047185,-6.94201 0.77826781,-1.37432 1.36410971,-2.87709 2.3348034,-4.12298 1.9548136,-2.509 4.2901909,-4.06551 7.2465604,-5.14055 2.872831,-1.04466 3.860601,-0.80197 6.688863,-0.75683 0.219209,0.0373 0.746721,-3.06278 0.527513,-3.10008 v 0 c -1.410746,-0.56155 -2.727777,-1.47937 -4.232237,-1.68464 -5.8744839,-0.80153 -11.83731262,2.57895 -15.4211285,7.00098 -1.3315534,1.64299 -2.1369012,3.65013 -3.2053516,5.4752 -0.4551683,2.08846 -1.3948267,4.12809 -1.3655051,6.26538 0.1203439,8.77196 5.9783577,15.93664 14.0616465,18.76302 1.8175052,0.6355 3.7693777,0.78776 5.6540667,1.18163 4.613414,-0.40664 6.38319,0.0495 10.338794,-2.63446 4.890757,-3.31853 7.231367,-9.04626 8.37315,-14.60239 0.425942,-2.07272 0.52633,-4.19922 0.789495,-6.29882 0.015,-2.08079 0.112943,-4.16264 0.045,-6.24238 -0.198448,-6.0747 -1.301671,-12.07503 -2.8721,-17.93211 0.05293,-0.23443 -3.262434,-0.9829 -3.315358,-0.74847 z" />
    <path
       style="fill:#000000;stroke-width:0.264583"
       id="path56"
       d="m -14.391857,226.77667 c 0.122647,-0.0554 1.23394,-0.84935 1.232184,-0.87458 -0.188928,-2.7167 0.356715,-2.34292 -1.032888,-2.77633 1.630155,0.43833 0.0647,2.03472 -0.486285,2.75561 -0.08434,0.11035 -0.578771,-0.0108 -0.704806,-0.0357 -0.13933,-0.11316 -0.381669,-0.1637 -0.417989,-0.33947 -0.0739,-0.35764 0.09365,-0.72465 0.122907,-1.08867 0.0049,-0.0609 -0.147917,-0.14445 -0.0889,-0.16038 0.518991,-0.14009 0.804161,0.37108 1.198277,0.66846 0.160784,0.0543 -0.317543,1.279 -0.0764,1.74422 0.02292,0.0442 0.09726,0.0876 0.07232,0.13074 -0.09062,0.15666 -0.508929,-0.002 -0.544176,-0.01 0.0039,-0.34965 -0.0032,-0.69959 0.01157,-1.04895 0.0033,-0.0785 0.116675,-0.11308 0.191307,-0.13755 0.445765,-0.14615 0.737783,-0.0302 1.11399,0.20669 0.885693,3.1359 -2.753433,-0.42509 -2.355706,-1.09584 0.352961,0.0978 1.059734,0.19791 1.209515,0.65616 0.08907,0.27251 -0.178363,0.56633 -0.13406,0.84957 0.01428,0.0913 0.159169,-0.0976 0.247335,-0.12535 0.128741,-0.0405 0.113612,-0.006 0.11133,0.0534 -1.274438,-0.35279 -1.177326,-0.49664 -0.631981,-1.63161 0.0344,-0.0716 -0.04234,0.1531 -0.06351,0.22965 -0.156871,0.0583 0.667959,2.27681 0.824829,2.21849 v 0 c 0.295624,-0.0789 0.664936,-0.0262 0.886871,-0.23681 0.976271,-0.92659 1.484122,-1.78198 0.694219,-2.97764 -0.242745,-0.36743 -0.704194,-0.529 -1.056291,-0.7935 -0.950848,-0.1498 -1.265682,-0.32411 -2.239459,0.0906 -1.478668,0.6297 -2.468699,2.56471 -1.512876,4.04132 0.253675,0.39189 0.755721,0.54828 1.133581,0.82242 0.321384,0.0281 0.642724,0.112 0.964153,0.0844 0.715605,-0.0615 1.672028,-0.56595 1.589031,-0.76404 -0.407375,-0.97228 -1.115736,-1.84202 -1.943309,-2.49502 -0.198289,-0.15646 -0.445556,0.31053 -0.518859,0.55224 -0.183152,0.60394 -0.145956,1.25373 -0.218935,1.8806 0.15525,0.30076 0.241523,0.64875 0.465751,0.9023 0.83921,0.94894 2.191876,1.13232 3.25906,0.45269 0.322604,-0.20545 0.666787,-0.4534 0.817855,-0.80476 0.282261,-0.65651 0.28737,-1.40005 0.431055,-2.10007 -0.181343,-0.42346 -0.274336,-0.89693 -0.544028,-1.27039 -0.776476,-1.07524 -2.248896,-1.45496 -3.479866,-1.05201 -0.39209,0.12835 -0.84614,0.28367 -1.062352,0.63504 -0.400395,0.65068 -0.4507,1.46003 -0.67605,2.19005 0.338534,0.42408 0.579207,0.94974 1.015603,1.27225 0.306342,0.22639 0.723472,0.28233 1.104203,0.29433 1.667198,0.0525 2.678497,-1.28432 2.822423,-2.8644 0.03681,-0.40414 -0.278787,-0.76224 -0.41818,-1.14336 -0.190623,-0.16626 -1.160095,-1.19393 -1.611092,-0.84124 -2.131923,1.66717 -1.895221,2.73621 0.02016,3.3323 -1.529418,-1.3075 0.838465,-3.60539 -0.900305,-2.0753 -0.16785,0.1477 -0.315919,0.31647 -0.473878,0.47471 -0.155897,0.11686 1.496751,2.32157 1.652647,2.20471 z" />
    <path
       style="fill:#000000;stroke-width:0.264583"
       id="path57"
       d="m -16.765008,234.42161 c 0.708197,0.0693 0.501887,0.008 1.084902,0.1923 0.111645,0.0352 0.403353,0.20708 0.332148,0.11415 -0.08735,-0.114 -0.350594,-0.0485 -0.388086,-0.18716 -0.36891,-1.36416 -0.340751,-1.31315 -0.02525,-2.04455 -0.10806,-0.0364 -0.217141,-0.0699 -0.32418,-0.10917 -1.037168,-0.38074 0.105583,-0.19406 0.156132,-0.0389 0.115585,0.35485 -0.04055,0.74846 -0.0014,1.1196 0.382466,0.12455 -0.576976,0.083 -0.777469,-0.30277 -0.195787,-0.37675 0.0056,-0.86208 -0.118049,-1.26826 -5.56e-4,-0.002 -0.249834,0.0996 -0.48584,0.19521 0.485466,0.0136 1.126704,0.01 1.325379,0.66182 0.186249,0.61119 -0.159534,1.28515 -0.412398,1.87191 -0.05513,0.12793 -0.526206,0.17212 -0.404781,0.10386 0.203522,0.0601 1.053493,-2.81813 0.849971,-2.87823 v 0 c -1.47253,-0.60564 -2.934472,-0.0683 -2.868139,2.17449 0.04148,1.40251 1.61305,1.26607 2.38125,1.30835 0.70573,-0.27242 1.685684,-0.49912 2.045831,-1.30909 0.315714,-0.71003 0.56945,-1.52108 0.445555,-2.2882 -0.151284,-0.9367 -1.342525,-1.47546 -2.144503,-1.49951 -0.41683,-0.0125 -0.819021,0.15754 -1.228531,0.23631 -0.374432,0.26717 -0.891538,0.40419 -1.123295,0.80152 -0.994313,1.70467 -0.719318,3.41798 1.092352,4.26469 0.818783,0.38267 1.539018,0.18447 2.379382,0.0943 0.408609,-0.22302 1.019718,-0.25167 1.225826,-0.66907 1.358089,-2.7503 -0.699684,-3.84083 -2.905547,-3.6099 -0.216818,-0.008 -0.328113,3.0584 -0.111294,3.06627 z" />
    <path
       style="fill:#000000;stroke-width:0.264583"
       id="path58"
       d="m -33.87912,225.28291 c -1.561267,2.60841 -2.505377,5.54635 -4.149971,8.10978 -0.304805,0.4751 -0.670759,0.90808 -1.006139,1.36211 -0.329758,0.19446 -0.626798,0.46021 -0.989269,0.58336 -1.254723,0.42629 -1.2128,-0.71671 -0.984234,-1.56895 0.06029,-0.22479 0.317613,-0.36796 0.363503,-0.59613 0.140755,-0.69984 0.123666,-1.42234 0.185499,-2.13352 0.104307,-0.7572 0.226388,-1.51218 0.312917,-2.27162 0.257916,-2.26364 0.63072,-4.81359 -3.028386,-4.97058 -0.784873,-0.0337 -1.199094,1.01854 -1.749973,1.57863 -0.674989,0.68627 -1.28152,1.43667 -1.922277,2.155 -2.52522,2.58691 -2.80588,3.03476 -5.767112,5.35913 -1.189662,0.93381 -2.457278,1.76401 -3.671644,2.66546 -1.177946,0.87441 -2.336581,1.77454 -3.504869,2.66181 -0.239877,0.1009 1.18701,3.49325 1.426887,3.39235 v 0 c 1.577647,-0.4434 3.231391,-0.67375 4.732941,-1.3302 3.24748,-1.41973 5.865156,-3.52068 8.191751,-6.15032 0.9168,-1.03622 1.609876,-2.25063 2.414815,-3.37595 1.493448,-2.95974 2.700586,-3.8531 -0.796293,-6.08882 -0.194765,-0.12452 -0.185129,0.42468 -0.253643,0.64547 -0.656277,2.11483 -0.559456,2.0522 -0.998222,4.47356 -0.147021,2.76374 -0.486426,3.97177 0.763791,6.77876 1.132822,2.54341 3.927343,3.53371 6.436447,2.54277 0.768514,-0.30352 1.396236,-0.88401 2.094352,-1.32602 0.490688,-0.57999 1.033505,-1.11963 1.472062,-1.73998 1.901243,-2.68936 3.032937,-6.00624 3.462787,-9.24612 0.106773,-0.21465 -2.928948,-1.72464 -3.03572,-1.50998 z" />
    <path
       style="fill:#000000;stroke-width:0.264583"
       id="path59"
       d="m -42.980742,243.69883 c -0.945533,0.52822 -0.162721,0.0282 -1.096433,0.85247 -0.539549,0.47629 -0.408548,0.17039 -0.754348,0.77692 -0.07885,0.1383 -0.282369,0.29789 -0.199594,0.43387 0.441264,0.7249 1.097341,1.29484 1.64601,1.94225 0.423262,-0.17353 0.869524,-0.26407 1.304327,-0.4007 0.04093,-0.0129 0.159247,-0.0245 0.121004,-0.0439 -0.357539,-0.18185 -0.927544,-0.1039 -1.111948,-0.46013 -0.265697,-0.51328 -0.01582,-1.15583 -0.02371,-1.73374 -0.03021,-0.0472 -0.04454,-0.1098 -0.09064,-0.14173 -0.0802,-0.0556 -0.343236,-0.15797 -0.245682,-0.15908 0.108889,-0.001 0.269111,-0.0225 0.318014,0.0748 0.254365,0.50606 0.541326,1.04782 0.530881,1.61411 -0.0058,0.31712 -0.383093,0.5056 -0.574638,0.75839 -0.03938,0.39945 0.09169,0.007 0.177739,-0.29738 0.09932,0.0756 1.169194,-1.32891 1.069877,-1.40457 v 0 c -0.133548,-0.3212 -0.151807,-0.72053 -0.40064,-0.96361 -0.489786,-0.47845 -1.393306,-0.24235 -1.928564,-0.18763 -0.383736,0.34126 -1.039614,0.52251 -1.151205,1.02377 -0.358044,1.60829 0.821124,2.69697 2.223477,2.67778 0.830908,-0.0114 1.093385,-0.29077 1.785016,-0.69609 0.148249,-0.72711 0.641843,-1.46591 0.444749,-2.18133 -0.32716,-1.18754 -2.758752,-0.76895 -3.206837,-0.017 0.455221,0.68109 0.945234,1.34017 1.365657,2.04327 0.02379,0.0398 -0.109757,0.14662 -0.07324,0.11812 0.445704,-0.34793 0.900404,-1.38003 1.251863,-1.8483 0.125904,-0.0977 -1.255221,-1.87819 -1.381123,-1.78053 z" />
    <path
       style="fill:#000000;stroke-width:0.264583"
       id="path60"
       d="m -45.591348,242.6724 c -0.526482,0.38407 -0.985272,0.84914 -1.466808,1.28649 -0.143177,0.13003 -0.287332,0.25912 -0.42622,0.39373 -0.04582,0.0444 -0.131575,0.0792 -0.127407,0.14285 0.0031,0.0467 0.09222,0.0159 0.138324,0.0239 0.45398,0.84747 0.90796,1.69493 1.36194,2.54239 0.04143,0.0428 0.06526,0.12039 0.12429,0.12847 0.214077,0.0293 0.431753,-0.0248 0.647814,-0.0228 0.424884,0.004 1.022427,-0.0215 1.382165,0.24913 -0.179914,-0.11244 -0.488225,-0.13151 -0.539742,-0.33731 -0.136694,-0.54609 0.07182,-1.12692 0.03265,-1.68849 -0.02874,-0.4121 -1.17422,-0.15851 -1.52931,-0.48034 0.222634,0.15106 0.637445,0.18587 0.667904,0.45318 0.07542,0.66187 -0.341545,1.29526 -0.392996,1.95941 -0.0099,0.1274 1.430787,0.68164 0.585488,0.42448 -0.06643,-0.50408 -0.278032,-1.00994 -0.199287,-1.51224 0.158655,-1.01205 2.758197,-0.99583 1.452526,1.14337 0.313407,0.24671 0.729104,0.22873 1.022606,0.53171 0.05338,0.0551 0.07384,0.29357 0.03486,0.22749 -0.506151,-0.85805 -0.452313,-0.70106 -0.535617,-1.30827 -0.317855,-0.0466 -0.946177,-0.10186 -1.095706,-0.46926 -0.02334,-0.0573 0.112641,-0.17335 0.142476,-0.11911 0.767894,1.39598 0.0096,0.75486 0.501361,1.1439 0.472623,-0.059 1.24464,-0.10487 1.557859,0.37822 0.04424,0.0682 -0.03689,0.30247 -0.07668,0.23157 -0.21267,-0.37889 -0.399987,-1.00647 -0.548897,-1.48593 -0.169061,-0.0225 -0.343601,-0.0192 -0.507185,-0.0675 -0.169074,-0.0499 -0.328533,-0.13213 -0.479272,-0.22352 -0.09161,-0.0555 -0.323254,-0.14469 -0.240702,-0.21297 0.554662,-0.45877 0.642694,1.29475 0.478939,1.90871 -0.361186,-0.18625 0.661426,0.30265 0.515363,0.19189 -0.19988,-0.15156 -0.56701,-0.15687 -0.639236,-0.3971 -0.538223,-1.79013 0.676696,-1.6754 -0.295495,-1.68459 -0.201321,0.0316 0.245473,2.87871 0.446794,2.84711 v 0 c 0.473382,-0.10907 1.102662,0.0405 1.420146,-0.32721 1.311389,-1.51874 1.349142,-2.44239 0.02725,-3.45802 -0.293222,-0.22529 -0.665496,-0.35471 -1.031319,-0.40862 -0.458423,-0.0676 -0.926098,0.0346 -1.389147,0.052 -0.48372,0.26103 -1.180767,0.30454 -1.451155,0.78309 -1.49265,2.64176 0.658198,4.58075 3.14044,4.36618 0.504269,-0.0436 0.974468,-0.27417 1.461701,-0.41125 0.447601,-0.39528 1.145011,-0.6224 1.3428,-1.18584 0.92755,-2.64232 -1.581692,-4.29254 -3.855881,-4.00016 -0.516888,0.0665 -0.99204,0.31972 -1.488059,0.47957 -0.412525,0.39108 -1.053209,0.63553 -1.237573,1.17324 -0.915633,2.67048 1.295818,4.55062 3.759131,4.04452 0.496237,-0.10195 0.932961,-0.39516 1.399442,-0.59275 0.35069,-0.43897 0.95059,-0.76431 1.052068,-1.31692 0.423551,-2.30652 -1.550045,-3.73621 -3.586657,-3.64361 -0.422561,0.0192 -0.828709,0.17014 -1.243063,0.25521 -0.379428,0.32693 -0.977439,0.50647 -1.138287,0.98078 -0.223475,0.65899 -0.139655,1.43141 0.09855,2.08521 0.431914,1.18544 2.88866,1.52905 3.489426,0.28747 0.316661,-0.65443 0.07738,-1.45197 0.116067,-2.17796 -0.231553,-0.28068 -0.418999,-0.60452 -0.694656,-0.84203 -0.556006,-0.47905 -1.366056,-0.76725 -2.091507,-0.79174 -1.625092,-0.0549 -2.400649,0.4512 -2.675792,2.56542 -0.06316,0.48535 0.572275,0.79418 0.858412,1.19126 0.340108,0.16617 0.65569,0.39689 1.020323,0.49852 0.777494,0.2167 3.151391,0.12001 3.66336,-0.61033 0.465666,-0.66428 0.726048,-1.51733 0.708305,-2.32838 -0.0093,-0.42657 -0.520946,-0.67587 -0.78142,-1.0138 -0.307806,-0.1518 -0.596752,-0.35014 -0.923415,-0.4554 -0.89703,-0.28903 -1.985171,-0.23533 -2.882632,0.0225 -0.303094,0.0871 -0.903163,0.0179 -0.8856,0.33278 0.05427,0.97288 0.704133,1.81713 1.056198,2.72569 0.988388,-0.20127 1.789054,-1.56595 2.457749,-2.27598 0.155699,-0.12077 -1.552305,-2.32272 -1.708007,-2.20194 z" />
    <path
       style="fill:#000000;stroke-width:0.264583"
       id="path61"
       d="m -50.575789,205.15981 c -0.543978,2.69058 -1.003096,5.40706 -1.710208,8.06205 -3.053369,11.46452 1.014523,-4.83095 -1.862299,6.86299 -0.02151,0.85014 -0.04301,1.70029 -0.06451,2.55043 -0.121825,0.17668 2.376754,1.89955 2.498579,1.72287 v 0 c 0.844373,-1.34145 1.688745,-2.68291 2.533118,-4.02436 0.442243,-1.23129 0.986364,-2.43062 1.326729,-3.69387 0.326472,-1.21169 0.49456,-2.46214 0.666838,-3.70515 0.385654,-2.78257 0.510265,-5.68169 -0.123241,-8.43629 -0.04676,-0.23087 -3.311765,0.43046 -3.265003,0.66133 z" />
    <path
       style="fill:#000000;stroke-width:0.264583"
       id="path62"
       d="m -67.154789,217.83752 c 1.841129,0.41404 5.424979,1.45237 6.204675,3.31912 0.167399,0.40079 0.02757,0.86825 0.04136,1.30238 -1.738601,0.86668 0.581827,-0.38969 -2.249906,2.00854 -1.924997,1.6303 -4.923774,3.42408 -7.513677,3.60148 -0.463108,0.0317 -0.904197,-0.21054 -1.356299,-0.3158 -0.169558,-1.07257 -0.335407,-1.17731 0.316185,-2.32522 0.145553,-0.25643 0.459835,-0.37328 0.655937,-0.59347 1.042265,-1.17029 1.288962,-1.97887 2.754315,-2.64129 0.315629,-0.14268 0.69025,-0.0589 1.035375,-0.0884 0.331425,1.63318 -0.497099,1.86611 -1.281112,2.94662 -0.603634,0.83192 -1.057058,1.76981 -1.693834,2.57665 -1.846582,2.33974 -2.295048,2.44577 -4.592357,4.13874 -0.711512,0.27607 -2.159595,1.25828 -3.088163,0.50981 -0.270309,-0.21788 -0.322181,-0.62542 -0.389351,-0.96605 -0.320447,-1.62506 0.116465,-3.42025 0.332989,-5.02669 0.02741,-0.74877 0.279225,-2.29337 -0.408371,-2.96627 -1.548429,-1.51531 -2.703147,-1.41868 -4.597082,-0.60623 -2.21279,0.94922 -3.339577,2.36998 -5.044036,4.01617 -2.771994,3.27392 -4.474678,6.19221 -5.569129,10.36403 -0.288923,1.10132 -0.410904,2.23979 -0.616358,3.35969 -0.109805,0.16237 2.18648,1.71525 2.296284,1.55288 v 0 c 1.530395,-2.14037 2.208694,-2.99209 3.577022,-5.34483 0.594992,-1.02304 1.084558,-2.10476 1.673476,-3.13131 0.561837,-0.97935 1.184772,-1.92234 1.777158,-2.88351 0.612355,-0.81925 1.209162,-1.65034 1.837063,-2.45773 0.20419,-0.26256 3.060195,-2.89621 1.568337,-3.70263 -0.657675,-0.3555 1.113956,4.41103 -0.431245,2.20098 -0.09249,0.74482 -0.260027,1.48413 -0.277463,2.23447 -0.04064,1.74889 0.131381,3.70333 1.170281,5.20987 1.188127,1.72295 2.915272,2.71401 5.0322,2.71572 1.10893,7.9e-4 2.167176,-0.47145 3.250761,-0.70717 1.107242,-0.66259 2.312181,-1.18413 3.32172,-1.98776 1.089617,-0.86738 2.082961,-1.8743 2.92419,-2.98423 2.246363,-2.9639 4.480981,-8.18882 1.770777,-11.6088 -0.621551,-0.78433 -1.688854,-1.07413 -2.533282,-1.6112 -0.937503,0.0647 -1.917499,-0.0925 -2.81251,0.19393 -4.244255,1.35831 -7.340722,7.39466 -5.206677,11.51396 0.495858,0.95714 1.475631,1.57179 2.213448,2.35768 1.025298,0.27884 2.014247,0.79302 3.075895,0.83653 3.608089,0.14789 7.751072,-2.28353 10.093703,-4.86452 0.866095,-0.95422 1.7281,-1.99501 2.151087,-3.21228 0.465788,-1.34044 0.291113,-2.82316 0.436671,-4.23474 -0.380334,-0.84805 -0.593932,-1.79278 -1.141003,-2.54414 -1.65033,-2.26664 -5.225642,-3.28884 -7.904321,-3.06252 -0.362093,0.0306 -0.708893,0.1602 -1.063339,0.2403 -0.1886,0.0183 0.07,2.68551 0.258604,2.66722 z" />
    <path
       style="fill:#000000;stroke-width:0.264583"
       id="path63"
       d="m -76.898002,197.93292 c -0.756547,2.57806 -1.459013,5.16257 -1.985981,7.79963 -0.180628,0.90389 -0.383521,1.80543 -0.498456,2.72 -0.105376,0.83851 -0.107558,1.68679 -0.161338,2.53019 0.266224,0.69017 0.53245,1.38034 0.798674,2.07052 0.0098,0.15325 2.177061,0.0152 2.167297,-0.13806 v 0 c 0.4844,-0.71971 0.968799,-1.43941 1.453198,-2.15911 0.224353,-0.85884 0.500663,-1.70576 0.67306,-2.57651 0.315656,-1.5943 0.492329,-3.72296 0.579226,-5.35536 0.02355,-0.44248 0.123801,-2.91169 -0.02008,-3.569 -0.01871,-0.0855 -0.172222,-0.0308 -0.258334,-0.0462 0.09023,-0.19426 -2.657038,-1.47035 -2.747272,-1.27609 z" />
    <path
       style="fill:#000000;stroke-width:0.264583"
       id="path64"
       d="m -87.346741,202.61137 c -2.320952,0.83982 -4.377992,2.35656 -6.193753,4.0072 -0.494824,0.44983 -1.070533,0.85563 -1.39845,1.43844 -0.536652,0.95379 -0.761794,2.05196 -1.14269,3.07794 0.181321,0.98715 0.624461,1.96101 0.543962,2.96143 -0.0887,1.10233 -0.631484,2.12251 -1.035865,3.15182 -1.110136,2.82572 -3.001643,6.9298 -5.636563,8.77836 -0.5997,0.42073 -1.39638,0.44359 -2.09456,0.66538 -0.52211,-0.34309 -1.18719,-0.53274 -1.56634,-1.02929 -1.30269,-1.70607 -1.69313,-4.53247 -1.55094,-6.52162 0.3067,-4.29062 1.73407,-7.24681 3.98141,-10.95425 1.05158,-1.73479 2.40173,-3.27 3.602585,-4.905 1.551101,-2.1723 3.102205,-4.3446 4.653306,-6.5169 0.333489,-0.25249 -3.237246,-4.96871 -3.570732,-4.71622 v 0 c -2.046929,1.93285 -4.093859,3.8657 -6.140799,5.79856 -1.91962,3.05215 -4.15556,5.92689 -5.75885,9.15645 -2.94479,5.93178 -4.34159,13.6203 -0.92316,19.71434 0.83912,1.4959 2.00543,2.87516 3.4211,3.84351 1.31694,0.90081 3.0109,1.05722 4.51634,1.58583 1.53225,-0.35394 3.20528,-0.32909 4.596738,-1.06182 3.844263,-2.02435 5.3188,-5.58784 6.724147,-9.47333 1.2709,-3.51379 1.348237,-5.66552 0.752703,-9.23769 -0.06994,-0.4195 -0.377529,-0.76221 -0.566293,-1.14331 -0.132475,0.0472 -0.474308,0.2593 -0.397423,0.14156 0.320352,-0.4906 0.764175,-0.88889 1.16468,-1.31657 0.850403,-0.90811 2.216912,-2.23707 3.095633,-3.124 1.204627,-1.21589 1.019805,-1.03094 1.983036,-2.07777 0.158607,-0.0749 -0.900615,-2.31794 -1.059222,-2.24305 z" />
    <path
       style="fill:#000000;stroke-width:0.264583"
       id="path65"
       d="m -126.41644,208.26952 c -3.34007,0.31618 -6.5741,1.80065 -9.05496,4.06313 -0.75737,0.6907 -1.40365,1.49414 -2.10548,2.2412 -3.39655,4.37711 -4.96226,9.76215 -7.18073,14.75436 -1.47325,3.31527 -0.95539,2.45713 -2.53567,4.5119 -2.15267,2.36627 -1.03241,1.33494 -3.31321,3.14488 -0.2509,0.0537 0.50923,3.60211 0.76014,3.54836 v 0 c 4.38467,-0.61595 2.3089,0.1494 6.17438,-2.4348 1.02759,-1.45088 2.16123,-2.83219 3.08275,-4.35264 0.68764,-1.13457 1.20401,-2.36654 1.72825,-3.58525 0.7672,-1.7835 1.99811,-5.35224 2.61926,-7.23303 0.19942,-0.60382 0.32196,-1.23378 0.55769,-1.82438 0.3577,-0.89618 0.81237,-1.75055 1.21855,-2.62582 0.46459,-0.683 0.86455,-1.41475 1.39375,-2.04901 1.9742,-2.36612 4.89936,-3.48493 7.40437,-5.1366 0.21371,-0.053 -0.53538,-3.07527 -0.74909,-3.0223 z" />
    <path
       style="fill:#000000;stroke-width:0.264583"
       id="path66"
       d="m -131.07918,235.52977 c -1.73648,0.071 0.14359,-0.46624 0.18406,0.83835 0.0117,0.37848 -0.26668,0.70881 -0.40003,1.06321 -0.64195,0.41107 -1.72581,0.0277 -1.99434,-0.73744 -0.14125,-0.4025 0.13335,-0.84723 0.27323,-1.25022 0.0235,-0.0678 0.14745,-0.14959 0.19352,-0.0945 0.68585,0.81947 1.26188,1.72492 1.89282,2.58739 0.22817,-0.092 0.46938,-0.16639 0.70752,-0.23036 0.0485,-0.013 -0.0913,0.0702 -0.1397,0.0567 -0.0693,-0.0192 -0.10909,-0.0938 -0.16363,-0.14071 0.1906,0.1014 1.62472,-2.5941 1.43412,-2.6955 v 0 c -0.2662,-0.17509 -0.49516,-0.42814 -0.79862,-0.52525 -1.00667,-0.32212 -2.12812,0.20521 -2.85504,0.85857 0.55559,0.93459 0.98803,1.95439 1.66676,2.80377 0.0935,0.11703 0.30513,-0.11948 0.37057,-0.25423 0.26147,-0.53837 0.65721,-1.1065 0.57843,-1.69979 -0.15038,-1.1326 -1.12393,-1.67636 -2.10123,-1.60254 -0.3238,0.0245 -0.60481,0.2366 -0.90721,0.3549 -0.29506,0.51676 -0.77053,0.96638 -0.88518,1.5503 -0.0874,0.44499 0.10974,0.92085 0.32124,1.32199 0.56709,1.0756 2.06159,1.22631 3.0489,0.81025 0.21318,-0.0301 -0.21301,-3.04503 -0.42619,-3.01489 z" />
    <path
       style="fill:#000000;stroke-width:0.264583"
       id="path67"
       d="m -144.29764,197.59952 c -0.12038,0.26349 -0.26977,0.51557 -0.36115,0.79047 -0.86393,2.59892 -1.48634,5.27136 -2.12079,7.93136 -0.28249,1.18437 -0.76938,2.33572 -0.861,3.54987 -0.1,1.32479 0.19542,2.64992 0.29313,3.97488 0.007,0.24047 3.40722,0.14819 3.40069,-0.0923 v 0 c 0.6426,-1.3722 1.48389,-2.66788 1.9278,-4.11661 0.3606,-1.17683 0.32772,-2.4401 0.45635,-3.66419 0.055,-0.52364 0.3808,-4.49856 0.3748,-5.31365 -0.002,-0.2454 -0.13193,-0.47561 -0.15339,-0.72008 -0.0312,-0.35608 -0.003,-0.71489 -0.004,-1.07233 0.0896,-0.20878 -2.86289,-1.47622 -2.95251,-1.26744 z" />
    <path
       style="fill:#000000;stroke-width:0.264583"
       id="path68"
       d="m -157.98549,207.74623 c -2.8136,1.36679 -7.48701,4.17682 -6.89053,7.98337 0.14693,0.93761 1.03092,1.59373 1.54638,2.3906 0.68538,0.50413 1.35707,1.02743 2.05615,1.51239 1.02206,0.70902 2.56773,1.24738 2.85581,2.71265 0.27299,1.38851 -1.04144,2.92659 -1.90526,3.6706 -0.60996,0.52537 -1.40086,0.79363 -2.10129,1.19045 -3.65194,2.44221 -7.67089,4.71918 -12.19924,4.8687 -1.91707,0.0633 -4.22572,-0.35406 -5.46784,-2.05394 -0.56638,-0.7751 -0.63689,-1.81125 -0.95534,-2.71688 0.0486,-1.30004 -0.0761,-2.61821 0.14568,-3.90011 0.6564,-3.79386 2.12678,-6.77454 4.03319,-10.11691 0.80565,-1.4125 1.82327,-2.69351 2.69903,-4.06363 1.27981,-2.00225 2.51133,-4.03496 3.76699,-6.05243 0.2932,-0.23452 -3.02335,-4.38103 -3.31656,-4.14652 v 0 c -1.809,1.68508 -3.89839,3.11223 -5.427,5.05524 -4.22799,5.37418 -8.08852,13.66835 -7.9677,20.72026 0.0324,1.88963 0.63735,3.72569 0.95602,5.58854 0.9133,1.47254 1.54487,3.16286 2.73988,4.41762 5.25467,5.51741 13.92731,4.09205 19.86719,0.74723 1.67615,-0.94386 3.1106,-2.26397 4.6659,-3.39596 1.30108,-1.77979 2.89417,-3.3792 3.90323,-5.33937 1.27934,-2.4852 1.35291,-5.23243 0.0946,-7.71163 -1.12593,-2.21835 -3.40034,-3.17858 -5.53332,-4.04773 -0.13109,0.077 -0.28633,0.12292 -0.39326,0.23098 -0.16652,0.16829 -0.52573,0.78658 -0.40953,0.58031 0.23452,-0.41632 0.46053,-0.84412 0.76541,-1.21205 1.1817,-1.42607 2.73655,-2.50897 3.94301,-3.91329 0.21202,-0.10405 -1.25956,-3.10254 -1.47158,-2.99849 z" />
    <path
       style="fill:#000000;stroke-width:0.264583"
       id="path69"
       d="m -195.69531,214.33134 c -1.56091,1.32929 -3.17725,2.57736 -4.87841,3.7244 -0.45441,0.30641 -0.89484,0.63931 -1.38105,0.89224 -0.31425,0.16347 -0.66929,0.23229 -1.00393,0.34844 -0.1858,-0.0529 -0.41344,-0.03 -0.5574,-0.15881 -0.21049,-0.18838 -0.36156,-1.4301 -0.36062,-1.47473 0.003,-0.16149 0.17783,-0.28581 0.18688,-0.44708 0.0345,-0.61461 -0.0675,-1.2303 -0.0582,-1.84581 0.0107,-0.71589 0.0787,-1.42977 0.11811,-2.14466 0.1081,-0.75049 0.21947,-1.50051 0.32429,-2.25147 0.2511,-1.79896 0.52357,-3.62065 0.6511,-5.43463 0.0147,-0.2086 0.20264,-0.64531 -0.006,-0.6273 -0.4044,0.035 -0.65805,0.47541 -0.98707,0.71311 -0.71057,-0.39487 -1.31896,-1.16768 -2.1317,-1.18461 -0.44699,-0.009 -0.468,0.76297 -0.73034,1.12501 -0.49871,0.68821 -0.96971,1.40374 -1.55124,2.02356 -1.92177,2.04832 -4.49175,4.05926 -6.77791,5.60907 -1.51323,1.02584 -3.11403,1.91616 -4.67104,2.87423 -1.56928,0.76495 -3.06401,1.70696 -4.70783,2.29486 -3.41733,1.22219 -7.94475,1.88854 -9.51344,-2.41805 -0.53462,-1.46773 0.84891,-7.99572 0.87167,-8.13391 4.16531,-7.99707 1.82792,-4.04471 7.06457,-11.82593 0.29137,-0.27577 -3.6085,-4.39635 -3.89987,-4.12059 v 0 c -8.1792,7.99172 -4.85776,3.38765 -9.88387,13.86991 -0.20902,2.59222 -1.05048,5.21074 -0.62708,7.77668 1.18387,7.17461 5.8614,12.16243 13.23483,12.07683 4.71697,-0.0548 7.02327,-1.73922 11.12599,-3.71916 1.69378,-1.18342 3.48673,-2.23626 5.08136,-3.55024 2.78178,-2.2922 4.99879,-4.76432 6.80102,-7.86915 0.22737,-0.39171 2.01162,-4.21891 1.67394,-5.2248 -0.36628,-1.09109 -1.38147,-1.84122 -2.07221,-2.76183 -0.48486,0.2684 -1.02438,0.45583 -1.45457,0.80519 -0.47678,0.38718 -0.87632,1.77618 -0.99377,2.18419 -0.63459,2.2044 -0.93722,4.493 -1.19164,6.76589 -0.0263,0.85264 -0.10382,1.70524 -0.0789,2.55793 0.092,3.14927 0.96429,7.21209 4.47142,8.19031 0.60525,0.16882 1.25479,0.0696 1.88218,0.10441 0.60852,-0.17203 1.24122,-0.27434 1.82556,-0.51608 0.60013,-0.24828 1.15843,-0.59234 1.7043,-0.94423 2.06157,-1.32897 3.8825,-3.04293 5.04678,-5.21909 0.14595,-0.18004 -2.40021,-2.24414 -2.54617,-2.0641 z" />
    <path
       style="fill:#000000;stroke-width:0.264583"
       id="path70"
       d="m -203.98166,233.0238 c -2.78981,-0.5697 -5.69391,-0.66588 -8.53297,-0.70687 -1.47537,-0.0213 -2.95735,-0.0975 -4.42639,0.0407 -1.41904,0.13353 -2.80383,0.5144 -4.20574,0.77159 -0.24946,0.006 -0.16278,3.53408 0.0867,3.52796 v 0 c 1.48489,0.35684 2.93829,0.88927 4.45465,1.07054 1.5211,0.18184 3.06584,0.0896 4.59577,0.0113 2.83692,-0.14501 5.67363,-0.65928 8.35941,-1.58278 0.2215,-0.0234 -0.1099,-3.15593 -0.33141,-3.1325 z" />
    <path
       style="fill:#000000;stroke-width:0.264583"
       id="path71"
       d="m -157.48545,167.8779 c -2.52148,1.46019 -5.25832,2.4751 -7.95006,3.56378 -21.20233,8.57537 11.99533,-4.81717 -14.70589,5.66891 -2.95409,1.16013 -5.86909,2.41744 -8.80363,3.62616 -3.82602,1.61437 -10.15687,4.37922 -14.27891,5.80186 -1.98233,0.68416 -4.81303,1.74203 -7.11303,1.31406 -0.40415,-0.0752 -0.67628,-0.46756 -1.01442,-0.70134 -0.23875,-0.14252 -2.25432,3.23389 -2.01557,3.37641 v 0 c 0.87625,0.78123 1.57865,1.81886 2.62874,2.34369 2.75489,1.37687 6.80508,1.1516 9.61966,0.72405 6.10997,-0.92812 9.67891,-2.54464 15.60207,-4.63938 9.31675,-4.24175 8.24592,-3.43827 16.87353,-8.58048 4.27767,-2.54958 8.8372,-5.30002 12.11492,-9.15261 0.35232,-0.41412 0.5939,-0.91092 0.89086,-1.36638 0.13992,-0.13069 -1.70835,-2.10942 -1.84827,-1.97873 z" />
    <path
       style="fill:#000000;stroke-width:0.264583"
       id="path72"
       d="m -246.27145,190.75464 c -3.46217,1.36525 -6.96366,2.63212 -10.54091,3.66853 -1.59706,0.4627 -3.18428,0.98721 -4.82074,1.28162 -1.77055,0.31854 -3.57912,0.3677 -5.36868,0.55155 -4.09123,0.0814 -8.35993,0.20557 -12.30035,-1.13652 -0.47437,-0.16158 -0.89585,-0.45195 -1.32331,-0.71351 -0.0763,-0.0467 -0.10853,-0.26309 -0.17515,-0.20338 -0.88072,0.78907 -1.63698,1.70686 -2.45547,2.5603 -0.34401,0.0388 -0.78938,-0.13038 -1.03203,0.11656 -0.83508,0.84988 -1.29093,2.00481 -1.9961,2.96522 -1.18933,1.61984 -2.39578,3.22984 -3.68459,4.77171 -3.70086,4.42749 -7.03598,7.86965 -11.25593,11.85546 -1.96987,1.86058 -4.03645,3.61605 -6.05467,5.42407 -1.69228,1.33791 -3.29546,2.79695 -5.07685,4.01373 -1.46119,0.99806 -3.93139,2.63125 -4.88357,1.38082 -0.26768,-0.35155 0.11808,-0.87582 0.17713,-1.31373 -0.0391,-0.26347 -3.76515,0.29004 -3.72602,0.55351 v 0 c 0.91827,1.69558 1.34189,3.77454 2.75479,5.08676 1.14197,1.0606 2.84909,1.49852 4.40621,1.56396 4.69339,0.19726 7.94076,-2.58283 11.73258,-4.79677 2.24496,-1.87576 4.62706,-3.59865 6.73492,-5.62729 4.25923,-4.09919 8.0782,-8.78942 11.05577,-13.90806 1.5067,-2.59014 3.81272,-7.48878 3.96555,-10.84383 0.0529,-1.16172 -0.46318,-2.27927 -0.69477,-3.41891 -0.88829,0.72561 -2.16398,1.145 -2.66483,2.17684 -0.2576,0.53064 0.46357,1.10853 0.85645,1.5485 0.62974,0.70524 1.34859,1.35505 2.16385,1.83388 4.40941,2.58985 9.57072,2.63182 14.50819,2.35981 2.01837,-0.37111 4.06855,-0.59838 6.0551,-1.11332 4.89453,-1.26874 10.85565,-4.05087 14.47226,-7.71728 0.34337,-0.34809 0.60296,-0.76989 0.90443,-1.15484 0.12484,-0.12256 -1.60843,-1.88795 -1.73326,-1.76539 z" />
    <path
       style="fill:#000000;stroke-width:0.264583"
       id="path73"
       d="m -261.02869,186.84293 c 1.1986,-0.22237 2.4146,-0.36569 3.5958,-0.66714 4.66493,-1.19049 10.5809,-3.23253 13.94763,-6.86547 0.91878,-0.99142 1.87826,-2.16138 2.04263,-3.50304 0.19927,-1.6266 -0.68293,-3.20559 -1.02439,-4.80838 -1.59874,-0.62319 -3.09338,-1.65826 -4.79622,-1.86957 -1.90661,-0.2366 -3.88387,0.0526 -5.7362,0.56257 -5.14998,1.41776 -10.30645,5.24316 -10.63954,11.03512 -0.0798,1.38685 0.58933,2.71505 0.88399,4.07258 0.96871,1.11648 1.93742,2.23297 2.90614,3.34945 0.1449,0.12146 1.86266,-1.92781 1.71776,-2.04928 v 0 c -0.30703,-0.38156 -0.61406,-0.76311 -0.92108,-1.14466 -0.13454,-0.68023 -0.49367,-1.35315 -0.4036,-2.04068 0.27859,-2.12655 2.10465,-3.78055 3.67857,-4.94064 3.10045,-2.28523 6.3325,-3.25918 9.90429,-4.43833 0.2457,-0.29736 0.9909,-1.18253 0.73708,-0.89208 -0.49426,0.56559 -0.87178,1.24869 -1.45852,1.71764 -2.19235,1.75225 -5.79987,3.46658 -8.16749,4.75736 -1.4285,0.7788 -2.85562,1.56083 -4.26329,2.37669 -1.01414,0.58778 -2.00048,1.22227 -3.00072,1.83341 -0.24851,0.0705 0.74865,3.58497 0.99716,3.51445 z" />
    <path
       style="fill:#000000;stroke-width:0.264583"
       id="path74"
       d="m -284.39062,183.45658 c -2.66729,0.58363 -5.39274,1.10699 -8.12684,0.6223 -0.80356,-0.14246 -1.57657,-0.42231 -2.36487,-0.63347 -1.46119,-0.69692 -2.48597,-0.85632 -3.28671,-2.34884 -0.0924,-0.1722 0.15733,-0.36337 0.18228,-0.55718 0.0776,-0.6024 -0.0199,-1.22774 0.12353,-1.81793 0.40706,-1.67483 1.18099,-2.65945 2.07309,-4.10007 0.70205,-0.71704 1.46034,-1.94102 2.70095,-1.863 1.70344,0.10714 1.9087,3.58196 1.83523,4.49071 -0.0607,0.75063 -0.40236,1.45143 -0.60352,2.17714 -1.28381,3.80658 -1.35064,5.01312 -4.03106,8.35186 -2.75108,3.42672 -6.15402,5.83985 -9.55929,8.55239 -1.81181,1.44322 -3.63069,2.87751 -5.44605,4.31627 -0.33496,0.17626 2.15768,4.9135 2.49264,4.73724 v 0 c 2.3427,-1.06366 4.83701,-1.84239 7.02813,-3.19097 5.86184,-3.60784 11.26693,-9.66369 13.72875,-16.14635 0.66445,-1.74971 0.87484,-3.6396 1.31228,-5.45939 -0.20939,-2.01013 -0.12986,-4.07177 -0.62815,-6.03038 -0.8582,-3.37315 -3.81532,-6.33589 -7.48654,-6.03514 -2.54868,0.20879 -3.35322,1.44687 -5.11522,3.01297 -1.52453,2.34819 -2.41567,3.23012 -2.93864,6.10906 -0.71205,3.91963 0.76753,7.30361 4.17901,9.38607 0.87902,0.53657 1.90481,0.78358 2.85721,1.17537 1.02581,0.16821 2.03946,0.44806 3.07742,0.50463 3.24834,0.17704 6.72073,-0.85181 9.1499,-3.03956 0.15653,-0.0816 -0.997,-2.2953 -1.15353,-2.21373 z" />
    <path
       style="fill:#000000;stroke-width:0.264583"
       id="path75"
       d="m -289.92229,143.06214 c -0.38156,-0.0796 -0.75618,-0.20722 -1.14469,-0.23869 -2.62165,-0.21236 -5.81618,0.54171 -7.90533,2.19933 -0.47858,0.37973 -0.83561,0.89146 -1.25341,1.33719 -0.19545,0.56796 -0.6006,1.10341 -0.58637,1.7039 0.0214,0.90046 0.25077,1.82587 0.68887,2.61287 0.3628,0.65175 1.03698,1.07916 1.62319,1.54046 1.12162,0.88264 2.77971,1.77922 4.09472,2.31611 0.68683,0.28042 1.40893,0.46522 2.11338,0.69784 2.51005,0.52711 5.46206,0.87115 7.73338,-0.63725 0.25712,-0.17076 0.46696,-0.40375 0.70046,-0.60563 0.65529,-0.80619 1.08775,-1.59827 0.3166,-2.66544 -0.45188,-0.62537 -1.61669,-0.41469 -2.23282,-0.33064 -0.44749,0.0402 -0.87617,0.19536 -1.32112,0.24799 -0.74266,0.0878 -1.49397,0.0752 -2.23954,0.13324 -2.00583,0.15627 -1.70852,0.14828 -3.82127,0.43427 -4.61645,0.65952 -9.27743,1.44236 -13.59112,3.29438 -1.24952,0.53646 -2.44678,1.18723 -3.67019,1.78085 -7.74909,4.48879 -14.52311,10.70196 -18.67355,18.74637 -1.02121,1.97933 -1.73974,4.10071 -2.60964,6.15106 -1.5104,6.14071 -3.36579,11.18055 -2.60607,17.62661 0.47207,4.00523 1.33094,8.01515 2.80401,11.76947 3.42045,8.71755 9.20591,16.86503 16.52767,22.7481 4.04733,3.25205 8.88185,5.37957 13.32278,8.06935 20.59646,5.84333 10.11679,4.23798 31.43432,4.8465 0.75917,0.0299 1.18197,-10.70642 0.42281,-10.73632 v 0 c -18.3355,-1.24842 -9.349,0.23668 -26.96676,-4.41112 -3.79045,-2.10743 -7.90152,-3.72059 -11.3714,-6.3223 -6.13026,-4.59645 -11.57946,-11.78222 -15.10919,-18.53096 -1.47986,-2.82944 -2.7863,-5.81205 -3.45577,-8.93415 -0.74602,-3.47916 0.0859,-8.76985 0.51583,-12.42432 1.73604,-5.01256 1.81549,-6.16155 4.58716,-10.6388 3.34105,-5.39702 8.10191,-9.67523 13.26793,-13.26979 1.05082,-0.64619 2.07171,-1.3438 3.15246,-1.93856 2.49957,-1.37554 5.19972,-2.4099 7.96742,-3.08991 0.78092,-0.19187 1.57501,-0.32554 2.36114,-0.49469 0.7543,-0.16229 1.50675,-0.33307 2.26013,-0.49962 1.71569,-0.39389 3.42751,-0.78611 5.10598,-1.32199 0.53123,-0.16961 1.04105,-0.40229 1.57321,-0.56896 0.18161,-0.0569 0.3701,-0.0887 0.55515,-0.13303 0.47188,-0.12081 0.63442,-0.14955 0.5983,-0.20738 -0.0945,-0.15142 -0.35896,-0.15989 -0.42503,-0.32571 -0.29662,-0.74442 -0.21878,-1.37423 -0.0167,-1.29199 0.056,0.0228 -0.0668,0.10085 -0.10015,0.15128 -1.56519,1.11623 -4.33107,0.42742 -5.98964,-0.0406 -1.78075,-0.68238 -1.96527,-0.71996 -3.73769,-1.53949 -0.56964,-0.26339 -1.1354,-0.53601 -1.69145,-0.82704 -0.33631,-0.17602 -0.6069,-0.52956 -0.98399,-0.57323 -0.19576,-0.0227 -0.23077,0.4364 -0.42605,0.40994 -0.16711,-0.0226 -0.0926,-0.32433 -0.13894,-0.4865 0.22506,-0.234 0.40595,-0.52056 0.67519,-0.70202 0.43606,-0.29392 0.93091,-0.49124 1.41161,-0.70447 1.89579,-0.84092 3.91681,-1.45469 5.95474,-1.82569 0.17682,0.0212 0.47633,-2.47966 0.29948,-2.50084 z" />
  </g>
</svg>
