<?xml version="1.0" encoding="UTF-8" standalone="no"?>
<!-- Created with Inkscape (http://www.inkscape.org/) -->

<svg
   width="574.53564mm"
   height="78.077652mm"
   viewBox="0 0 574.53564 78.077652"
   version="1.1"
   id="svg1"
   xmlns:inkscape="http://www.inkscape.org/namespaces/inkscape"
   xmlns:sodipodi="http://sodipodi.sourceforge.net/DTD/sodipodi-0.dtd"
   xmlns="http://www.w3.org/2000/svg"
   xmlns:svg="http://www.w3.org/2000/svg">
  <sodipodi:namedview
     id="namedview1"
     pagecolor="#ffffff"
     bordercolor="#111111"
     borderopacity="1"
     inkscape:showpageshadow="0"
     inkscape:pageopacity="0"
     inkscape:pagecheckerboard="1"
     inkscape:deskcolor="#d1d1d1"
     inkscape:document-units="mm"
     showguides="true">
    <sodipodi:guide
       position="319.07912,227.92456"
       orientation="0,-1"
       id="guide82"
       inkscape:locked="false" />
  </sodipodi:namedview>
  <defs
     id="defs1" />
  <g
     inkscape:label="Layer 1"
     inkscape:groupmode="layer"
     id="layer1"
     transform="translate(383.33048,-123.67865)">
    <path
       style="fill:#000000;stroke-width:0.264583"
       id="path2"
       d="m 187.08607,181.45345 c -0.44948,-0.44501 -1.04254,-0.73844 -1.35485,-1.31298 -0.015,-0.0276 0.075,5.3e-4 0.0904,-0.027 0.42817,-0.76305 -0.10787,-0.27133 0.62086,-0.78488 0.30607,0.0147 1.02759,-0.10095 0.92606,0.58901 -0.0316,0.21489 -0.40011,0.21732 -0.51134,0.40388 -0.28119,0.47163 -0.3896,1.0288 -0.63553,1.51974 -0.85647,1.70979 -1.22455,2.07726 -2.36384,3.64821 -0.49603,0.50557 -0.93698,1.07182 -1.48808,1.51672 -0.91407,0.73794 -2.73764,1.83209 -3.914,0.87087 -0.88528,-0.72338 -0.7759,-0.73132 -0.40911,-1.05615 0.0918,-2.06238 -0.0148,-0.3703 0.18103,-2.24453 0.0207,-0.19769 0.092,-0.40205 0.0432,-0.59472 -0.0169,-0.0666 -0.10272,0.0925 -0.16127,0.12857 -0.17614,0.10839 -0.39173,0.16056 -0.54109,0.30362 -0.2849,0.27288 -0.49341,0.61568 -0.74011,0.92352 -0.85096,0.9447 -1.58805,2.16046 -2.76936,2.75041 -0.22102,0.11038 -0.48251,0.2155 -0.72346,0.16095 -0.61732,-0.13977 -0.66365,-0.90705 -0.79089,-1.33997 0.0511,-0.0501 0.14613,-0.079 0.15326,-0.15017 0.0325,-0.32402 -0.0233,-0.6509 -0.0404,-0.97609 -0.008,-0.14718 0.0746,-1.52399 -0.49174,-1.41054 -0.14719,0.0295 -0.25566,0.15742 -0.38349,0.23612 -0.54247,0.41515 -1.23771,1.35647 -2.00723,1.3186 -0.33225,-0.0163 -0.65014,-0.3034 -0.89486,-0.47924 -0.27737,-0.24509 -0.46889,-0.48345 -0.86227,-0.54843 -0.90195,-0.149 -1.71722,0.49182 -2.18893,1.19006 -0.26501,0.39228 -0.41142,0.85277 -0.61713,1.27915 -0.33451,1.32643 -0.46073,2.69996 0.15351,3.9736 0.21167,0.43889 0.42104,0.90455 0.77495,1.23948 0.24472,0.23158 0.8008,-0.15211 0.97069,-0.24271 0.10052,-0.15264 0.25272,-0.2818 0.30155,-0.45792 0.0543,-0.19584 0.0598,-0.41723 -0.006,-0.60966 -0.13319,-0.39204 -0.32325,-0.77245 -0.57554,-1.10075 -0.49131,-0.63931 -1.84192,-1.27512 -2.54902,-1.65338 -0.74758,-0.50464 -1.42255,-1.01515 -1.699,-1.90986 -0.009,-0.0306 0.0597,-0.023 0.0895,-0.0345 0.01,-0.24639 0.12115,-0.51028 0.0294,-0.73916 -0.16409,-0.40942 -0.50657,-0.72221 -0.75985,-1.08331 -0.54928,-0.15344 -1.08484,-0.36926 -1.64783,-0.46032 -2.11815,-0.3426 -4.64406,-0.29841 -6.73166,-0.26205 -1.50637,0.0263 -8.00198,0.30854 -9.45022,0.28746 -1.44386,-0.021 -2.8827,-0.17516 -4.32404,-0.26274 -1.6987,-0.353 -3.69727,-0.29052 -4.834,-1.91125 -0.16287,-0.23223 0.59818,0.25181 0.84381,0.10996 0.8072,-0.46613 1.31132,-1.36066 2.12119,-1.82214 2.62367,-1.49505 5.36524,-1.87848 8.26212,-2.54801 0.43761,-0.0976 -0.94283,-6.28634 -1.38044,-6.18872 v 0 c -4.10809,1.64908 -5.99195,1.87374 -9.10456,5.09342 -0.95588,0.98877 -1.99975,2.09025 -2.28425,3.43577 -0.61314,2.89985 0.18814,6.02151 2.60917,7.79661 1.15087,0.84383 2.60134,1.1744 3.90201,1.7616 1.61308,0.2134 3.21239,0.6095 4.83923,0.64019 3.34214,0.0631 6.54462,-0.65298 9.69579,-1.67889 2.55,-0.83018 4.8677,-2.13248 7.29738,-3.22934 0.0815,-0.10741 0.2203,-0.45489 0.24445,-0.32224 0.0475,0.2611 -0.17196,0.51453 -0.16116,0.77971 0.0762,1.87212 0.7357,2.8827 2.29527,3.82524 0.59207,0.2824 1.20449,0.52081 1.79619,0.80399 0.22114,0.10584 0.41313,0.27012 0.64088,0.36088 0.0654,0.0261 0.16531,-0.0759 0.21027,-0.0217 0.29977,0.36178 0.1839,0.57623 0.11753,0.96315 -0.38386,0.27451 -0.093,0.18088 -0.47743,-0.1079 -0.0318,-0.0239 0.0441,0.15256 0.038,0.11321 -0.0408,-0.26577 -0.12303,-0.52579 -0.14245,-0.79396 -0.0708,-0.97807 0.0436,-1.53609 0.15563,-2.52809 0.10553,-0.59385 0.29271,-3.3437 1.46967,-3.0777 0.18842,0.0426 0.71268,0.5537 0.81166,0.64313 0.17692,0.10458 0.341,0.23481 0.53075,0.31374 1.34897,0.5611 2.26541,-0.21622 2.85554,-1.384 0.0469,-0.28188 0.25178,-0.75648 -0.0157,-0.85711 -0.1762,-0.0663 -0.37915,0.39875 -0.45882,0.81181 -0.24225,1.25617 0.0319,1.528 0.36748,2.97195 0.19608,0.28423 0.33669,0.61615 0.58825,0.8527 1.46914,1.38145 3.34479,0.40917 4.42781,-0.90889 0.34451,-0.41927 0.56976,-0.92371 0.85464,-1.38557 0.32868,-1.11701 0.63651,-1.57674 0.34987,-2.7382 -0.0391,-0.15844 -0.17898,-0.32403 -0.33966,-0.3526 -1.10063,-0.19567 -1.27517,2.0308 -1.30794,2.53202 0.25701,0.81725 0.38877,1.68504 0.77101,2.45175 0.2208,0.44289 0.59553,0.81163 0.99889,1.09834 1.59857,1.13625 3.72364,0.86305 5.33919,-0.0832 0.68958,-0.4039 1.23644,-1.01284 1.85466,-1.51926 0.49403,-0.69619 1.07822,-1.33648 1.4821,-2.08856 0.40461,-0.75343 0.71581,-1.56386 0.92468,-2.39316 0.31037,-1.23229 0.70307,-4.46168 -1.13366,-4.91763 -0.24581,-0.061 -0.50302,0.0596 -0.75453,0.0894 -0.40145,0.27357 -0.89519,0.46282 -0.91009,1.06714 -0.0225,0.91235 0.43301,1.70869 1.27886,2.03656 0.17767,0.0689 0.37512,0.0672 0.56268,0.10079 0.0279,0.005 0.0931,-0.3893 0.0652,-0.39392 z" />
    <path
       style="fill:#000000;stroke-width:0.264583"
       id="path3"
       d="m 166.70313,173.47871 c -2.60701,-1.82328 -5.34834,-3.5084 -8.23471,-4.8565 -1.49311,-0.69738 -3.04924,-1.25101 -4.57387,-1.87651 -0.42548,-0.0247 -0.77493,5.99257 -0.34945,6.01728 v 0 c 1.54614,0.37353 3.07294,0.8389 4.63842,1.1206 2.68514,0.48317 5.74418,0.68579 8.48443,0.39291 0.0564,0.002 0.0916,-0.79529 0.0352,-0.79778 z" />
    <path
       style="fill:#000000;stroke-width:0.264583"
       id="path4"
       d="m 191.17947,171.18239 c -3.68748,-1.93645 -7.60385,-3.44345 -11.60654,-4.59256 -1.29555,-0.37193 -2.61465,-0.65631 -3.92197,-0.98446 -1.18036,-0.17247 -2.36072,-0.34493 -3.54109,-0.51739 -0.32055,0.0278 0.0728,4.56113 0.39339,4.53331 v 0 c 1.20839,0.31429 2.41678,0.62858 3.62518,0.94286 3.83844,0.65637 3.75011,0.69852 7.50017,1.12603 2.55272,0.29101 5.04087,0.51988 7.56029,-0.1239 0.0272,-7.9e-4 0.0177,-0.38456 -0.009,-0.38389 z" />
    <path
       style="fill:#000000;stroke-width:0.264583"
       id="path5"
       d="m 148.56742,154.32003 c 0.74965,1.49691 2.13281,2.87165 2.19115,4.64754 0.005,0.16511 -0.30447,0.16501 -0.38921,0.30682 -0.35043,0.58634 -0.59713,1.22875 -0.8957,1.84312 -1.79684,2.21711 -4.31778,3.28554 -6.83307,4.44251 -0.25715,0.0842 0.93387,3.72091 1.19102,3.63669 v 0 c 1.01209,-0.42622 2.08911,-0.72291 3.03628,-1.27866 2.69695,-1.58244 2.8238,-2.24277 4.59141,-4.6416 0.27872,-0.84722 0.78823,-1.65106 0.83616,-2.54166 0.15022,-2.79078 -0.88092,-5.71974 -3.63494,-6.71638 -0.0213,-0.007 -0.11443,0.29503 -0.0931,0.30162 z" />
    <path
       style="fill:#000000;stroke-width:0.264583"
       id="path6"
       d="m 139.23762,158.90562 c 0.63452,-0.56284 2.48623,-2.15979 3.36184,-1.41582 0.19836,0.16854 0.20601,0.47809 0.30902,0.71713 -0.14378,0.0585 -0.31202,0.0761 -0.43135,0.17537 -0.37325,0.31049 -0.63518,0.74517 -1.02433,1.0355 -1.80513,1.34675 -4.06916,2.04649 -6.25017,2.45738 -0.7037,0.13258 -1.42002,0.18613 -2.13003,0.2792 -0.55943,-0.0637 -1.15236,0.01 -1.67831,-0.19122 -0.97577,-0.37296 -1.5926,-1.3516 -1.5457,-2.39702 0.01,-0.21941 0.44182,-0.19581 0.52394,-0.39951 0.30531,-0.75736 0.34514,-1.59898 0.59507,-2.37637 0.30785,-0.95756 0.71691,-1.87958 1.07536,-2.81937 0.52613,-0.99743 0.97321,-2.04073 1.57838,-2.99228 0.65037,-1.02263 1.40171,-1.98044 2.17672,-2.91217 1.62603,-1.95484 3.10612,-3.44885 5.19833,-4.89413 0.81393,-0.56227 1.65605,-1.11486 2.58183,-1.46349 0.72939,-0.27467 1.53831,-0.25182 2.30746,-0.37772 0.65498,0.21915 1.3807,0.28912 1.96495,0.65746 1.25235,0.78953 1.79946,1.98789 2.00618,3.39657 0.0164,0.11182 -0.26446,0.0317 -0.31121,0.13456 -1.46164,3.21669 0.50315,0.73563 -2.03345,3.3813 -0.65572,0.31491 -1.27277,0.72804 -1.96717,0.94474 -2.05088,0.63999 -5.41997,0.5148 -6.97098,-1.22585 -0.23812,-0.26723 -0.33464,-0.63283 -0.50197,-0.94925 0.0119,0.0123 0.0365,0.0538 0.0356,0.0367 -0.0193,-0.37863 -0.11657,-1.7179 -0.36215,-1.99281 -0.18851,-0.21103 -0.55003,-0.14428 -0.83192,-0.16892 -1.63608,-0.14304 -1.95625,0.0326 -3.76272,0.29595 -0.92948,0.30793 -1.88431,0.54787 -2.78844,0.92379 -3.32244,1.38141 -6.57949,3.46607 -8.65497,6.48407 -2.12942,3.09644 -2.16553,4.76746 -3.06833,8.42241 -0.12268,1.92481 -0.38636,3.84579 -0.36804,5.77442 0.0213,2.24334 0.26494,4.48026 0.48661,6.71272 0.48859,4.9205 1.30429,10.39735 2.20616,15.2486 0.45367,2.44036 1.01154,4.8602 1.51731,7.2903 -0.35492,0.52963 7.13525,5.54898 7.49017,5.01935 v 0 c -0.12695,-2.35885 -0.12314,-4.72838 -0.38085,-7.07655 -1.10362,-10.05566 -4.27327,-19.68332 -6.24097,-29.56919 -0.0835,-3.72787 -0.60803,-4.82458 1.01831,-8.11309 1.91126,-3.86463 6.18846,-5.99825 9.5371,-8.4027 0.64189,-0.45928 1.28806,-0.91263 1.92565,-1.37784 0.3839,-0.2801 0.73744,-0.6032 1.1386,-0.85795 0.12229,-0.0777 0.30805,-0.0311 0.41511,-0.12871 0.0456,-0.0415 -0.10409,-0.18219 -0.13348,-0.128 -0.13066,0.24092 -0.22556,0.51651 -0.22589,0.79058 -7.9e-4,0.75193 0.14817,1.49655 0.22226,2.24482 0.22223,0.47655 0.36222,1.00095 0.66669,1.42966 1.88056,2.64795 5.59434,3.25359 8.53385,2.24893 0.86698,-0.29631 1.61898,-0.85832 2.42847,-1.28749 1.17388,-1.22436 2.65526,-2.3184 2.81608,-4.21346 0.26924,-3.1726 -0.60833,-6.57182 -3.48316,-8.29686 -0.80018,-0.48014 -1.74582,-0.65986 -2.61872,-0.9898 -1.02442,-0.0118 -2.06072,-0.19158 -3.07325,-0.0355 -5.04971,0.77825 -9.32218,5.18529 -11.67067,9.4641 -0.62205,1.13336 -1.01018,2.3802 -1.51527,3.5703 -0.47975,1.97789 -1.2277,4.37964 -1.12571,6.47329 0.0662,1.35937 0.28383,2.72056 0.65398,4.03024 0.17406,0.61587 0.53568,1.18234 0.95572,1.66521 1.24878,1.43558 1.93868,1.34383 3.7119,1.85706 0.83717,-0.0212 1.68416,0.066 2.51152,-0.0635 2.53359,-0.39668 5.10787,-1.67738 6.65878,-3.77595 0.40583,-0.54914 0.79573,-1.16427 0.90325,-1.83857 0.11562,-0.72514 -0.17423,-1.45823 -0.26134,-2.18734 -0.24546,-0.26414 -0.42242,-0.61508 -0.73638,-0.79241 -1.26268,-0.71317 -2.73433,0.47385 -3.33774,1.51596 -0.12142,0.20969 -0.17311,0.45264 -0.25966,0.67896 -0.025,0.0164 0.20702,0.37067 0.23208,0.35426 z" />
    <path
       style="fill:#000000;stroke-width:0.264583"
       id="path7"
       d="m 112.49185,176.73109 c -0.6064,0.23078 -1.16863,0.86506 -0.51227,1.40233 0.0264,0.008 0.0587,0.006 0.0793,0.024 0.0132,0.0118 -0.0454,-0.0166 -0.053,-5.3e-4 -0.068,0.14322 -0.1129,0.29658 -0.15956,0.44812 -0.0377,0.12233 -0.0566,0.24985 -0.0931,0.37253 -0.0603,0.20273 -0.14661,0.35066 -0.0706,0.21564 0.0951,0.009 0.0308,-0.13636 0.10524,-0.19633 0.0532,-0.0428 0.13389,-0.0355 0.19204,-0.0713 0.12965,-0.0798 0.24433,-0.1817 0.3665,-0.27254 0.15754,-0.0963 0.31507,-0.19265 0.4726,-0.28898 0.098,-0.0838 0.3072,-0.1231 0.29389,-0.2513 -0.0749,-0.72082 -1.52191,-0.31323 -1.89821,-0.55282 -0.0549,-0.0349 -0.0102,-0.12964 -0.0153,-0.19446 0.41732,0.0601 -0.21071,-0.008 0.60515,-0.1079 0.47171,-0.0575 1.07432,0.0703 0.95871,0.69657 -0.0411,0.22264 -0.17345,0.41827 -0.26018,0.6274 -0.072,-0.0179 -0.14642,-0.0798 -0.21587,-0.0538 -0.22217,0.0832 -0.39104,0.27668 -0.61175,0.36366 -0.35628,0.14042 -1.23758,0.28972 -1.26187,-0.36529 -0.007,-0.17971 0.0954,-0.34677 0.14312,-0.52016 0.0444,0.0224 0.0848,0.079 0.13306,0.0672 0.15106,-0.0371 0.26662,-0.17819 0.42018,-0.20292 0.15835,-0.0255 0.63703,0.0359 0.71789,0.27335 0.15565,0.45706 -0.052,0.34579 -0.20127,0.30008 -0.40037,0.20344 -1.60818,0.32263 -1.85552,-0.16056 -0.0413,-0.0806 -0.0109,-0.2215 0.0698,-0.26267 0.0743,-0.0379 0.14894,0.0754 0.22341,0.11306 0.34953,-0.0687 1.81488,0.14393 2.00108,0.42393 0.0266,0.04 -0.0587,0.14339 -0.093,0.10988 -0.0654,-0.0638 -0.0445,-0.17714 -0.0667,-0.2657 0.0258,-0.38181 -0.005,-0.43793 0.22714,-0.8333 0.0173,-0.0294 0.0746,0.005 0.10102,-0.0163 0.21781,-0.17811 0.42415,-0.63542 0.73396,-0.38491 -0.0599,0.0991 -0.0897,0.22458 -0.17977,0.29732 -0.0481,0.0388 -0.12712,-0.023 -0.18543,-0.003 -0.21115,0.0743 -1.19934,0.70772 -1.34495,0.36936 0.39888,0.0203 -0.10599,0.0162 0.60183,-0.15042 0.47099,-0.11086 1.20195,-0.2021 1.66332,0.0129 0.0775,0.0361 0.1094,0.13149 0.1641,0.19724 -0.0548,0.0978 -0.0625,0.24659 -0.16442,0.29328 -0.075,0.0343 -0.13507,-0.11152 -0.21725,-0.1184 -0.17668,-0.0148 -0.35175,0.0497 -0.52894,0.056 -0.51158,0.018 -0.95061,-0.0269 -1.39246,-0.28307 0.004,-0.0767 -0.0482,-0.18383 0.0131,-0.23003 0.0504,-0.0379 0.0986,0.093 0.16143,0.0985 0.13583,0.012 0.27051,-0.0623 0.40616,-0.0486 0.49759,0.0506 0.72922,0.29124 0.902,0.71927 -0.0455,0.10406 -0.0489,0.23979 -0.13634,0.3122 -0.0407,0.0337 -0.0752,-0.0912 -0.12797,-0.0934 -0.11979,-0.005 -0.23228,0.0701 -0.35214,0.0733 -0.44565,0.0119 -0.64886,-0.19105 -0.87182,-0.53431 -0.10125,-0.3169 -0.13985,-0.27425 -0.062,-0.57617 0.003,-0.0101 0.0114,0.0284 0.0206,0.0235 0.0849,-0.0457 0.20938,-0.19406 0.2654,-0.11551 0.0291,0.0408 -0.009,0.0998 -0.0142,0.14964 -0.43277,0.032 -1.04892,0.0836 -0.98174,-0.53082 0.0238,0.0246 0.0384,0.0646 0.0714,0.0739 0.0741,0.0208 0.16192,-0.0234 0.23073,0.0111 0.3158,0.15857 0.39166,0.95342 -10e-4,1.02911 -0.17395,0.17251 -0.39114,0.47927 -0.69283,0.46597 -0.31479,-0.0139 -0.31724,-0.35385 -0.19113,-0.5497 0.037,-0.0575 0.14295,0.015 0.20466,-0.0145 0.19326,-0.0923 0.3623,-0.22851 0.54344,-0.34277 0.52093,-0.16377 1.41065,-0.54894 1.90776,-0.0545 0.27564,0.27418 0.0224,0.7447 -0.22751,0.89525 -0.0879,0.0529 -0.18652,-0.0857 -0.27978,-0.12851 -0.0774,0.3422 -2.141,0.51077 -1.51294,-0.37929 0.0362,-0.0513 0.12939,0.0368 0.18785,0.0139 0.19852,-0.0778 0.374,-0.20488 0.561,-0.30731 0.28454,-0.11047 1.83088,-0.52282 1.83525,0.19499 2.7e-4,0.0454 -0.0678,-0.0781 -0.1132,-0.0759 -0.14401,0.007 -0.28021,0.0681 -0.42032,0.10214 -0.59137,0.0171 -1.44561,-0.15891 -1.43332,-0.9134 5.3e-4,-0.0318 0.0426,0.0697 0.0732,0.0611 0.11919,-0.0337 0.21867,-0.11638 0.32801,-0.17457 0.46955,-0.0245 0.70899,0.33614 0.48506,0.77509 -0.0223,0.0437 -0.10409,-0.027 -0.14705,-0.003 -1.03193,0.56782 0.18991,0.14643 -1.00208,0.48864 0.007,-0.0709 -0.60452,0.0674 -0.67356,-0.1522 -0.0175,-0.0556 0.1065,0.0549 0.16464,0.0586 0.20073,0.0128 0.40309,-0.0286 0.60332,-0.01 0.77443,0.0734 0.90107,0.17149 1.62649,0.43455 0.0972,0.0658 0.8111,0.47099 0.87305,0.73314 0.0195,0.0825 -0.0696,0.22275 -0.1521,0.20365 -0.11797,-0.0273 -0.11909,-0.22162 -0.21928,-0.28962 -0.17844,-0.12111 -0.40184,-0.15928 -0.592,-0.26103 -0.21692,-0.11608 -0.41742,-0.26054 -0.62614,-0.39081 -0.17324,-0.14784 -0.36014,-0.28102 -0.51971,-0.44351 -0.15685,-0.15972 -0.45313,-0.52505 -0.25166,-0.62262 0.0529,-0.0256 0.047,0.11471 0.095,0.14863 0.48254,0.34078 0.0848,-0.18235 0.42524,0.36061 -0.0197,0.10494 0.004,0.2286 -0.0589,0.31482 -0.0278,0.0381 -0.0831,-0.0616 -0.12997,-0.0561 -0.13698,0.0159 -0.259,0.10978 -0.39669,0.11737 -0.12338,0.007 -0.68344,-0.0145 -0.62973,-0.3495 0.0318,-0.19828 0.20661,-0.34441 0.30992,-0.51661 0.10528,0.008 0.21653,0.0614 0.31583,0.0254 0.26977,-0.0978 0.49216,-0.29847 0.75503,-0.41352 0.11228,-0.0491 1.69959,-0.74311 1.52294,0.10036 -0.0524,0.25017 -0.24299,0.44975 -0.36448,0.67462 -0.11891,-0.0109 -0.24722,-0.0802 -0.35674,-0.0326 -0.29344,0.12749 -0.51502,0.38388 -0.79752,0.53407 -0.45285,0.24075 -1.11723,0.49851 -1.65804,0.45414 -0.11522,-0.009 -0.28717,-0.067 -0.29505,-0.18233 -0.012,-0.17526 0.16725,-0.30896 0.25088,-0.46344 0.0967,0.0239 0.19334,0.0956 0.29001,0.0717 0.24456,-0.0605 0.44714,-0.23866 0.68768,-0.31353 0.36713,-0.11428 1.38801,-0.30465 1.57077,0.28708 0.039,0.12634 -0.0464,0.26035 -0.0696,0.39052 -0.0596,-0.0284 -0.11298,-0.0918 -0.17867,-0.0853 -0.17773,0.0174 -0.33614,0.1313 -0.51337,0.15326 -0.3704,0.0459 -1.07509,-0.0305 -0.9711,-0.5984 0.0297,-0.16244 0.15795,-0.29006 0.23692,-0.43508 0.0595,0.0282 0.11331,0.0934 0.17862,0.0847 0.17497,-0.0234 0.32563,-0.14602 0.4997,-0.1754 0.40324,-0.0681 1.03298,0.0129 0.90525,0.59888 -0.0374,0.17168 -0.16761,0.30886 -0.25142,0.46329 -0.0784,-0.0225 -0.15603,-0.0868 -0.23533,-0.0675 -0.20455,0.0498 -0.37324,0.19968 -0.57354,0.26453 -0.0673,0.0218 -1.2395,0.3447 -1.08741,-0.19908 0.039,-0.13956 0.17283,-0.23266 0.25925,-0.34899 0.1009,0.0364 0.19565,0.11568 0.3027,0.10908 0.2261,-0.0139 0.4352,-0.12966 0.6584,-0.16838 0.45656,-0.0792 1.27364,-0.19268 1.65169,0.20347 0.0655,0.0686 0.0562,0.18123 0.0843,0.27184 -0.23436,-0.0951 0.11904,0.024 -0.40129,0.15349 -0.35738,0.089 -1.02939,-0.0163 -1.26602,-0.34014 -0.0516,-0.0705 -0.0203,-0.17358 -0.0304,-0.26038 0.35235,0.0355 0.49286,-0.20551 0.89555,-0.0573 0.5936,0.21846 0.48866,0.75186 0.39491,1.23733 -0.46117,-0.10862 0.11415,-0.0146 -0.75188,0.24507 -0.56187,0.1685 -1.4899,0.17256 -1.85761,-0.40502 -0.092,-0.14449 -0.0556,-0.33802 -0.0834,-0.50703 0.12334,-0.20701 0.18317,-0.46886 0.37002,-0.62101 0.0787,-0.0641 0.19474,0.10295 0.29376,0.0805 0.26836,-0.0609 0.49534,-0.24834 0.76109,-0.31974 0.39993,-0.10744 0.93196,-0.17984 1.27965,0.1448 0.13356,0.12469 0.15756,0.32973 0.23635,0.4946 -0.0449,0.1882 -0.0199,0.40891 -0.13481,0.56462 -0.0482,0.0653 -0.15724,-0.0853 -0.23531,-0.063 -0.22516,0.0643 -0.40374,0.25098 -0.63026,0.31036 -0.40202,0.10538 -0.92331,0.0838 -1.25383,-0.2181 -0.12281,-0.11219 -0.14328,-0.30024 -0.21491,-0.45036 0.0692,-0.18505 0.071,-0.41231 0.2075,-0.55516 0.058,-0.0607 0.15249,0.11268 0.23409,0.0929 0.23764,-0.0575 0.43132,-0.23715 0.66462,-0.31032 0.77148,-0.24194 1.10048,-0.0952 1.67345,0.39165 0.006,0.144 0.0593,0.2936 0.019,0.432 -0.013,0.0448 -0.0841,-0.0684 -0.12879,-0.0548 -0.18214,0.0554 -0.33226,0.19165 -0.51343,0.25013 -0.76802,0.2479 -1.08886,0.14388 -1.743,-0.24491 -0.0833,-0.14053 -0.16652,-0.28105 -0.24978,-0.42158 -0.0393,-0.0333 -0.50957,0.52176 -0.47032,0.55502 v 0 c 0.11615,0.19434 0.23231,0.38869 0.34846,0.58304 0.52311,0.35149 0.69624,0.57794 1.38114,0.57119 1.00121,-0.01 1.75414,-0.66935 1.91762,-1.66027 0.0367,-0.22246 -0.10411,-0.43875 -0.15616,-0.65812 -0.16077,-0.17522 -0.28396,-0.39448 -0.4823,-0.52566 -0.71345,-0.47186 -1.83747,-0.44994 -2.46235,0.19165 -0.32883,0.33764 -0.58881,0.75094 -0.76931,1.18631 -0.0964,0.23243 -0.0235,0.50269 -0.0352,0.75403 0.12554,0.23491 0.18549,0.5192 0.3766,0.70473 0.20864,0.20254 0.48802,0.34022 0.77057,0.40893 1.311,0.3188 2.08271,-0.5172 2.47213,-1.6877 0.081,-0.24348 -0.0168,-0.51292 -0.0252,-0.76938 -0.13829,-0.22795 -0.22528,-0.49639 -0.41487,-0.68385 -0.66711,-0.65956 -1.93042,-0.74651 -2.64601,-0.0815 -0.95765,0.88999 -0.88975,1.12854 -1.06847,2.11806 0.0783,0.25099 0.0875,0.53531 0.23496,0.75296 0.52228,0.77066 1.58178,0.87882 2.38634,0.58576 0.27234,-0.0992 0.56257,-0.21941 0.74938,-0.44102 0.26981,-0.32008 0.378,-0.74707 0.56701,-1.12061 -0.0126,-0.21415 0.0276,-0.43815 -0.0379,-0.64246 -0.19481,-0.6082 -0.7984,-0.96015 -1.41583,-0.83607 -0.17999,0.0362 -0.38391,0.0842 -0.5033,0.2237 -0.17385,0.20309 -0.21223,0.49075 -0.31834,0.73613 0.0303,0.15792 0.011,0.33421 0.0909,0.47377 0.35987,0.62868 1.67747,0.71107 2.08183,0.12529 0.15242,-0.22081 0.17471,-0.50737 0.26206,-0.76106 -0.0445,-0.1638 -0.044,-0.3472 -0.13353,-0.49142 -0.52721,-0.8493 -2.00443,-0.86033 -2.73083,-0.28229 -0.2984,0.23745 -0.48488,0.58872 -0.72732,0.88308 -0.0267,0.16243 -0.0978,0.32364 -0.08,0.48728 0.174,1.59965 2.80282,0.59684 2.87138,-0.61041 0.0281,-0.19617 0.1087,-0.39183 0.0844,-0.58852 -0.0854,-0.69196 -0.70865,-1.04642 -1.35536,-0.95235 -0.22615,0.0329 -0.47226,0.082 -0.64544,0.23115 -0.27585,0.23751 -0.43053,0.58709 -0.64579,0.88063 -0.0284,0.19037 -0.10948,0.38017 -0.0852,0.5711 0.19049,1.49725 2.41944,1.17689 2.63251,-0.19446 -0.0335,-0.50557 0.047,-0.78656 -0.4165,-1.15804 -0.69143,-0.55408 -1.88298,-0.43588 -2.49819,0.19197 -0.32715,0.33387 -0.50351,0.78768 -0.75527,1.18152 2.3e-4,0.23699 -0.0777,0.48732 7.9e-4,0.71098 0.0899,0.25662 0.24144,0.5287 0.47965,0.65986 0.8797,0.48435 2.42213,-0.16352 2.99933,-0.84945 0.38647,-0.45927 0.59999,-1.03979 0.89998,-1.55968 0.007,-0.56631 0.14412,-1.02409 -0.36204,-1.45884 -0.77249,-0.6635 -2.05956,-0.1796 -2.64239,0.49246 -0.32744,0.37758 -0.50576,0.86217 -0.75864,1.29326 10e-4,0.21663 -0.0651,0.44455 0.004,0.64991 0.40238,1.19773 2.35544,0.21473 1.86721,-0.83506 -0.15263,-0.16829 -0.40643,-0.5719 -0.73867,-0.43304 -0.35418,0.14803 -0.68773,0.65435 -0.62783,1.05557 0.0863,0.57835 0.50763,0.83084 0.8968,1.1937 0.45932,0.19004 1.04655,0.53802 1.59126,0.37355 0.81498,-0.24608 1.2037,-1.01506 0.6844,-1.73703 -0.1802,-0.25052 -0.46251,-0.40866 -0.69377,-0.61299 -0.32279,-0.11265 -0.62955,-0.29238 -0.96839,-0.33795 -0.51329,-0.069 -1.45592,0.0496 -1.85126,0.48279 -0.27362,0.29983 -0.47076,0.95019 -0.0453,1.25288 0.18047,0.12839 0.42748,0.11607 0.64122,0.1741 0.47967,-0.12638 0.97866,-0.16365 1.3002,-0.61986 0.41088,-0.58299 0.73604,-1.51938 -0.0775,-1.93032 -0.15156,-0.0765 -0.33413,-0.0606 -0.50119,-0.0909 -0.16102,0.0745 -0.3709,0.0861 -0.48308,0.22353 -0.70597,0.86512 -0.23672,1.94231 0.83886,2.08569 0.22491,0.03 0.45233,-0.0365 0.67849,-0.0547 0.19165,-0.0972 0.43299,-0.13021 0.57494,-0.29152 0.52933,-0.60152 0.37705,-1.33371 -0.36639,-1.61462 -0.63507,-0.23997 -0.93157,-0.0657 -1.55967,0.0824 -0.78384,0.53179 -0.9554,0.47062 -1.23022,1.55951 -0.19949,0.79042 0.66343,1.34406 1.34557,1.28769 0.29263,-0.0242 0.55313,-0.19727 0.82969,-0.29591 0.29993,-0.36517 0.6643,-0.68582 0.89981,-1.09551 0.11494,-0.19995 0.14527,-0.45174 0.12151,-0.68115 -0.0919,-0.8868 -0.97774,-1.25626 -1.77058,-1.14195 -0.30105,0.0434 -0.57239,0.20596 -0.85858,0.30895 -0.71368,0.57751 -0.94647,0.57677 -1.12379,1.62399 -0.0295,0.1741 0.0527,0.36365 0.15748,0.50578 0.40108,0.54407 1.02268,0.2593 1.40324,-0.0945 0.14114,-0.30957 0.33122,-0.60122 0.42343,-0.92872 0.21432,-0.7612 -0.79607,-1.62978 -1.21993,-0.6646 -0.002,0.10916 -0.0389,0.22335 -0.006,0.32747 0.22335,0.70794 1.34427,0.65937 1.44686,-0.0915 -0.44575,-0.94684 -1.16889,0.64325 -0.71092,1.03917 0.0932,0.11994 0.16644,0.25852 0.27962,0.35983 0.8112,0.72611 1.88551,0.21814 1.92074,-0.8703 -0.0619,-0.16281 -0.0791,-0.35069 -0.18575,-0.48843 -0.65785,-0.84972 -2.22689,-0.43375 -1.97194,0.74354 0.10758,0.13695 0.17824,0.31363 0.32274,0.41083 0.47645,0.3205 1.47719,0.34092 1.95151,0.004 0.24812,-0.17615 0.44352,-0.42956 0.59099,-0.69572 0.0729,-0.1316 0.029,-0.2995 0.0434,-0.44926 -0.0769,-0.15211 -0.10765,-0.33842 -0.23074,-0.45634 -0.62758,-0.60124 -1.98802,-0.35687 -2.4869,0.3049 -0.1397,0.18532 -0.16955,0.43208 -0.25432,0.64812 0.042,0.12304 0.0299,0.28163 0.12608,0.36913 0.69997,0.63679 2.21433,-0.52981 2.00458,-1.50372 -0.085,-0.0959 -0.1379,-0.23589 -0.25515,-0.28769 -0.93141,-0.41148 -1.77846,1.45506 -1.10604,2.11776 0.15885,-0.0575 0.35449,-0.0557 0.47655,-0.17252 0.0933,-0.0893 0.11707,-0.24793 0.096,-0.37532 -0.12089,-0.72966 -1.03812,-0.92211 -1.64329,-0.87565 -0.2555,0.0196 -0.49492,0.13312 -0.74237,0.19968 -0.19095,0.24989 -0.44582,0.46197 -0.57286,0.74966 -0.0697,0.15784 -0.0538,0.35848 0.0134,0.51743 0.27046,0.64073 1.1623,0.72875 1.73441,0.56596 0.22224,-0.0632 0.41109,-0.2111 0.61664,-0.31666 0.14525,-0.27092 0.35291,-0.51673 0.43577,-0.81276 0.0467,-0.16704 0.0104,-0.35962 -0.0637,-0.51645 -0.0799,-0.16906 -0.21009,-0.33081 -0.37674,-0.41562 -0.27638,-0.14066 -1.0085,-0.14949 -1.25603,0.0891 -0.27633,0.26637 -0.39585,0.65769 -0.59378,0.98653 0.0251,0.50945 -0.0545,0.79198 0.34359,1.19627 0.58833,0.59753 1.67242,0.53438 2.2414,-0.0852 0.32991,-0.35927 0.5039,-0.83531 0.75585,-1.25296 0.0144,-0.49841 0.12554,-0.8916 -0.24308,-1.31381 -0.42447,-0.48619 -1.37405,-0.52638 -1.81235,-0.0284 -0.17901,0.20337 -0.22281,0.49394 -0.33422,0.74091 0.0894,0.38837 0.0433,0.6192 0.52242,0.77032 0.48377,0.15259 1.68041,-0.004 1.73947,-0.71184 0.011,-0.13174 -0.26274,-0.0296 -0.39411,-0.0444 -0.51148,0.38049 -1.40029,1.07741 -1.0091,1.81256 0.24946,-0.29212 0.50664,-0.57747 0.42435,-1.00011 -0.01,-0.0508 -0.0956,-0.0677 -0.0995,-0.11934 -0.006,-0.0824 0.0483,-0.15815 0.0725,-0.23722 -0.005,-0.0397 -0.011,-0.0795 -0.0165,-0.11921 -0.005,-0.007 -0.19851,-0.29719 -0.19908,-0.29765 -0.0235,-0.0186 -0.0917,0.0314 -0.0899,0.001 0.0148,-0.25179 0.78726,-0.31304 0.69673,-0.61702 0.0222,-0.002 -0.008,-0.31635 -0.03,-0.31423 z" />
    <path
       style="fill:#000000;stroke-width:0.264583"
       id="path8"
       d="m 111.51681,184.17071 c -0.19532,0.13931 -0.88828,0.27007 -1.00993,0.48235 -0.15105,0.26358 0.2118,-0.0228 0.33873,-0.0765 0.15219,-0.0644 0.31259,-0.1073 0.46889,-0.16095 0.27174,-0.0197 1.23512,-0.34376 1.36439,0.15078 0.018,0.0689 -0.15493,-0.008 -0.21048,0.036 -1.40925,1.12875 1.03025,-0.37557 -1.07036,0.83101 -0.46338,0.14872 -1.63277,0.76934 -2.15156,0.49645 -0.0947,-0.0499 -0.16692,-0.22533 -0.0968,-0.30624 0.0853,-0.0984 0.26807,0.0161 0.3893,-0.0313 0.23705,-0.0928 0.44152,-0.25352 0.66228,-0.38028 0.87673,-0.23981 2.29705,-0.9184 3.04737,-0.0145 0.036,0.0433 -0.13787,-0.0315 -0.16821,0.0159 -0.0972,0.15204 -0.1137,0.34256 -0.17055,0.51385 -0.72887,0.64143 -1.50059,0.74146 -2.30767,0.17077 -0.0216,-0.0153 0.0715,0.0278 0.0795,0.003 0.0456,-0.14483 0.0413,-0.30089 0.0619,-0.45133 0.29858,-0.33925 0.8241,-0.75153 1.25422,-0.30332 0.12618,0.13149 0.2288,0.30596 0.24813,0.48717 0.008,0.0734 -0.15183,0.0579 -0.18284,0.12486 -0.0822,0.17744 -0.0926,0.37996 -0.13888,0.56994 0.0758,0.61064 -1.4196,0.95622 -1.33426,0.0915 0.008,-0.0789 0.16976,-0.011 0.22911,-0.0635 0.12491,-0.11052 0.19826,-0.26826 0.29739,-0.40239 0.63212,-0.27159 1.19036,-0.24189 1.63278,0.34763 0.0245,0.0327 -0.0921,0.0371 -0.0945,0.0779 -0.0632,1.05529 0.27221,0.23251 -0.22344,1.12737 -0.52805,0.30218 -1.26049,0.35503 -1.49478,-0.37858 -0.0248,-0.0777 0.15989,-0.0769 0.1918,-0.15192 0.69958,-1.64542 -0.42625,0.11075 0.6994,-1.46737 0.4598,-0.33612 1.45879,-0.97656 2.03915,-0.42609 0.14444,0.137 0.23578,0.35826 0.21694,0.55644 -0.009,0.0985 -0.21194,0.0279 -0.27937,0.10035 -0.15855,0.17026 -0.24463,0.39581 -0.36694,0.59371 -0.49903,0.42231 -1.25371,0.91882 -1.90106,0.41418 -0.16411,-0.12793 -0.3083,-0.31295 -0.3502,-0.51677 -0.0164,-0.0796 0.18159,-0.026 0.22443,-0.095 0.11466,-0.18476 0.1443,-0.41026 0.21646,-0.6154 0.39786,-0.49898 0.96727,-0.97667 1.60929,-0.49848 0.17338,0.12914 0.31967,0.31008 0.39932,0.51106 0.0227,0.0573 -0.13811,0.0349 -0.16014,0.0925 -0.0756,0.19736 -0.076,0.41576 -0.11397,0.62364 -0.35111,0.4694 -0.87139,0.93286 -1.49115,0.55636 -0.14221,-0.0864 -0.27839,-0.22177 -0.32043,-0.38276 -0.0181,-0.0694 0.1579,-0.0223 0.19939,-0.0808 0.10993,-0.15499 0.15225,-0.3482 0.22837,-0.52229 0.28112,-0.28696 0.88689,-0.89411 1.36133,-0.84435 0.0458,0.005 0.0638,0.11462 0.0231,0.13616 -0.11642,0.0617 -0.26576,0.0172 -0.39084,0.0586 -0.21632,0.0715 -0.41652,0.18478 -0.62479,0.27717 -0.6815,0.18264 -1.98335,0.68205 -2.57762,0.0487 -0.035,-0.0373 0.10734,0.0548 0.15084,0.0279 0.12214,-0.0754 0.20113,-0.20484 0.30169,-0.30726 0.73707,-0.16957 1.70289,-0.25707 2.27811,0.34955 0.0292,0.0307 -0.0873,-0.0606 -0.12191,-0.0362 -0.0986,0.0697 -0.15118,0.18844 -0.22677,0.28267 -0.57069,0.22403 -1.18255,0.2004 -1.75588,-0.017 -0.15623,-0.0592 -0.28378,-0.17837 -0.43587,-0.24756 -0.0234,-0.0106 0.0302,0.0911 0.0384,0.0668 0.0276,-0.0815 0.0173,-0.17129 0.026,-0.25695 0.4084,-0.14112 0.78426,-0.0547 1.07684,0.2708 0.0168,0.0187 -0.0594,-0.0154 -0.0754,0.004 -0.0616,0.0743 -0.0618,0.19564 -0.13847,0.25419 -0.10657,0.0814 -0.25149,0.093 -0.37724,0.13952 -0.14658,0.0394 -0.84333,0.081 -0.77794,-0.29142 0.008,-0.0472 0.10019,0.0171 0.14375,-0.003 0.76085,-0.3493 -0.44901,0.0157 0.52902,-0.2446 0.13689,-0.005 0.30445,-0.0742 0.35993,0.11367 0.007,0.0229 -0.0561,0.007 -0.0653,0.0294 -0.0293,0.0702 -0.0101,0.15488 -0.0407,0.22451 -0.0702,0.15979 -0.2014,0.23588 -0.33122,0.33767 -0.31388,0.0885 -0.16049,0.0796 -0.45906,0.0419 -0.0226,0.003 0.0179,0.32323 0.0405,0.32036 v 0 c 0.40302,0.0427 0.20657,0.0673 0.58906,-0.0759 0.42668,-0.3082 0.62594,-0.65545 0.31472,-1.16838 -0.0535,-0.0882 -0.13889,-0.16343 -0.23461,-0.20197 -0.11101,-0.0447 -0.23812,-0.0242 -0.35718,-0.0363 -0.16636,0.0749 -0.58356,0.21112 -0.6462,0.44108 -0.1344,0.49346 0.17703,1.01389 0.68055,1.09072 0.17031,0.026 0.34313,-0.0313 0.51469,-0.047 0.19526,-0.12705 0.7621,-0.399 0.73232,-0.75166 -0.0236,-0.27949 -0.19144,-0.53949 -0.37016,-0.75566 -0.39831,-0.48176 -1.01923,-0.26133 -1.42395,0.0327 -0.0712,0.12423 -0.2377,0.23149 -0.21375,0.37269 0.19791,1.16649 1.49443,1.56329 2.47792,1.17848 0.21349,-0.0835 0.38597,-0.24751 0.57895,-0.37127 0.10735,-0.17123 0.31974,-0.31162 0.32205,-0.51371 0.0143,-1.25628 -1.40679,-1.77 -2.41386,-1.43928 -0.25069,0.0823 -0.45747,0.26308 -0.68621,0.39463 -0.11744,0.19032 -0.34024,0.34765 -0.35231,0.57096 -0.0172,0.31823 0.10923,0.64253 0.27185,0.91661 0.12028,0.20272 0.32873,0.35353 0.54171,0.45456 0.91971,0.43628 1.82529,0.0693 2.62259,-0.4191 0.18742,-0.21191 0.45468,-0.37409 0.56225,-0.63574 0.10532,-0.25616 0.0942,-0.55824 0.0403,-0.82993 -0.14963,-0.75517 -1.23709,-0.40542 -1.59098,-0.13779 -0.22616,0.17103 -0.36642,0.43281 -0.54963,0.64922 -0.0907,0.25345 -0.29203,0.49192 -0.27203,0.76036 0.0952,1.27744 1.33941,2.2195 2.49822,1.40374 0.23708,-0.16689 0.3812,-0.43693 0.5718,-0.6554 0.0694,-0.27518 0.25458,-0.5456 0.20803,-0.82554 -0.22459,-1.35064 -1.46388,-2.57869 -2.83131,-1.69486 -0.24789,0.16022 -0.40905,0.42563 -0.61359,0.63845 -0.10125,0.28579 -0.32551,0.55495 -0.30376,0.85736 0.10677,1.48479 1.40487,2.66837 2.85838,1.91754 0.28684,-0.14818 0.49715,-0.41204 0.74572,-0.61807 0.14701,-0.28752 0.42065,-0.54029 0.44104,-0.86257 0.10108,-1.5976 -1.1096,-2.83573 -2.69295,-2.20801 -0.34616,0.13723 -0.61928,0.41368 -0.92892,0.62052 -0.41189,0.61186 -0.95683,1.1534 -0.80658,1.99193 0.18833,1.05104 0.91366,2.16306 2.11558,1.89074 0.26625,-0.0603 0.48706,-0.24677 0.73058,-0.37017 0.15064,-0.22721 0.36765,-0.42237 0.45191,-0.68164 0.41447,-1.27523 -0.90897,-2.74163 -2.2064,-2.40045 -0.24837,0.0653 -0.45095,0.24589 -0.67643,0.36884 -0.12528,0.198 -0.35028,0.36108 -0.37585,0.59399 -0.11956,1.08881 0.84283,2.12506 1.8899,1.39993 0.20249,-0.14024 0.32205,-0.37277 0.48307,-0.55916 0.0697,-0.25126 0.23686,-0.49454 0.20897,-0.75378 -0.10869,-1.00994 -1.01874,-2.36418 -2.17103,-1.59102 -0.19853,0.13321 -0.31764,0.35742 -0.47647,0.53613 -0.0589,0.22311 -0.2324,0.4454 -0.17668,0.66933 0.34103,1.37038 1.81853,1.8786 2.9602,1.13905 0.23633,-0.15308 0.401,-0.39539 0.6015,-0.59309 0.085,-0.24739 0.28674,-0.4825 0.25507,-0.74216 -0.20348,-1.66857 -1.81703,-2.2733 -3.24799,-1.7294 -0.34879,0.13257 -0.64495,0.37544 -0.96743,0.56317 -0.20586,0.25299 -0.51185,0.45042 -0.61759,0.75897 -0.11946,0.3486 -0.0984,0.74496 -0.0213,1.1053 0.19994,0.93379 1.44515,0.87914 2.1037,0.663 0.33129,-0.10873 0.61984,-0.31955 0.92976,-0.47932 0.35716,-0.3789 0.98516,-0.8706 1.00387,-1.48803 0.0419,-1.38285 -1.04414,-1.48391 -1.99918,-1.04272 -0.15274,0.1574 -0.56256,0.48073 -0.55675,0.78106 0.0163,0.84379 1.13548,0.228 1.2931,-0.17641 0.0204,-0.0148 -0.1893,-0.30387 -0.20974,-0.28904 z" />
    <path
       style="fill:#000000;stroke-width:0.193476"
       id="path26"
       d="m 91.373006,181.6806 c 1.052231,-1.35899 1.726328,-3.31183 1.683362,-5.00588 -0.01586,-0.62423 -0.169459,-1.2381 -0.254192,-1.85714 -0.326853,-0.69034 -0.511192,-1.46181 -0.980557,-2.071 -0.767413,-0.99605 -1.663735,-1.91814 -2.679741,-2.67978 -2.343604,-1.75688 -6.203686,-2.289 -9.039282,-1.70789 -1.189465,0.24376 -2.289656,0.79056 -3.434486,1.18585 -1.04798,0.74639 -2.214692,1.35869 -3.143945,2.23918 -3.272509,3.10079 -5.073735,7.61777 -4.500196,12.04994 0.195891,1.5138 0.579738,3.06523 1.388516,4.37647 1.092238,1.77081 2.796135,3.1164 4.194203,4.67459 1.575441,0.54256 3.074182,1.37409 4.726327,1.62769 6.473025,0.99359 13.508626,-2.64661 15.991552,-8.53617 0.534273,-1.26731 0.562023,-2.68176 0.843034,-4.02265 -0.294916,-1.25041 -0.58984,-2.50082 -0.884756,-3.75123 -0.0015,-0.32117 -4.712843,-0.30455 -4.711626,0.0166 v 0 c 0.02646,0.68656 0.05291,1.37312 0.07936,2.05968 -0.210245,0.75827 -0.289773,1.56206 -0.630742,2.27481 -1.601611,3.34796 -5.812993,6.0647 -9.707531,5.73606 -0.844964,-0.0713 -1.62029,-0.48431 -2.430436,-0.72647 -1.70533,-0.53572 -1.532209,-0.21193 -2.210573,-2.89254 -0.405302,-1.60157 -0.367396,-4.59512 0.175637,-6.19113 0.643248,-1.89055 1.734896,-2.64677 3.110048,-3.96978 0.669249,-0.32336 1.291851,-0.75908 2.007747,-0.97007 1.248514,-0.36796 2.921738,-0.30749 4.173732,0.006 0.609591,0.15282 1.141159,0.52981 1.748545,0.69058 0.207483,0.0549 0.449345,-0.14857 0.642715,-0.0576 0.386934,0.18201 0.649195,0.54533 0.973792,0.81799 0.14069,0.34266 0.334938,0.66916 0.42207,1.02799 0.247121,1.01771 0.0555,2.14248 -0.03698,3.16716 -0.02121,0.23506 -0.06561,0.46856 -0.07186,0.70443 -0.0033,0.12357 0.02896,0.24564 0.04344,0.36847 -0.103824,0.17128 2.408986,1.58673 2.512811,1.41545 z" />
    <path
       style="fill:#000000;stroke-width:0.193476"
       id="path27"
       d="m 75.052821,172.57752 c -0.532534,0.4875 -0.921428,1.09541 -1.399585,1.62743 -0.273091,0.30386 -0.562926,0.59345 -0.85175,0.88347 -0.351633,0.3531 -0.676865,0.73524 -1.069414,1.04569 -0.555517,0.43934 -1.175752,0.79658 -1.763627,1.19486 -1.946175,1.37798 -3.875965,2.77722 -5.810431,4.17038 -0.42449,0.30571 -0.851477,0.60823 -1.273049,0.91767 -0.228863,0.16799 -0.482923,0.31082 -0.678115,0.5145 -0.04064,0.0424 0.01342,0.11474 0.02013,0.17212 0.564351,0.37285 1.223178,0.63916 1.693052,1.11855 0.153181,0.15629 0.0066,0.43087 0.03466,0.64417 0.0095,0.0723 0.133077,-0.0989 0.140727,-0.1714 0.01633,-0.15474 -0.016,-0.31071 -0.02398,-0.46606 0.10785,-0.13547 -1.879481,-1.6058 -1.987331,-1.47033 v 0 c -0.07543,-0.06 -0.130374,-0.19829 -0.226275,-0.17993 -0.153124,0.0293 -0.256692,0.17676 -0.357474,0.29169 -0.351781,0.4012 -0.947635,1.35102 -0.648124,1.86826 0.401627,0.69357 1.249018,1.03636 1.873527,1.55454 0.333121,0.0407 0.663757,0.13303 0.999358,0.12221 1.136137,-0.0366 2.205337,-0.39375 3.226508,-0.85431 2.48348,-1.12009 4.642476,-2.74776 6.528711,-4.65283 1.054657,-1.30907 1.785101,-2.09575 2.603882,-3.48031 0.235708,-0.39858 0.421016,-0.82312 0.618115,-1.24072 0.298391,-0.6322 0.607998,-1.29155 0.674873,-1.99169 0.118678,-0.15844 -2.205704,-1.7764 -2.324383,-1.61796 z" />
    <path
       style="fill:#000000;stroke-width:0.193476"
       id="path28"
       d="m 63.675885,184.91237 c 0.831025,-1.34087 1.193692,-2.727 1.428058,-4.25976 0.110696,-1.57524 -0.0988,-3.18045 -0.809881,-4.61786 -0.138581,-0.28013 -0.311701,-0.54314 -0.467552,-0.81471 -1.269965,-1.98904 -2.829449,-3.22861 -4.832208,-4.44574 -1.435658,-0.76697 -3.028333,-1.21923 -4.664154,-1.35824 -1.123014,-0.0954 -1.752957,-0.0276 -2.872349,0.0268 -1.746435,0.19553 -3.48351,0.58774 -5.016888,1.44666 -0.886004,0.49629 -1.119853,0.75678 -1.905018,1.41258 -0.275341,0.32559 -0.570506,0.6365 -0.826022,0.97678 -0.511472,0.68113 -0.886181,1.36244 -1.257888,2.12081 -0.679157,1.38565 -0.985651,1.99682 -1.29406,3.55131 -0.124789,0.62898 -0.143754,1.27323 -0.215632,1.90985 -0.07782,1.65458 0.04225,3.3055 0.661111,4.86566 0.172722,0.43544 0.35923,0.87291 0.626476,1.26145 1.17359,1.70623 1.296292,1.67172 2.689721,2.79006 1.531671,1.08129 3.211203,1.99948 5.072677,2.42944 1.238827,0.28613 1.560143,0.23011 2.851279,0.26984 1.270372,-0.1592 2.396218,-0.26007 3.646792,-0.61616 2.535882,-0.72206 5.124086,-2.07697 7.154053,-3.70122 0.819263,-0.65552 1.524977,-1.43271 2.287465,-2.14906 0.623628,-0.86216 1.247258,-1.72433 1.870887,-2.58649 0.238213,-0.30716 -4.267893,-3.55473 -4.506105,-3.24756 v 0 c -0.446338,0.6469 -0.892674,1.29379 -1.339011,1.9407 -0.571921,0.59825 -1.110276,1.22803 -1.715761,1.79476 -1.338888,1.25318 -2.20767,1.84541 -3.757348,2.79748 -0.370941,0.22789 -2.462643,1.4308 -3.037898,1.64892 -0.300507,0.11394 -0.632413,0.12627 -0.94862,0.18941 -0.290926,-0.003 -0.584523,0.0299 -0.87278,-0.008 -0.582772,-0.0768 -1.301401,-0.37301 -1.818478,-0.60716 -1.071613,-0.48524 -2.053688,-1.11876 -3.050355,-1.72923 -0.253657,-0.17299 -0.461249,-0.44001 -0.760976,-0.51898 -0.117662,-0.031 0.186261,0.4136 0.08946,0.34205 -0.389544,-0.28794 -0.519257,-0.98077 -0.568034,-1.3823 -0.112134,-0.92312 -0.03627,-1.74053 0.0012,-2.67107 0.392374,-3.58358 -0.01186,0.3046 0.296539,-3.30039 0.03725,-0.43534 0.03438,-0.87828 0.136681,-1.30382 0.07633,-0.31749 0.253675,-0.60441 0.393413,-0.90116 0.356556,-0.75722 0.364389,-0.72975 0.776088,-1.38102 0.149098,-0.15404 0.274878,-0.33266 0.447294,-0.46212 0.183336,-0.13767 0.397145,-0.2345 0.607427,-0.32988 1.209821,-0.54873 2.555637,-0.69732 3.868074,-0.83652 1.257977,-0.088 2.859253,-0.22661 4.089674,0.11437 0.487384,0.13506 0.998716,0.43282 1.438542,0.66288 0.668401,0.41754 1.361973,0.82742 1.952656,1.34795 0.1674,0.14752 0.297782,0.33224 0.471066,0.4733 0.05655,0.046 -0.07651,-0.12217 -0.11477,-0.18325 0.140291,0.15544 0.280583,0.31088 0.420874,0.46632 0.349397,0.46344 0.713695,0.96565 0.908623,1.51444 0.213295,0.6005 0.182228,1.25479 0.195393,1.87777 -0.08154,0.75507 -0.172879,1.50782 -0.33206,2.25229 -0.148438,0.69423 -0.191277,0.60956 -0.249994,1.2591 -0.0096,0.10623 -5.91e-4,0.21327 -8.19e-4,0.31991 -0.09893,0.19448 2.754134,1.54327 2.853068,1.34879 z" />
    <path
       style="fill:#000000;stroke-width:0.193476"
       id="path29"
       d="m 42.652959,176.20687 c -0.08631,0.0361 -0.178509,0.0612 -0.25892,0.10825 -0.433037,0.25347 -0.785989,0.59594 -1.252362,0.80417 -0.509648,0.22755 -0.685013,0.22518 -1.255622,0.33701 -0.786987,-0.0115 -1.746173,0.46958 -2.526809,0.33501 -0.131899,-0.0228 -0.237529,-0.12744 -0.330762,-0.2202 -0.07476,-0.0744 -0.267608,-0.28222 -0.161026,-0.26916 0.270837,0.0332 0.49282,0.22664 0.73923,0.33996 0.09068,-0.27007 0.139426,-0.55678 0.272058,-0.81022 0.321626,-0.61459 0.730565,-1.18307 1.084056,-1.78118 0.522476,-0.88403 1.024971,-1.77891 1.543704,-2.66498 1.209083,-2.06529 2.404889,-4.01521 3.548359,-6.11522 0.480857,-0.8831 0.92148,-1.78603 1.382221,-2.67904 0.508793,-1.19322 1.087299,-2.17031 1.168015,-3.4606 0.02297,-0.3671 0.174255,-0.87405 -0.129798,-1.09617 -0.90954,-0.66443 -2.018525,-1.13853 -3.147656,-1.29808 -0.377785,-0.0534 -1.883959,1.42318 -2.063882,1.58747 -0.63295,0.7296 -1.301085,1.46633 -1.679269,2.35882 -0.04239,0.10004 -0.177086,0.2673 -0.07681,0.31563 0.10529,0.0508 0.28501,-0.11302 0.265141,-0.22487 -0.02235,-0.12584 -0.226814,-0.13186 -0.340221,-0.1978 -0.608543,-0.0454 -1.215297,-0.14271 -1.825625,-0.13628 -5.036762,0.053 -10.803099,1.59521 -14.931202,4.41121 -1.117761,0.76249 -2.036193,1.76546 -3.05429,2.64818 -0.647574,1.12248 -1.539463,2.14328 -1.942721,3.36742 -1.521427,4.61851 0.860382,8.49329 4.65102,11.2648 2.662612,1.94675 5.26598,1.89973 8.396478,2.33364 0.458153,-0.008 0.340018,-6.25409 -0.118135,-6.24604 v 0 c -5.26982,-0.48202 -0.853785,0.19231 -5.514023,-1.22697 -0.344029,-0.10478 -0.772561,0.0548 -1.072873,-0.1379 -0.922172,-0.5919 -1.774477,-1.76071 -1.48163,-2.9198 0.160409,-0.6349 0.696764,-1.12111 1.045146,-1.68165 0.826651,-0.56181 1.614169,-1.18135 2.479953,-1.68541 1.076422,-0.62669 2.210141,-1.158 3.334941,-1.70001 3.581256,-1.72573 7.331462,-3.10088 10.8648,-4.91964 1.384466,-0.56998 0.524852,-0.16404 1.700639,-0.83113 0.115812,-0.0657 0.243173,-0.11267 0.354074,-0.18583 0.741982,-0.48947 1.309199,-1.1822 1.931182,-1.79554 0.252394,-0.30372 0.526707,-0.59166 0.757185,-0.91116 0.177799,-0.24648 0.625883,-0.52526 0.463996,-0.78173 -0.522722,-0.82811 -1.527938,-1.26748 -2.208152,-1.98142 -0.123963,-0.13012 0.01766,-0.5406 -0.162137,-0.50641 -1.16489,0.22148 -1.528408,2.24471 -2.563464,2.38413 -0.646197,0.8373 -1.344793,1.63929 -1.938592,2.5119 -1.445288,2.12392 -2.722127,4.45386 -3.661288,6.82897 -0.902302,2.2819 -1.476288,4.27103 -1.47072,6.71667 0.0016,0.73498 0.239185,1.45177 0.358778,2.17766 0.534903,0.68072 0.978234,1.43839 1.60471,2.04217 0.307735,0.29658 0.73296,0.46826 1.143731,0.6067 1.581052,0.53287 3.271128,0.11494 4.775418,-0.41434 0.341436,-0.15777 0.692204,-0.298 1.024307,-0.47332 1.048413,-0.55342 1.967599,-1.3332 2.531655,-2.35739 0.129854,-0.15356 -2.12295,-1.92385 -2.252804,-1.77028 z" />
    <path
       style="fill:#000000;stroke-width:0.193476"
       id="path31"
       d="m 12.277855,158.62543 c -1.133115,2.2911 -1.748527,4.79459 -2.204083,7.28321 -0.19035,1.03985 -0.372349,2.08279 -0.483821,3.13322 -0.113904,1.07335 -0.127741,2.1544 -0.191611,3.2316 0.240618,1.00615 0.481236,2.0123 0.721854,3.01844 -0.04154,0.1782 2.572614,0.74458 2.614158,0.56638 v 0 c 0.454727,-0.87072 0.909454,-1.74145 1.364181,-2.61218 0.16257,-1.05268 0.364336,-2.10043 0.487711,-3.15804 0.40112,-3.43857 0.399355,-6.91647 0.731631,-10.36143 0.08077,-0.20723 -2.959247,-1.30842 -3.04002,-1.1012 z" />
    <path
       style="fill:#000000;stroke-width:0.193476"
       id="path32"
       d="m 5.347966,168.35172 c 0.118771,-0.11196 0.673165,-0.57427 0.549594,-0.77534 -0.457326,-0.74414 -0.933385,-1.63919 -1.768047,-1.95652 -0.5444,-0.20697 -1.10753,0.38483 -1.611434,0.6717 -1.357091,0.77255 -1.73533905,1.42428 -2.76218805,2.59557 -0.287042,0.72506 -0.729429,1.40956 -0.86112595,2.17518 -0.301356,1.75192 0.13195995,3.33911 1.14703295,4.80568 0.68276,0.98644 1.58014305,1.81898 2.41220105,2.69242 1.675505,1.75884 1.507092,0.74479 1.594798,1.87295 -0.130907,0.27165 -0.172782,0.60339 -0.392722,0.81498 -0.997807,0.95995 -3.77198005,2.35912 -4.745264,2.81179 -1.730672,0.80493 -5.509719,2.33571 -7.44942,2.66061 -0.964785,0.1616 -1.958474,-0.005 -2.93771,-0.007 -0.502099,-0.37851 -1.280731,-0.56082 -1.506297,-1.1355 -0.156709,-0.39927 0.497386,-0.7236 0.615071,-1.13513 0.29616,-1.03564 0.288438,-2.14075 0.615414,-3.16773 0.474136,-1.48919 1.127289,-2.9217 1.777418,-4.34782 2.063945,-4.52746 2.667715,-5.259 5.251479,-9.5752 2.445418,-3.94872 5.47594195,-7.48883 8.739275,-10.82413 0.666492,-0.68119 2.417134,-2.08925 2.84269,-3.20872 0.09165,-0.2411 -0.07177,-0.50887 -0.107666,-0.7633 0.08214,-0.004 0.01865,-1.12418 -0.06349,-1.11985 v 0 C 6.2307,151.16148 5.848814,150.6933 5.316949,150.61171 c -1.866889,-0.28634 -3.850083,0.92073 -5.22038705,1.8518 -4.35171395,2.95681 -7.65918395,7.04339 -10.62053695,11.24321 -1.027916,1.75875 -2.16296,3.46319 -3.08375,5.27627 -1.748806,3.44347 -3.322901,7.35477 -3.832835,11.19584 -0.549715,4.14076 -0.307254,6.72197 2.905304,9.93685 0.954963,0.95565 2.465866,1.17998 3.6988,1.76997 1.478618,0.008 2.974705,0.24149 4.435856,0.0229 2.661215,-0.39811 6.43512395,-2.09775 8.631619,-3.52152 2.230403,-1.44574 4.610966,-3.48628 5.593426,-6.01859 0.374903,-0.96632 0.200526,-2.05431 0.300788,-3.08147 -0.605619,-0.957 -1.1269,-1.9686 -1.816857,-2.87098 -0.423593,-0.55401 -0.960026,-1.02409 -1.502983,-1.47098 -0.193294,-0.1591 -0.482213,-0.17693 -0.682474,-0.3278 -0.664161,-0.50038 -1.335907,-1.09861 -1.416227,-1.97713 -0.037,-0.40466 0.141924,-0.80086 0.212886,-1.20129 0.280823,-0.43726 0.542734,-0.88634 0.842469,-1.31177 0.187624,-0.2663 1.248405,-1.09698 0.892719,-1.74221 -0.389647,-0.70683 -0.95926,-1.30815 -1.393878,-1.99018 -0.01869,-0.0293 0.09615,-0.0861 0.09261,-0.0518 -0.01055,0.10198 -0.07788,0.19074 -0.116828,0.28611 -0.126385,0.14392 1.984914,1.86693 2.111298,1.72301 z" />
    <path
       style="fill:#000000;stroke-width:0.193476"
       id="path40"
       d="m -23.245999,165.26034 c -3.20496,3.37077 -6.724812,6.46883 -10.521472,9.21266 -1.31696,0.95176 -2.69075,1.82816 -4.03612,2.74225 -5.30288,3.03774 -11.75776,7.12155 -18.23852,5.00069 -0.79829,-0.26124 -1.49166,-0.75772 -2.23748,-1.13658 -0.47203,-0.5432 -1.03883,-1.02144 -1.41611,-1.6296 -0.15956,-0.25722 -0.10923,-0.59045 -0.14572,-0.8881 -0.15621,-1.27435 -0.42934,-2.03404 0.35786,-3.184 0.76415,-1.11631 1.63842,-1.20116 2.85016,-1.63196 0.8563,0.21116 2.33448,0.20237 2.26572,1.60452 -0.0203,0.41309 -0.62867,0.57879 -0.84451,0.93618 -0.52206,0.86444 -0.76277,1.87985 -1.35301,2.70252 -2.29763,3.20237 -3.86014,3.9356 -7.12293,6.36251 -6.71569,3.36249 -3.28736,1.99989 -10.26069,4.14411 -0.38888,0.13804 1.63621,5.43968 2.02509,5.30165 v 0 c 8.40495,-2.38118 4.37034,-0.71464 12.07988,-5.05316 3.61414,-3.21065 5.80082,-4.46691 7.86497,-8.82979 0.67712,-1.43119 1.29674,-3.00115 1.21224,-4.57206 -0.16267,-3.02413 -1.54253,-5.4326 -4.56562,-6.24696 -1.02896,-0.27718 -2.13656,0.027 -3.20485,0.0405 -2.34441,1.17817 -3.34297,1.27137 -4.73504,3.6216 -0.4912,0.82932 -0.7977,1.77535 -0.9262,2.72225 -0.35402,2.60886 0.5122,4.42522 2.14934,6.56007 0.67843,0.88468 1.67656,1.4931 2.51483,2.23964 3.03073,1.38231 3.61279,1.97489 7.12307,2.17452 4.69462,0.267 9.31984,-1.23792 13.42386,-3.30171 1.58804,-0.79859 3.063,-1.7907 4.5945,-2.68605 1.39269,-1.04268 2.83679,-2.02451 4.17809,-3.12803 3.500507,-2.87991 7.119876,-6.50125 9.275359,-10.48156 0.211993,-0.39147 0.340808,-0.81982 0.511212,-1.22973 0.100226,-0.19209 -2.717683,-1.55847 -2.817909,-1.36639 z" />
    <path
       style="fill:#000000;stroke-width:0.193476"
       id="path41"
       d="m -37.031421,160.6765 c 0.52403,-0.12552 1.05933,-0.21343 1.5721,-0.37654 3.3523,-1.06635 8.408052,-3.43573 10.33412,-6.38834 0.578826,-0.88732 0.771447,-1.96003 1.157171,-2.94005 -0.225506,-1.09533 -0.0789,-2.32937 -0.676516,-3.28598 -0.839808,-1.34428 -2.064753,-2.51071 -3.454895,-3.3272 -3.54679,-2.08318 -10.10156,-1.53822 -13.4109,0.75073 -1.33251,0.92164 -2.16864,2.3722 -3.25297,3.55831 -0.40193,1.55698 -1.1835,3.06661 -1.20579,4.67094 -0.0547,3.93215 2.08338,7.45835 4.82216,10.19809 1.15583,1.15624 2.77812,1.77235 4.16718,2.65852 0.26783,0.13299 2.2187,-3.51843 1.95087,-3.6514 v 0 c -2.30295,-2.18325 -5.44913,-4.5466 -6.17508,-7.79716 -0.2098,-0.93942 0.0759,-1.92049 0.11379,-2.88072 0.55634,-0.78093 0.90707,-1.74449 1.66902,-2.34278 1.72956,-1.35808 4.42052,-1.80376 6.55276,-1.77469 0.96297,0.0131 1.8939,0.34501 2.84962,0.45947 0.41391,0.0495 0.87812,-0.14884 1.25085,0.0316 0.44029,0.21316 0.66235,0.70331 0.99353,1.05497 -0.12702,0.51133 -0.0867,1.09136 -0.38106,1.53398 -0.45012,0.67677 -1.12911,1.19044 -1.77173,1.70282 -0.78292,0.62425 -1.64838,1.14601 -2.48978,1.69502 -1.92815,1.2581 -3.94154,2.38718 -5.86798,3.64728 -0.20561,0.0855 1.04792,2.88857 1.25353,2.80312 z" />
    <path
       style="fill:#000000;stroke-width:0.193476"
       id="path42"
       d="m -51.465161,158.99163 c 0.41887,-0.91736 0.4745,0.26742 -0.22236,0.0571 -1.89962,-0.57344 -0.67222,-1.40785 -1.80743,-0.31129 -0.44814,0.3683 -0.86019,0.78182 -1.34442,1.1049 -2.4641,1.64401 -6.70642,3.50082 -9.76999,2.91869 -0.56295,-0.10698 -1.04778,-0.45119 -1.57167,-0.67679 -0.26534,-0.39456 -0.66036,-0.73203 -0.79602,-1.1837 -0.0699,-0.23272 0.20377,-0.45064 0.23289,-0.69128 0.26342,-2.17621 -0.28231,-1.78966 0.71328,-3.99016 0.89876,-1.98648 1.81441,-2.78954 3.25712,-4.46437 0.79122,-0.71629 1.58245,-1.43258 2.37368,-2.14888 0.24609,-0.20966 -2.82972,-3.56471 -3.07581,-3.35504 v 0 c -0.95283,0.85422 -1.90564,1.70843 -2.85846,2.56265 -1.8024,2.32818 -2.71192,3.14602 -3.76866,5.87375 -1.32547,3.42143 -1.32698,6.4095 0.92216,9.51752 0.55153,0.76212 1.45621,1.21794 2.18431,1.82691 0.94466,0.31142 1.8481,0.78252 2.83399,0.93424 4.314,0.66392 9.31321,-1.46972 12.28056,-4.42237 0.62952,-0.6264 1.06621,-1.40931 1.59932,-2.11397 0.20263,-0.68074 0.74043,-1.34563 0.60789,-2.04223 -0.72163,-3.7927 -4.40842,-2.74147 -4.76365,0.0764 -0.0387,0.20267 2.93454,0.73059 2.97327,0.52792 z" />
    <path
       style="fill:#000000;stroke-width:0.193476"
       id="path43"
       d="m -53.061311,144.35767 c -1.12064,1.49441 -0.19413,-0.90756 1.07506,2.95854 -0.1257,-0.0176 0.54076,5.7e-4 0.40565,-0.005 -1.31596,-0.0526 -0.60015,0.22223 -0.82898,-2.45429 0.13755,-0.18199 0.12639,-0.0916 0.10197,-0.25488 -0.006,-0.0177 -0.0358,-0.0589 -0.0174,-0.0533 1.0062,0.30612 0.78516,0.28909 0.9131,1.69941 0.011,0.12114 -0.19509,0.23643 -0.1322,0.34186 0.0522,0.0875 0.20633,-0.0409 0.31101,-0.0421 0.0763,-7.2e-4 0.15061,0.024 0.22592,0.036 -0.90718,0.49717 -1.25477,-0.75747 -1.21819,-1.34468 0.005,-0.0875 0.0993,-0.17357 0.0662,-0.25524 -0.0667,-0.16445 -0.36483,-0.0432 -0.54796,-0.0397 -0.006,-0.0235 -0.044,-0.0723 -0.0189,-0.0705 0.96494,0.07 0.93104,0.52244 1.06618,1.78777 0.0612,0.57279 -0.45297,0.25499 -0.30056,0.80646 -0.9414,0.36785 -0.86821,-1.40795 -0.92932,-1.46147 -0.083,-0.0727 -0.4728,0.11294 -0.71715,-0.10826 0.62888,-0.17247 0.43698,-0.2172 0.97813,0.86783 0.0556,0.11143 -0.0426,0.24785 -0.024,0.3702 0.0158,0.10419 0.38684,0.14626 0.45413,0.16485 -0.9479,0.41458 -1.29069,-1.12838 -0.91068,-1.61572 0.0618,-0.0792 0.20562,0.003 0.30843,0.005 -0.12673,0.0655 0.83399,1.79332 0.96073,1.72783 v 0 c 0.31726,-0.11566 0.72172,-0.1067 0.95177,-0.34698 1.1137,-1.16324 -0.25828,-2.6919 -1.57988,-2.77579 -0.77396,0.0513 -1.18627,-0.005 -1.89608,0.41927 -1.6088,0.96227 -1.71313,2.26001 -0.53016,3.72889 0.24453,0.30363 0.69973,0.36884 1.04959,0.55326 0.94847,0.0836 1.23235,0.22141 2.14619,-0.14785 1.77097,-0.71559 2.22949,-1.87103 1.36054,-3.66342 -0.16331,-0.33687 -0.61423,-0.44996 -0.92134,-0.67495 -0.32041,-0.0696 -0.63299,-0.19748 -0.96122,-0.20883 -0.57341,-0.0198 -1.90426,0.2365 -2.07271,0.93851 -0.49564,2.06562 0.55659,2.59402 2.1351,2.75134 1.00958,-0.15727 2.14616,-0.39279 2.67521,-1.38546 0.83161,-1.56038 -0.31486,-2.83881 -1.94746,-2.99732 -0.71724,0.0874 -2.28307,0.34191 -2.54377,1.18295 -0.50001,1.61303 0.12056,2.39245 1.51952,2.74465 0.14141,-3.8e-4 1.40856,0.0753 1.48198,-0.25032 0.60658,-2.68994 0.0836,-2.9665 -1.81476,-2.68027 -1.41129,0.50759 -1.17118,0.19657 0.47716,2.80783 0.0814,0.12898 0.30181,-0.0899 0.43729,-0.16567 0.59206,-0.33098 1.00121,-0.79563 1.27498,-1.39584 0.10963,-0.1679 -2.35345,-1.66239 -2.46307,-1.49449 z" />
    <path
       style="fill:#000000;stroke-width:0.193476"
       id="path44"
       d="m -72.547591,175.5443 c 0.51803,-0.41897 0.87408,-1.00247 1.42788,-1.38468 0.0355,-0.0246 -0.0384,0.0974 -0.0821,0.0986 -0.46958,0.0124 -0.93861,-0.0395 -1.40792,-0.0592 -0.20493,-0.3189 -0.2292,-0.90619 -0.6148,-0.9567 -0.32955,-0.0431 -0.36203,0.53793 -0.54673,0.80455 -0.34919,0.50408 -0.67407,1.0252 -1.05492,1.50751 -2.21374,2.80353 -4.82665,5.2564 -7.4148,7.72966 -3.96716,3.54901 -2.06833,1.86086 -5.69363,5.06739 -0.2586,0.20422 2.73728,3.72966 2.99588,3.52544 v 0 c 4.32395,-2.9618 2.17213,-1.29812 6.40205,-5.05456 1.02025,-1.08983 2.09755,-2.13244 3.06076,-3.26949 1.60694,-1.89698 2.86288,-3.72468 4.0129,-5.88514 0.19981,-0.37537 1.29356,-2.71097 1.2973,-3.40127 0.004,-0.72653 -0.26903,-1.42975 -0.40355,-2.14463 -0.56536,-0.1538 -1.11017,-0.42039 -1.69607,-0.46139 -0.66925,-0.0468 -1.8015,1.64231 -2.0532,2.15449 -0.12685,0.12071 1.64414,1.8502 1.771,1.72948 z" />
    <path
       style="fill:#000000;stroke-width:0.193476"
       id="path45"
       d="m -74.576631,163.53256 c -1.35123,0.86424 -2.64908,1.92423 -4.3231,2.13281 -0.34274,0.0427 -0.69115,0.006 -1.03671,0.009 -1.51103,-0.2424 -3.08932,-0.77909 -3.97851,-2.08106 -0.0359,-0.0526 0.1551,-0.0324 0.17001,-0.0937 0.055,-0.22591 0.0147,-0.46387 0.0221,-0.69582 0.17454,-0.25946 0.29784,-0.55873 0.52364,-0.7784 1.23678,-1.20319 2.99748,-1.88719 4.70827,-2.12451 0.63862,-0.0886 1.28902,-0.0574 1.93353,-0.0861 0.24157,-0.0102 0.0921,-3.3036 -0.14945,-3.29341 v 0 c -0.946,-0.0671 -1.8925,-0.27462 -2.83802,-0.20144 -2.74529,0.21247 -5.49499,1.59321 -6.98316,3.87234 -0.42933,0.65753 -0.59103,1.44566 -0.88655,2.16849 0.0414,0.70567 -0.12908,1.45373 0.12421,2.11701 0.9695,2.5389 3.64791,4.11407 6.28412,4.53831 0.56205,0.0905 1.13594,0.0885 1.70392,0.13274 0.54549,-0.0609 1.09934,-0.0726 1.63649,-0.18256 2.08987,-0.42795 3.86693,-1.62635 5.2042,-3.19533 0.1642,-0.14418 -1.95084,-2.38272 -2.11504,-2.23855 z" />
    <path
       style="fill:#000000;stroke-width:0.193476"
       id="path46"
       d="m -55.368621,160.15758 c -1.03259,-0.0801 -2.74773,0.49182 -3.6588,-0.0187 0.25765,-0.41798 -0.41731,-0.38597 0.4107,0.11144 0.0845,0.0508 -0.0881,-0.17258 -0.12308,-0.26251 -0.0665,-0.17116 -0.1999,-0.59969 -0.2603,-0.78997 -0.13781,-0.49241 -0.20127,-1.01403 -0.022,-1.5013 0.42175,-0.60672 0.97529,-1.12175 1.54193,-1.60304 0.5735,-0.64045 1.20779,-1.17573 1.95933,-1.59947 0.44683,-0.3106 0.97856,-0.41545 1.48783,-0.6045 -0.0169,-0.004 0.16748,0.008 0.12696,0.0222 -0.0923,0.0316 -0.20627,0.003 -0.28824,0.0548 -0.0739,0.0466 0.56637,0.37745 0.65395,0.4383 -0.22099,-0.59639 1.0427,1.07763 0.73995,0.8415 -0.26108,-0.20364 -0.37536,-0.68799 -0.21019,-0.13757 0.11906,1.08571 -0.15649,2.15765 -0.454,3.19674 -0.18467,0.48814 -0.56413,0.83573 -0.83949,1.27696 -0.30449,0.84096 -0.1616,0.97102 0.44321,1.67743 -0.0336,0.0565 0.79591,0.51448 0.8295,0.45794 v 0 c 0.66059,-0.0802 0.76404,0.0729 1.09535,-0.32568 0.22052,-0.26529 0.22328,-0.19715 0.18232,-0.35967 -0.0262,0.001 -0.0602,0.0224 -0.0785,0.004 -0.0189,-0.0185 1.20294,-1.20815 1.0898,-1.33247 0.7508,-1.48446 1.1289,-3.06 0.8477,-4.71579 -0.0622,-0.25894 -0.0776,-0.53267 -0.1866,-0.77681 -0.50541,-1.13235 -1.25539,-1.98227 -2.35954,-2.57934 -0.81156,-0.40206 -1.62881,-0.79261 -2.56457,-0.4971 -0.7478,0.1615 -1.50674,0.33221 -2.16399,0.72989 -0.91684,0.54488 -1.82248,1.12307 -2.52374,1.92483 -0.76568,0.75254 -1.58296,1.49288 -2.10408,2.43102 -0.5211,1.02308 -0.62109,2.09593 -0.40586,3.21717 0.38088,1.57999 0.94124,3.06302 2.58578,3.79288 0.28157,0.0784 0.55697,0.18138 0.84468,0.23511 1.37875,0.25753 2.81825,-0.0446 4.13178,-0.44148 0.21031,-0.0496 -0.5175,-2.91677 -0.72781,-2.86716 z" />
    <path
       style="fill:#000000;stroke-width:0.193476"
       id="path48"
       d="m -104.23469,176.56526 c -1.19032,0.48602 -5.77809,2.07968 -5.97318,-0.29556 -0.0255,-0.30984 0.28696,-0.55668 0.43045,-0.83502 0.11881,-0.87557 0.14527,-1.76747 0.35643,-2.62672 0.633,-2.57581 1.81441,-5.25211 2.92436,-7.6468 1.43472,-3.09538 3.06007,-6.07134 4.85195,-8.98412 0.2256,-0.31809 0.54595,-0.59017 0.67683,-0.95426 0.0365,-0.10149 -0.23741,0.0543 -0.33426,0.001 -0.55697,-0.30544 -1.05492,-0.70152 -1.58239,-1.05228 -0.0411,0.15456 2.22639,0.71459 2.26747,0.56002 v 0 c -0.47318,-0.78174 -0.68115,-1.7862 -1.41955,-2.34523 -0.78626,-0.59526 -2.7054,0.97432 -3.0175,1.1759 -0.65747,0.70096 -1.37868,1.35091 -1.97242,2.10286 -3.50605,4.44032 -6.4978,10.82359 -7.03732,16.39973 -0.12617,1.30406 0.0655,2.61868 0.0982,3.92802 0.66225,1.22146 1.07516,2.60265 1.98675,3.66438 0.57674,0.67171 1.46638,1.07064 2.32186,1.35385 2.47711,0.82003 5.41066,-0.43179 7.27703,-1.9565 0.1826,-0.12643 -1.67215,-2.61592 -1.85475,-2.48949 z" />
    <path
       style="fill:#000000;stroke-width:0.193476"
       id="path49"
       d="m -101.89985,189.39275 c -4.01562,-0.95118 -8.16895,-1.18646 -12.27714,-1.49298 -0.34493,0.0187 -0.0695,4.72134 0.27541,4.70257 v 0 c 1.33614,0.0898 2.66978,0.22636 4.00842,0.26944 2.76581,0.089 5.53343,-0.0566 8.26729,-0.46772 0.22088,-0.0187 -0.0531,-3.02999 -0.27398,-3.01131 z" />
    <path
       style="fill:#000000;stroke-width:0.193476"
       id="path63"
       d="m -124.73446,161.92518 c -2.12311,6.15936 -3.67402,12.47488 -5.01345,18.82932 -0.46915,2.26234 -0.73118,4.2881 -0.47847,6.56242 -0.0719,0.18107 2.58443,1.16153 2.65634,0.98047 v 0 c 0.23772,-0.32289 0.52198,-0.61822 0.71316,-0.96864 1.0365,-1.89998 1.18632,-2.90043 1.84039,-5.08251 1.66779,-6.4171 3.2164,-12.92733 3.45441,-19.56488 0.0555,-0.21624 -3.11691,-0.97243 -3.17238,-0.75618 z" />
    <path
       style="fill:#000000;stroke-width:0.193476"
       id="path64"
       d="m -135.58126,167.10412 c -1.57975,0.56474 -3.54831,1.29811 -5.23768,0.67792 -0.28308,-0.10391 -0.50231,-0.32648 -0.75346,-0.48973 -0.0988,-0.25229 -0.28078,-0.48763 -0.29653,-0.75689 -0.006,-0.10311 0.21368,-0.10579 0.24022,-0.20584 0.0987,-0.37227 0.0194,-0.77486 0.11853,-1.14702 0.4766,-1.7897 1.29794,-2.43891 2.70917,-3.54521 1.0161,-0.44575 2.24469,-0.84889 2.82426,0.41961 0.1893,0.41432 0.33354,0.86492 0.34193,1.31757 0.007,0.36675 -0.21928,0.7034 -0.29779,1.06231 -0.19264,0.88074 -0.34342,1.76952 -0.51514,2.65428 -1.03597,3.12217 -2.54435,6.04897 -4.56235,8.68888 -0.60134,0.78666 -1.82116,2.26097 -2.82276,2.84579 -0.1527,0.0892 -0.35624,0.0233 -0.53436,0.035 0.0366,-0.12384 -0.0223,-0.3532 0.10992,-0.37153 0.22963,-0.0318 0.46801,0.41993 0.63809,0.26783 0.19991,-0.17876 -0.0519,-0.5238 -0.058,-0.78661 -0.0171,-0.74246 0.0426,-1.47147 0.15198,-2.20463 -2.60066,1.15652 -0.50482,0.272 -2.63204,-0.63859 -0.1905,-0.0816 -0.19557,0.3549 -0.29318,0.53244 -0.69632,1.26663 -0.31184,0.61204 -1.12719,1.90836 -0.20115,0.26973 -0.37046,0.56444 -0.60345,0.80921 -0.67196,0.70595 -0.30083,-0.26209 0.2698,-0.27245 0.16873,-0.003 0.32242,0.37515 0.43328,0.25248 0.14401,-0.15934 -0.0629,-0.41829 -0.0944,-0.62743 -0.37176,-2.21006 -0.46044,-2.46236 -3.25686,-1.5186 -0.33289,0.11235 -0.47868,0.49953 -0.72219,0.7455 -0.98437,0.9943 -0.5568,0.63052 -1.61272,1.36298 -0.0208,0.82616 -1.45339,-0.35754 -1.04281,-0.33669 0.19756,0.0101 0.31024,0.23985 0.48377,0.33141 0.0832,0.0439 -0.12268,-0.14141 -0.19828,-0.19655 -4.67464,-0.24273 -1.96721,-0.50747 -3.64659,1.28333 -0.26685,0.28455 -0.22746,0.26208 -0.37215,0.10074 0.1797,-0.26878 -0.0976,-0.72713 -0.018,-0.97284 0.0222,-0.0686 0.18935,0.19386 0.18405,0.12223 -0.0177,-0.23994 -0.1576,-0.45663 -0.22589,-0.68799 -0.0561,-0.19002 -0.098,-0.38366 -0.14705,-0.57549 -0.31268,-1.52827 -0.61826,-2.76046 -2.60985,-2.57281 -0.66776,0.0629 -2.81666,1.38343 -3.15025,1.5726 -5.84391,3.50549 -11.60988,7.21254 -16.84437,11.53899 -1.26318,1.04406 -2.4306,2.19122 -3.64588,3.28683 -0.26277,0.1721 2.26194,3.75451 2.52472,3.58241 v 0 c 1.47326,-0.81079 3.00628,-1.52809 4.41976,-2.43237 1.67025,-1.06858 3.2452,-2.27164 4.81379,-3.47492 3.83545,-2.9422 7.47627,-6.13604 10.89989,-9.51586 0.43796,-0.43206 0.90709,-0.83667 1.31387,-1.29618 0.11606,-0.13112 0.34727,-0.32209 0.24206,-0.46145 -0.1915,-0.25362 -0.59185,-0.26098 -0.88708,-0.39289 -0.0478,-0.0213 -0.11864,-0.0214 -0.14196,-0.0669 -0.0824,-0.16093 0.006,-0.60351 -0.157,-0.51673 -0.17196,0.0916 0.0449,0.3763 0.0674,0.56444 0.18617,1.87867 0.77318,4.39258 2.90572,5.06697 0.41796,0.13218 0.87511,0.0868 1.31266,0.13026 0.39742,-0.12966 0.82513,-0.19318 1.19225,-0.38898 1.01565,-0.54172 1.6521,-1.65149 1.89772,-2.70744 0.067,-0.28828 0.33584,-0.7325 0.0725,-0.88354 -0.88598,-0.50808 -1.9889,-0.52383 -2.98336,-0.78574 -0.0714,0.5545 -0.22205,1.18127 0.091,1.71766 0.91805,1.573 2.34237,2.52401 4.24911,2.21728 0.51815,-0.0834 0.98915,-0.3414 1.48372,-0.51209 1.24759,-0.92413 1.26371,-0.78074 2.13001,-1.99366 0.19249,-0.2695 0.74417,-0.63354 0.49633,-0.85712 -0.48798,-0.44023 -1.40015,-0.0859 -1.94905,-0.45344 -0.34264,-0.22945 -0.0824,-0.90385 -0.42354,-1.13536 -0.22001,-0.1493 -0.0763,0.5135 -0.11449,0.77025 0.0743,1.37737 -0.0553,1.99241 1.08445,3.28974 0.38113,0.43379 0.96161,0.71769 1.53609,0.84601 1.62589,0.36315 2.82648,-0.86274 3.66321,-1.96318 0.4257,-0.70905 1.81496,-2.99282 1.63571,-3.82826 -0.51805,-2.4146 -1.70051,-3.28927 -3.42712,-1.36924 -0.1312,0.26536 -0.29503,0.51789 -0.39359,0.79606 -0.76786,2.16734 -0.59426,4.76413 1.29031,6.40568 0.4912,0.42786 1.23785,0.45295 1.85678,0.67943 0.67295,-0.0882 1.37854,-0.0463 2.01884,-0.26453 1.605,-0.54696 3.27032,-2.0127 4.32504,-3.18374 2.6831,-2.97903 4.36109,-6.51669 5.29622,-10.33554 0.10303,-1.21383 0.43326,-2.4295 0.30911,-3.6415 -0.30246,-2.9527 -1.66174,-6.17683 -4.99634,-6.87412 -1.88183,-0.39351 -2.82028,0.27148 -4.47406,0.93087 -0.6181,0.51277 -1.311,0.95208 -1.85432,1.5383 -1.43761,1.55112 -2.73286,4.32028 -2.23597,6.46103 0.55232,2.37949 1.14401,2.55417 2.72757,3.95909 0.58112,0.21613 1.13638,0.51369 1.74338,0.64836 2.35753,0.52307 4.91441,-0.2749 6.72848,-1.72924 0.17965,-0.10044 -1.29386,-2.54971 -1.47352,-2.44926 z" />
    <path
       style="fill:#000000;stroke-width:0.193476"
       id="path65"
       d="m -140.88679,147.70216 c -0.12801,-0.20588 -0.21026,-0.44573 -0.38402,-0.61766 -0.0401,-0.0398 -0.0889,0.0706 -0.13328,0.10582 -0.0584,0.021 -0.1318,0.10633 -0.17507,0.0631 -0.21581,-0.21556 0.61659,-0.43557 0.88457,-0.28388 0.40056,0.22673 0.5687,0.70816 0.85305,1.06224 0.3877,-0.066 0.67739,-0.34669 1.08309,-0.38174 0.0662,-0.006 0.21288,0.0523 0.16966,0.10106 -0.46953,0.52893 -0.99778,-0.56997 -1.10036,-0.68439 -0.029,-0.0549 -0.034,-0.13017 -0.0868,-0.16475 -0.11823,-0.0773 -0.33254,0.0694 -0.42717,-0.0337 -0.1361,-0.1484 0.48471,-0.21892 0.61285,-0.064 0.27335,0.33034 0.33871,0.77952 0.50807,1.16927 -0.13663,0.27049 -0.0341,0.17956 -0.28317,0.29627 0.17412,-0.0625 -0.74258,-2.4363 -0.9167,-2.37382 v 0 c -1.29508,0.47371 -0.74531,0.0884 -1.62172,1.19164 0.12646,0.65283 0.0676,1.36628 0.37938,1.95849 0.18705,0.3553 0.62872,0.54364 1.01393,0.68805 1.18238,0.44325 2.70685,-0.13289 3.42062,-1.09616 0.29765,-0.40169 0.38415,-0.91521 0.57622,-1.37281 -0.30096,-0.67162 -0.42716,-1.44483 -0.90289,-2.01484 -0.29372,-0.35193 -0.80971,-0.48975 -1.26756,-0.58578 -1.32466,-0.27785 -2.8573,0.50744 -3.61543,1.52263 -0.28525,0.38197 -0.39786,0.85962 -0.5968,1.28943 0.28658,0.71035 0.32521,1.56944 0.85974,2.13103 0.67475,0.7089 1.9876,0.29986 2.60073,-0.14679 0.48458,-0.35301 1.07698,-1.29601 1.06496,-1.9073 -0.011,-0.55617 -0.26507,-1.08279 -0.39762,-1.62419 -0.13004,-0.14439 -2.24829,1.62849 -2.11824,1.77289 z" />
    <path
       style="fill:#000000;stroke-width:0.193476"
       id="path66"
       d="m -155.65648,157.71442 c 0.63566,0.16604 1.62611,0.6079 1.76021,1.33914 0.0293,0.1594 -0.31119,0.17882 -0.36871,0.3309 -1.43434,3.79242 1.40779,-1.30669 -1.56175,3.50084 -2.93055,3.03329 -1.35028,1.582 -4.75957,4.33475 -0.24823,0.17313 2.29154,3.55727 2.53977,3.38414 v 0 c 4.46097,-3.16678 2.47051,-1.34055 5.9716,-5.47845 0.86109,-2.01286 2.14112,-3.92758 1.49762,-6.25267 -0.6355,-2.29614 -2.43754,-3.94123 -4.89696,-3.73796 -0.36036,0.0298 -0.69235,0.20201 -1.03851,0.30301 -0.16697,0.0584 0.68933,2.33467 0.8563,2.2763 z" />
    <path
       style="fill:#000000;stroke-width:0.193476"
       id="path67"
       d="m -168.38134,153.36462 c -0.0611,-0.59174 -1.47242,-3.66777 -2.66395,-2.43248 -0.66773,0.69225 -0.50951,1.82564 -0.76427,2.73846 0.14351,0.60466 0.28702,1.20931 0.43054,1.81397 0.22302,0.79528 0.47037,1.58458 0.66908,2.38583 0.22591,0.91092 0.59252,1.81221 0.60428,2.74873 0.024,1.90985 -0.94251,4.44507 -1.84328,6.07344 -0.32987,0.59635 -0.85043,1.07469 -1.27564,1.61203 -1.54,1.71106 -1.64654,2.10981 -3.47262,3.24754 -0.32863,0.20475 -0.72238,0.29431 -1.06325,0.47951 -0.0258,0.014 0.0363,0.0457 0.0486,0.0717 1.0192,2.15158 0.8304,1.35849 1.05057,2.43895 0.14248,0.13341 0.33129,0.23269 0.42745,0.40024 0.74507,1.29838 -0.3575,2.73909 -1.36172,3.53527 -0.49361,0.39136 -1.12291,0.58991 -1.69948,0.85573 -1.08125,0.4985 -2.18156,0.95762 -3.27233,1.43643 -2.79413,0.41631 -4.78803,1.1184 -7.55187,0.001 -0.9182,-0.37102 -1.9232,-0.93561 -2.31682,-1.81718 -0.42178,-0.94462 -0.16202,-2.09332 0.12902,-3.08273 1.08478,-3.68807 2.61503,-5.11029 4.91193,-8.06553 1.39618,-1.58999 2.79237,-3.17998 4.18857,-4.76998 0.33103,-0.23688 -3.14404,-4.74992 -3.47509,-4.51304 v 0 c -1.73263,1.6648 -3.46526,3.3296 -5.19791,4.99441 -2.66992,4.78003 -5.74282,8.32803 -5.36607,14.01591 0.41145,6.2115 5.16894,9.05008 11.13063,8.91454 1.74959,-0.0398 3.43136,-0.66567 5.14704,-0.99852 1.42914,-0.76305 3.04328,-1.26844 4.28739,-2.28917 1.352,-1.10925 2.49263,-2.49067 3.35914,-3.98444 1.46665,-2.52835 1.1355,-6.19299 -1.80679,-7.59061 -0.67053,-0.31851 -1.47715,-0.22218 -2.21571,-0.33327 -2.02951,1.0083 -3.15033,0.84602 -1.34751,3.95531 0.25865,0.44609 0.98558,0.44876 1.51543,0.46506 3.08452,0.0949 5.46295,-2.1682 7.40522,-4.12558 1.99692,-3.38666 3.33485,-4.76845 3.80026,-8.61014 0.4785,-3.94976 -1.0544,-7.25158 -2.92639,-10.60487 -2.13714,1.85991 -0.31961,0.91459 -2.68705,0.735 -0.12947,-0.01 0.16337,0.19486 0.23869,0.29684 0.20923,0.28327 0.52838,0.79999 0.79587,1.03734 0.11265,0.1 0.26569,0.14674 0.39853,0.22011 0.0922,0.12062 1.86165,-1.13586 1.76948,-1.25648 z" />
    <path
       style="fill:#000000;stroke-width:0.193476"
       id="path68"
       d="m -137.81255,123.69664 c -0.76631,0.72224 -1.35505,1.61355 -2.15262,2.3045 -2.30428,1.99625 -5.62993,4.11333 -8.13736,5.63137 -6.04548,3.66002 -6.20823,3.55303 -12.60929,6.64956 -2.85521,1.1546 -6.42967,3.02662 -9.75036,3.08581 -0.42469,0.008 -1.29312,-0.35408 -1.05299,-0.69184 0.31527,-0.44345 1.18155,0.10214 1.66396,-0.16756 1.01372,-0.56672 1.68491,-1.58332 2.63964,-2.23838 1.30314,-0.89412 2.73848,-1.5941 4.10772,-2.39114 1.46483,-0.55337 2.86079,-1.32196 4.39447,-1.6601 1.62623,-0.35854 3.4016,-0.12344 1.77343,1.61412 -0.52869,0.56421 -1.36636,0.77193 -1.97736,1.25273 -8.67137,6.8236 1.98943,-0.61516 -8.28711,6.28457 -0.3346,0.18109 2.32203,4.74286 2.65664,4.56177 v 0 c 3.9455,-2.46409 7.71605,-4.0088 9.83894,-8.40663 1.57132,-3.25516 2.3509,-7.27651 -1.40793,-9.48399 -3.53901,-2.07838 -6.6252,0.0995 -9.80579,1.30092 -2.47,1.79014 -6.98925,4.33306 -7.87264,7.69524 -0.95934,3.65124 0.30072,6.50351 4.08697,7.25713 4.04024,0.80418 8.10453,-1.12811 11.72021,-2.29252 2.2929,-1.15789 4.67126,-2.17056 6.87871,-3.47366 4.07965,-2.40827 7.64998,-5.18031 10.93844,-8.51188 1.69734,-1.71961 3.26795,-3.6454 4.23345,-5.85169 0.21636,-0.49441 0.27583,-1.03975 0.41374,-1.55962 0.0667,-0.1563 -2.22622,-1.065 -2.29287,-0.90871 z" />
    <path
       style="fill:#000000;stroke-width:0.193476"
       id="path69"
       d="m -202.73144,187.94937 c 0.46839,-0.27595 0.91816,-0.57602 1.41451,-0.80546 0.0586,-0.0271 0.24821,-0.0579 0.1835,-0.0633 -0.35965,-0.0302 -0.81908,0.22531 -1.08293,-0.0122 -0.45506,-0.40958 -0.50573,-1.09686 -0.75857,-1.64529 -0.0704,0.007 -0.14704,-0.007 -0.21138,0.0213 -0.17264,0.0767 -0.31312,0.21121 -0.48554,0.28841 -0.67261,0.30113 0.26529,-0.54445 0.79149,0.12442 0.31765,0.40378 0.30827,0.96897 0.46241,1.45347 -0.0594,0.0828 0.15154,0.0394 0.12661,0.0822 -0.44722,0.7671 -1.50779,-0.68141 -1.5392,-0.74083 -0.12146,-0.22973 0.0296,-0.51492 0.0444,-0.77238 0.15871,-0.34952 0.25176,-0.60215 0.75614,-0.56854 0.93757,0.0625 1.13992,0.80007 1.1552,1.66677 0.01,0.0366 -0.004,0.0901 0.0294,0.10967 0.0509,0.0297 0.13477,-0.0276 0.17806,0.0117 0.0656,0.0596 -0.12641,0.2351 -0.19594,0.17976 -0.3427,-0.27272 -0.69664,-0.55832 -0.92402,-0.92638 -0.0988,-0.15987 0.004,-0.37212 0.007,-0.55818 -0.002,-0.52002 1.02214,-0.54312 1.2902,-0.31884 0.80321,0.67201 0.3729,1.42943 0.64139,0.9019 0.0358,-0.0348 0.0567,-0.1012 0.10743,-0.10444 0.18002,-0.0115 -0.16392,0.4859 -0.43807,0.27475 -1.25475,-0.96636 -1.17858,-0.85618 -1.18125,-1.69585 -0.33253,0.1145 -0.64009,0.27478 -1.00174,0.28159 -0.0705,0.001 -0.23838,0.0306 -0.20924,-0.0314 0.0379,-0.0805 0.19637,-0.1426 0.26206,-0.0809 0.40273,0.37828 0.68398,0.86051 1.02599,1.29077 0.42673,0.36787 -0.33629,0.60039 -0.29651,0.91884 0.017,0.13555 0.25515,0.17011 0.28526,0.3035 0.0132,0.0588 -0.0431,0.19639 -0.0909,0.15774 -0.26189,-0.21173 -0.43654,-0.5071 -0.65482,-0.76066 -0.29782,-1.18802 1.59239,-2.08013 1.7806,-0.36885 -0.0158,0.23486 -0.34095,1.05454 -0.76627,0.89792 -0.50929,-0.18754 -0.90794,-0.58219 -1.35474,-0.88334 -0.0484,-0.0327 -0.0816,-0.15056 -0.12931,-0.11696 -0.16559,0.11653 -0.24911,0.31396 -0.37368,0.47094 -0.58373,0.66192 -1.6098,1.99724 -2.64773,1.95736 -0.35678,-0.0137 -0.55709,-0.26903 -0.79154,-0.47519 -0.0212,-0.16115 -0.0425,-0.3223 -0.0637,-0.48345 0.11616,0.008 0.30622,0.12803 0.34849,0.0234 0.14271,-0.353 -0.0193,-0.77145 0.0999,-1.1325 0.82509,-2.50165 3.43361,-5.49672 4.99435,-7.55059 0.57787,-1.30744 1.15578,-2.61489 1.73366,-3.92233 0.13942,-0.14935 -2.05156,-2.04989 -2.19095,-1.90054 v 0 c -1.16724,0.91142 -2.33448,1.82285 -3.50171,2.73426 -1.67564,2.57851 -2.92389,4.18111 -4.01772,7.01104 -0.49972,1.29281 -1.11571,3.51635 -0.7335,5.01316 0.21451,0.84005 0.60586,1.64663 1.09969,2.369 0.29958,0.43824 0.81921,0.69149 1.22883,1.03724 0.45766,0.15634 0.89452,0.38947 1.373,0.46901 2.60355,0.43284 4.70548,-1.33418 5.99168,-3.3029 0.26484,-0.55979 1.09567,-1.96561 0.74824,-2.67374 -0.67014,-1.36593 -1.47925,-2.04295 -2.8199,-1.56845 -0.33078,0.11708 -0.63728,0.329 -0.86068,0.59169 -0.24365,0.28655 -0.33051,0.66903 -0.49579,1.00354 0.0176,0.33277 -0.0967,0.69775 0.0525,0.99832 0.24618,0.49603 0.62705,0.94472 1.07858,1.28072 0.94246,0.7013 2.49612,0.28193 3.06516,-0.66651 0.22176,-0.36965 0.21914,-0.8275 0.3287,-1.24126 -0.32267,-0.52417 -0.55212,-1.11345 -0.96807,-1.57253 -0.86404,-0.9537 -3.04807,-0.9668 -3.92102,-0.0263 -0.30744,0.33123 -0.43339,0.78464 -0.65009,1.17696 0.36243,0.61927 0.58407,1.33797 1.08729,1.85782 0.23623,0.24405 0.65133,0.24176 0.99365,0.29191 1.38505,0.2029 2.63629,-0.56193 3.53411,-1.48657 0.18334,-0.38568 0.63706,-0.74119 0.55004,-1.15706 -0.15786,-0.75439 -0.63588,-1.45733 -1.20915,-1.99291 -0.68068,-0.63591 -2.37382,0.25609 -2.84275,0.72505 -0.21852,0.21853 -0.34129,0.51017 -0.51192,0.76526 -0.32996,1.07121 -0.60149,1.41363 0.29008,2.70975 0.24404,0.35477 0.73542,0.51087 1.16563,0.60678 1.07216,0.23905 1.88828,-0.51118 2.41214,-1.26858 0.0864,-0.4085 0.39003,-0.82808 0.25933,-1.2255 -0.52544,-1.59797 -2.23103,-2.28231 -3.72359,-1.55878 -0.31492,0.15264 -0.58194,0.38357 -0.87292,0.57536 -0.70283,1.06108 -1.03195,1.14557 -0.22673,2.7577 0.16147,0.32324 0.57492,0.4849 0.9279,0.59859 1.09618,0.35306 1.88983,-0.25444 2.53553,-0.9984 0.0799,-0.41307 0.37929,-0.84114 0.23972,-1.23921 -0.59007,-1.68301 -2.58787,-1.99461 -3.82845,-0.8938 -0.24329,0.21587 -0.40722,0.5023 -0.61081,0.75345 0.0615,0.71361 -0.12488,1.4898 0.18444,2.14083 0.19163,0.40336 0.73256,0.56754 1.16909,0.70805 1.52312,0.49027 2.90012,-0.79771 3.70621,-1.82841 -0.13622,-0.80844 0.0564,-1.73987 -0.40867,-2.4253 -0.28551,-0.42082 -0.98941,-0.35264 -1.50865,-0.40055 -1.05748,-0.0976 -2.43384,1.16238 -3.04449,1.87235 -0.14531,0.16395 2.25983,2.14493 2.40514,1.98098 z" />
    <path
       style="fill:#000000;stroke-width:0.193476"
       id="path70"
       d="m -207.56913,185.0061 c -1.18338,1.14615 0.16294,0.0169 1.6968,1.38256 0.63658,0.56674 -0.70483,1.5742 0.40006,0.59064 0.23097,-0.38378 0.69642,-0.44749 1.02144,-0.70068 0.0509,-0.0397 -0.12249,0.0698 -0.18693,0.0584 -0.0106,-0.002 -1.31371,-0.34829 -1.3609,-0.41563 -0.11246,-0.16045 -0.0297,-0.38623 -0.0445,-0.57934 -0.81644,0.63336 -0.67956,0.12578 0.002,0.34931 0.32353,0.10627 0.55473,0.44289 0.89381,0.48437 1.00336,0.12273 0.12605,-0.63836 0.60454,-0.16889 0.23097,-0.20278 0.44812,-0.42124 0.6929,-0.60836 0.19158,-0.14644 0.39867,-0.2747 0.6123,-0.38935 0.0816,-0.0438 0.2849,0.006 0.26695,-0.0825 -0.0183,-0.0903 -0.20287,0.0327 -0.28619,-0.0122 -0.35858,-0.1935 -0.79001,-0.34918 -1.00699,-0.68561 -0.14387,-0.22307 0.0386,-0.52401 0.0579,-0.78601 -0.33604,0.60146 -0.9314,1.35194 -0.97817,1.99982 -0.0272,0.37658 0.25819,0.71375 0.41855,1.05812 0.06,0.12884 0.24982,0.21432 0.23962,0.3552 -0.006,0.0855 -0.17755,0.009 -0.26632,0.0131 -0.0708,0.097 -0.0907,0.30863 -0.21244,0.29109 -0.11741,-0.0169 0.0267,-0.37629 -0.0835,-0.33372 -0.19496,0.0754 -0.22949,0.33947 -0.35379,0.5027 -0.14872,0.19527 -0.30909,0.38204 -0.46482,0.57216 -0.0904,0.11042 -0.23908,0.19275 -0.27367,0.32943 -0.0147,0.0582 0.12372,0.0125 0.18557,0.0187 3.33831,1.56571 1.02156,-0.16897 1.6341,2.00936 0.0405,0.14417 0.23722,-0.19401 0.36898,-0.2726 1.04146,-0.62119 -0.10888,0.15592 1.01039,-0.43021 0.0262,-0.0137 -0.053,-0.0264 -0.0795,-0.0396 -0.26272,-0.1811 -0.52544,-0.36219 -0.78813,-0.54328 0.0956,0.1506 2.30502,-1.15299 2.20939,-1.30359 v 0 c -0.33435,-0.34019 -0.66869,-0.6804 -1.00304,-1.02059 -0.33335,-0.0444 -0.66439,-0.15583 -1.00007,-0.13309 -1.35237,0.0916 -4.04288,1.82563 -3.51208,3.43375 0.2247,0.68072 1.20742,0.82849 1.81112,1.24273 0.26741,-0.0629 0.5527,-0.0766 0.80219,-0.18865 0.58974,-0.26485 1.07005,-0.78961 1.45638,-1.26869 0.8952,-1.11008 1.48928,-2.43551 1.26027,-3.86986 -0.14362,-0.31952 -0.26804,-0.64771 -0.43086,-0.95856 -0.0328,-0.0626 -0.15814,-0.2219 -0.15089,-0.1521 0.0263,0.25251 0.25311,0.483 0.21136,0.73357 -0.0592,0.3555 -0.40702,0.61912 -0.4951,0.96903 -0.0931,0.36975 1.35349,-1.63111 0.84603,-0.79861 0.24745,-0.63157 0.78357,-1.22075 0.74233,-1.89469 -0.0385,-0.62963 -0.49468,-1.20668 -0.95924,-1.65082 -0.28234,-0.26994 -0.73977,-0.31638 -1.13569,-0.35209 -1.44188,-0.13004 -2.60549,0.76557 -3.59216,1.63324 -0.47506,0.71781 -1.80989,2.211 -1.57916,3.36159 0.37726,1.88127 1.86587,2.63171 3.57773,1.7732 0.41258,-0.20691 0.73297,-0.55203 1.09945,-0.82804 0.30977,-0.65023 0.78304,-1.24919 0.92931,-1.95068 0.097,-0.46538 0.0267,-1.00132 -0.22925,-1.40683 -0.8231,-1.30396 -2.33952,-1.3078 -3.53007,-0.62512 -0.31862,0.18271 -0.57678,0.44913 -0.86517,0.67369 -0.5511,0.58778 -1.82335,1.74855 -1.40581,2.65311 0.6421,1.39103 1.87057,1.5271 2.72707,0.86819 0.4457,-0.34288 0.56089,-0.67096 0.81636,-1.139 0.1297,-0.15812 -2.18986,-1.92622 -2.31954,-1.76811 z" />
    <path
       style="fill:#000000;stroke-width:0.193476"
       id="path71"
       d="m -220.61428,172.47091 c -1.09668,1.33407 -1.58569,2.98763 -1.75431,4.65471 0.082,1.28034 0.40453,2.01408 1.70195,2.72999 0.70967,0.39161 1.76616,-0.12142 2.38182,-0.40683 1.19995,-0.85162 2.14548,-1.9923 3.0648,-3.11137 1.12245,-1.43857 1.88686,-3.20395 1.65186,-5.04078 -0.0499,-0.39026 -0.19066,-0.76466 -0.28597,-1.14699 -0.61964,-1.29028 -1.45943,-3.13332 -3.23681,-3.0757 -1.14059,0.037 -1.77682,0.59548 -2.67788,1.15065 -3.93456,3.1992 -6.84625,7.35356 -9.7073,11.43054 -1.5672,2.45439 -0.82666,1.28232 -2.14983,3.394 -0.19232,0.30693 -0.39555,0.60773 -0.57706,0.92072 -0.0644,0.11116 -0.29152,0.34168 -0.15967,0.34969 2.52182,0.15325 0.99041,-1.02817 2.50987,0.67515 0.41011,-2.11611 0.71344,-4.25496 0.68425,-6.41076 -0.1094,-0.93606 -0.0856,-1.95476 -1.50203,-2.33488 -0.62935,-0.1689 -1.25151,0.40311 -1.80292,0.74087 -0.33408,0.20467 -1.61776,1.77682 -1.8146,1.99826 -0.3142,0.35349 -0.64345,0.69429 -0.96517,1.04144 -0.27671,0.20624 -0.52727,0.45005 -0.83012,0.61875 -0.22293,0.12417 -0.72833,0.39644 -0.70847,-0.078 0.0466,-1.11384 0.71797,0.84463 0.5274,-0.41899 -0.008,-0.0389 0.008,-0.1431 -0.0226,-0.11671 -0.12781,0.11029 -0.1338,0.408 -0.30512,0.39948 -0.8286,-0.0412 -1.6166,-0.36094 -2.42636,-0.53527 -0.0375,-0.008 -0.0944,-0.0433 -0.11444,-0.0117 -0.71398,1.12729 0.3046,-0.0828 -0.36322,0.67197 -0.15819,-0.25036 -0.0321,0.0217 0.12408,-0.43868 0.0362,-0.10659 -0.08,-0.3023 0.0312,-0.33509 0.13729,-0.0404 0.40139,0.35214 0.3666,0.21787 -0.23619,-0.91193 -2.61122,-1.44846 -3.14238,-1.66428 -2.73331,0.70535 -1.8399,0.33973 -4.49831,1.60956 -0.74923,0.35787 -1.38891,1.09853 -2.22486,1.11692 -0.3695,0.008 -0.18838,-0.7261 -0.0783,-1.06625 0.19026,-0.58803 0.79116,-1.01029 0.94372,-1.60844 0.35371,-1.3869 0.36722,-2.83441 0.55082,-4.25161 0.35055,-1.64708 0.66481,-3.30173 1.05164,-4.94126 0.67388,-2.85622 1.41179,-5.43257 2.2922,-8.216 0.25908,-0.81908 0.54592,-1.62976 0.82491,-2.44273 0.44434,-1.29476 0.81071,-1.32444 -0.008,-0.99303 -0.73931,-0.30414 -1.41663,-0.85125 -2.21793,-0.91241 -0.25949,-0.0198 -0.13668,0.48429 -0.1989,0.72795 -0.0436,0.17062 -0.52154,2.12095 -0.54379,2.30317 -0.0393,0.32226 0.002,0.64896 0.003,0.97345 -0.0844,0.19418 2.76431,1.34502 2.84871,1.15084 v 0 c 0.18585,-0.30731 0.42229,-0.59095 0.55751,-0.92191 0.23558,-0.57662 0.49759,-2.0536 0.56029,-2.64151 0.0492,-0.46157 0.32366,-0.99681 0.0688,-1.39044 -0.56971,-0.87992 -1.56675,-1.42209 -2.35014,-2.13313 -0.42643,0.16347 -0.9038,0.23608 -1.27927,0.49042 -1.16605,0.78985 -2.24854,2.60054 -2.81483,3.66912 -2.36425,4.46129 -3.69167,9.29938 -4.224,14.27295 0.0629,3.96501 -0.66088,7.28242 2.60237,10.54119 2.23705,2.23397 3.93648,0.78326 5.72865,-0.2757 0.50522,-0.29852 2.00671,-1.27853 2.67903,-1.71529 -0.23497,-0.34594 -0.48352,-0.68364 -0.70489,-1.0378 -0.12974,-0.20756 0.27062,0.4098 0.42964,0.59747 0.43311,0.51109 0.8148,1.07865 1.34475,1.49643 0.8254,0.65067 1.86952,0.79798 2.8773,0.47979 0.43191,-0.13637 0.75111,-0.49348 1.12668,-0.74022 0.21631,-0.34326 0.48994,-0.65854 0.64894,-1.02977 0.1251,-0.29207 0.47432,-1.95828 0.15402,-2.21971 -2.34876,-1.91706 -3.09589,-1.3067 -3.68936,0.62796 0.0206,0.40861 -0.0814,0.84074 0.0619,1.22583 0.47482,1.27647 1.12641,2.34909 2.51302,2.79501 1.76694,0.56822 3.28271,-0.3331 4.58605,-1.35407 0.97129,-1.10231 1.22807,-1.28359 1.95243,-2.51259 0.17626,-0.29908 0.67503,-0.67054 0.44907,-0.93676 -0.25494,-0.30036 -0.86819,0.25369 -1.20689,0.0439 -1.18982,-0.7369 -1.20411,-2.25271 -1.16651,-1.29056 -0.43963,2.23632 -0.62618,4.51959 -0.63209,6.79435 0.29858,0.67718 0.28023,1.59641 0.89573,2.03155 2.21759,1.56772 5.32402,-3.34696 6.17177,-4.39409 2.80254,-3.79349 5.47711,-7.68081 8.46043,-11.34691 0.17073,-0.19679 0.41703,-0.35078 0.51219,-0.59037 0.0662,-0.16667 -0.35094,-0.13919 -0.48316,-0.26412 -0.13838,-0.13075 -0.19968,-0.32643 -0.34221,-0.45295 -0.2731,-0.24245 0.96323,1.1658 0.61722,0.89376 0.74706,1.3989 0.29012,2.48283 -0.56299,3.72666 -0.65796,0.87906 -1.33327,1.77674 -2.10189,2.56371 -0.0224,0.031 -0.0539,0.0576 -0.0673,0.0931 -0.0338,0.0891 0.21191,0.0132 0.28407,0.0778 0.2934,0.2625 1.04101,0.85689 0.65783,0.96851 -0.0344,0.01 -0.055,-0.0445 -0.0826,-0.0667 0.1582,-1.33897 0.66656,-2.61325 1.22579,-3.84049 0.11388,-0.18405 -2.58628,-1.73666 -2.70015,-1.55261 z" />
    <path
       style="fill:#000000;stroke-width:0.193476"
       id="path72"
       d="m -244.37202,146.61308 c 0.0742,-0.44601 0.32115,-0.89647 0.22242,-1.33803 -0.36528,-1.63387 -2.39201,-2.09025 -3.74638,-1.34447 -0.47756,0.26297 -0.99503,0.60304 -1.19466,1.09707 -0.32822,0.81219 -0.19932,1.73268 -0.29899,2.59901 0.69463,0.60544 1.27222,1.36607 2.08392,1.81632 0.75168,0.41697 1.63774,0.57576 2.49166,0.72184 2.43886,0.41722 5.0052,0.0897 7.3247,-0.69847 0.43766,-0.14871 0.84056,-0.37928 1.26084,-0.56894 0.49646,-1.0056 0.81616,-1.46628 -1.66224,-2.60901 -0.51518,-0.23754 -1.00329,0.53398 -1.45867,0.86618 -1.17807,0.8594 -3.01557,2.45805 -3.7266,3.71063 -0.47469,0.83624 -0.62642,1.80834 -0.93963,2.71251 -0.0988,0.10351 1.41981,1.45012 1.51859,1.3466 v 0 c 0.70278,-0.44282 1.46795,-0.80508 2.10836,-1.32849 0.54909,-0.44877 2.63608,-2.81839 3.18981,-3.42624 0.35862,-0.39367 1.02897,-0.65139 1.08589,-1.17242 0.3473,-3.17806 0.37049,-3.02638 -1.07202,-3.36267 -1.60058,0.28813 -3.20798,0.64014 -4.83369,0.76841 -0.68982,0.0544 -1.38375,0.0364 -2.07564,0.0546 -0.51519,-0.0498 -1.02916,-0.18508 -1.54564,-0.14948 -0.20947,0.0144 -0.36751,0.19603 -0.55126,0.29405 -0.18504,0.24336 -0.27454,0.59628 -0.55509,0.73008 -0.42412,0.20226 0.005,-0.53754 -0.0384,-0.72493 -0.15177,-0.65718 -0.36455,-0.0444 -0.30544,-0.83933 0.007,-0.0964 0.0953,-0.16994 0.14297,-0.25492 -0.0807,0.17554 2.49442,1.27563 2.57511,1.1001 z" />
    <path
       style="fill:#000000;stroke-width:0.193476"
       id="path73"
       d="m -260.95293,160.10552 c -1.5233,7.66938 -2.37289,15.46004 -3.02344,23.23901 3.89135,-2.24466 -1.70731,4.0147 -0.36929,3.87568 0.34479,-0.0358 2.17657,-1.51148 2.13715,-2.26969 -0.0195,-0.37629 -1.69417,-6.1405 -1.70709,-6.18571 -0.32512,-1.10624 -0.64573,-2.21374 -0.97539,-3.31874 -0.69304,-2.32299 -1.8841,-8.64865 -6.20942,-6.35738 -1.26326,0.66919 -1.91802,2.07474 -2.87705,3.11211 -0.59666,1.16331 -1.30019,2.28114 -1.79001,3.48993 -1.59414,3.93397 -2.56491,8.56897 -1.69474,12.78493 0.24274,1.17605 0.50924,2.43441 1.27131,3.38212 0.67446,0.83877 1.86844,1.12285 2.80265,1.68428 0.0906,0.10261 1.59599,-1.13329 1.50535,-1.2359 v 0 c -0.18283,-2.88372 0.0177,-1.36896 -0.68128,-4.53384 -0.42639,-4.734 1.01931,-9.77238 2.65501,-14.18263 -0.0525,-1.22791 0.1578,-1.36605 -0.89582,-2.35397 -0.16019,-0.15019 0.18007,0.39692 0.23101,0.60666 0.17313,0.71282 0.28069,1.43915 0.43979,2.15502 0.77801,3.50077 0.67946,2.93356 1.73611,6.53806 0.65351,1.75636 1.58375,4.67482 2.74689,6.27296 0.62254,0.85535 1.1957,2.02731 2.25211,2.26108 3.19945,0.70796 4.16809,-4.18911 4.61111,-5.85112 0.24879,-1.41152 0.55441,-2.81481 0.74636,-4.23454 0.86479,-6.39641 0.93137,-12.91406 0.34917,-19.3344 -0.0334,-0.22225 -3.29396,0.23382 -3.26049,0.45608 z" />
    <path
       style="fill:#000000;stroke-width:0.193476"
       id="path74"
       d="m -287.77239,150.90569 c -0.16752,0.57513 -0.36127,1.14375 -0.50252,1.7254 -0.24001,0.9883 -0.41929,1.98945 -0.64068,2.98178 -0.99515,4.46066 -1.1069,4.62786 -2.08453,9.37347 -0.87859,4.26487 -1.12347,5.80091 -1.86631,9.98478 -0.57144,4.33142 -0.40377,2.38025 -0.6021,5.8448 -0.0983,0.23217 3.30775,1.57202 3.40602,1.33985 v 0 c 1.77401,-3.17419 0.89124,-1.33881 2.44975,-5.59093 0.38251,-1.56361 0.80992,-3.11763 1.14753,-4.69082 1.41068,-6.57309 2.3651,-13.34484 1.823,-20.06336 0.0664,-0.21337 -3.06379,-1.11835 -3.13016,-0.90497 z" />
    <path
       style="fill:#000000;stroke-width:0.193476"
       id="path75"
       d="m -297.85354,156.4369 c -0.96374,3.08787 -2.05789,6.15218 -3.73751,8.95099 -0.19453,0.22554 -0.36607,0.47151 -0.58358,0.67661 -0.0723,0.0682 -0.18965,0.18685 -0.2719,0.13005 -0.3186,-0.2201 0.28553,-0.13853 0.53698,-0.32525 0.0813,-0.0603 0.0507,-0.25626 0.15326,-0.25726 0.10222,-7.2e-4 0.10433,0.16947 0.15649,0.25422 -0.14953,-0.25712 -0.18438,-1.71817 -0.33976,-1.85177 -0.58847,-0.50589 -1.24362,-0.93468 -1.86542,-1.40204 -0.064,0.003 -0.25581,0.01 -0.19182,0.008 1.37602,-0.0363 -0.31326,-0.0528 0.87877,0.11284 0.0321,0.004 0.0491,-0.0877 0.0707,-0.0644 0.12996,0.14108 0.43216,0.70185 0.26779,0.39952 -0.26797,-0.63911 -0.54615,-1.33947 -1.34423,-1.61757 -1.26401,-0.44047 -4.38772,1.0351 -5.17145,1.42566 -4.73906,2.36164 -5.13217,3.00126 -9.7514,6.39775 -1.7812,1.73378 -3.7463,3.30836 -5.3436,5.20133 -2.8324,3.35667 -5.76738,7.57386 -5.38493,12.23974 0.17327,2.11374 0.90182,4.34631 2.34635,5.94527 5.42791,6.0082 9.27242,5.3791 16.71247,6.6144 3.19275,-0.54446 6.3855,-1.08892 9.57825,-1.63339 0.37551,-0.0638 -0.56039,-5.18333 -0.93591,-5.11954 v 0 c -2.88107,-0.008 -5.76216,-0.0163 -8.64325,-0.0245 -2.44876,-0.18477 -4.9035,-0.30685 -7.34632,-0.55431 -1.32907,-0.13463 -2.80708,0.057 -3.96199,-0.59124 -3.08419,-1.73108 -2.49727,-4.59292 -1.23112,-7.19989 1.6628,-3.42359 5.82419,-7.51762 8.31915,-10.2323 1.50715,-1.46932 2.97955,-2.97255 4.52146,-4.40797 1.12925,-1.05125 2.31828,-2.04124 3.48911,-3.04934 0.63995,-0.55102 1.41026,-0.97932 1.94294,-1.62781 0.13274,-0.1616 -1.27993,-2.89769 -0.89317,-1.36967 0.34795,1.10417 1.08239,2.20664 2.44841,2.05682 -0.51337,-0.47629 -1.56166,-2.12728 -1.52769,-1.4412 0.0316,0.63834 -0.12348,1.27536 0.0612,1.90806 0.2916,0.85512 0.45993,1.85161 1.21325,2.4928 1.13559,0.96653 2.63583,0.91419 3.86814,0.15006 0.43817,-0.2717 0.78284,-0.66292 1.17427,-0.99438 0.37582,-0.49442 0.79576,-0.96031 1.12747,-1.48325 1.67704,-2.64388 2.60331,-5.80718 2.67428,-8.89271 0.0606,-0.20556 -2.95519,-1.03034 -3.01568,-0.82477 z" />
    <path
       style="fill:#000000;stroke-width:0.193476"
       id="path76"
       d="m -299.342,182.11003 c 0.78923,0.47124 1.65747,0.80827 2.49927,1.1839 0.16145,0.072 0.34589,0.10949 0.4831,0.21865 0.0528,0.042 0.0244,0.12985 0.0366,0.19477 -1.7266,-1.73909 0.29316,0.70435 -0.17151,-2.53691 -0.0375,-0.26195 -0.54095,-0.0901 -0.81359,-0.1194 -3.01835,-0.32489 -6.0477,-0.29929 -9.08097,-0.33839 -4.69482,0.0827 -2.49768,-0.28782 -6.61731,0.95802 -0.16514,0.006 -0.0803,2.25699 0.0848,2.25121 v 0 c 4.47713,1.76364 2.10739,1.24884 7.13027,1.4516 3.40496,-0.19796 3.73163,-0.13625 6.94505,-0.60926 0.76416,-0.11248 1.52519,-0.24851 2.27912,-0.41301 1.34802,-0.2941 2.26712,-0.52236 2.42597,-2.38784 0.0387,-0.4536 -0.62027,-0.68631 -0.93041,-1.02946 -1.1475,-0.41551 -2.24941,-0.96807 -3.46546,-1.17829 -0.1727,-0.0549 -0.97761,2.29955 -0.80491,2.35441 z" />
    <path
       style="fill:#000000;stroke-width:0.193476"
       id="path77"
       d="m -309.16968,148.43127 c -0.27522,0.35885 -0.5429,0.70946 -0.90663,0.99237 -0.53887,0.41909 -0.88826,0.0952 1.09872,0.36077 0.3585,2.46705 -0.1604,2.04228 0.93249,1.67392 0.0921,-0.031 0.18304,-0.0814 0.28054,-0.0799 0.0653,7.2e-4 -0.10392,0.0834 -0.16744,0.0979 -0.1701,-0.0597 -0.32953,-0.18752 -0.51032,-0.17899 -0.14734,0.007 0.25459,0.21268 0.39911,0.18423 0.62829,-0.12364 1.17481,-0.56136 1.81321,-0.6196 0.28444,-0.0259 -0.38902,0.46579 -0.67007,0.51532 -0.45706,0.0805 -1.04367,0.1509 -1.38475,-0.15322 -0.40639,-0.36235 -0.33299,-1.01788 -0.4995,-1.52682 0.0109,-0.0775 0.10139,-0.19105 0.0326,-0.23253 -0.0506,-0.0305 -0.5784,0.18515 -0.71852,0.23084 -0.0494,0.0161 -0.20454,0.0294 -0.15256,0.0329 1.4813,0.0984 0.53418,-0.42344 1.70948,1.69648 0.067,0.35632 -0.0475,0.10092 0.33038,0.0886 0.044,-0.001 0.13512,0.0671 0.0963,0.0871 -0.94183,0.48245 -0.75894,-1.22295 -1.60293,-1.1422 -0.17839,0.10485 -0.43086,0.28885 -0.66058,0.29091 -0.0483,3.8e-4 -0.1544,-0.0922 -0.10624,-0.0948 0.31489,-0.0172 0.70221,-0.14529 0.9448,0.049 1.78939,1.43278 0.0284,1.13994 0.83315,1.25087 0.0518,-0.005 0.60545,-0.0813 0.66586,-0.0156 0.0526,0.0571 -0.14563,0.1521 -0.20979,0.10738 -0.39403,-0.27468 -0.74629,-0.61145 -1.04448,-0.98172 -0.088,-0.10933 0.0401,-0.32649 -0.0754,-0.40882 -0.0946,-0.0675 -0.22043,0.0795 -0.33062,0.11922 -0.85372,0.0969 0.0413,-0.25405 0.21979,-0.0215 0.37715,0.49123 0.49649,1.12477 0.73193,1.69218 0.0253,0.061 -0.013,0.16499 0.0495,0.19118 0.0955,0.04 0.20632,-0.0272 0.30948,-0.0408 0.008,0.0368 0.0552,0.0883 0.0237,0.11052 -0.47844,0.33658 -0.93383,-0.74027 -1.23386,-1.23256 -0.0542,-0.089 0.032,-0.22063 -0.0238,-0.30868 -0.015,-0.0235 -0.38506,-0.0488 -0.39706,-0.0498 0.43281,-0.16223 0.14371,-0.10921 0.86164,0.1853 -0.14253,-0.13822 -2.17032,1.80512 -2.02777,1.94334 v 0 c 1.25098,1.01346 0.55327,0.73418 2.05177,0.92797 0.3333,-0.0906 0.69029,-0.12228 0.99992,-0.27177 0.55899,-0.26987 1.71771,-1.11397 1.64905,-1.86872 -0.12855,-1.41324 -0.65713,-2.23557 -1.94799,-2.41342 -0.37639,-0.0518 -0.75931,0.0403 -1.13895,0.0605 -0.49373,0.22037 -1.80633,0.6695 -1.90206,1.34492 -0.24496,1.7282 0.077,2.55102 1.58582,2.84998 0.36643,0.0726 0.75833,0.0484 1.12156,-0.0379 0.41896,-0.0995 0.78789,-0.33941 1.18182,-0.50911 0.57631,-0.55917 1.6988,-1.38654 1.47153,-2.3886 -0.41502,-1.82984 -2.06462,-2.53908 -3.7088,-1.94524 -0.45013,0.16257 -0.83141,0.4653 -1.24712,0.69795 -0.90348,1.22169 -1.61102,1.59729 -0.45908,3.4225 0.77358,1.2257 2.7932,0.66449 3.67376,0.0414 0.34111,-0.24135 0.59826,-0.57694 0.89741,-0.86541 0.18248,-0.40464 0.60423,-0.77611 0.54742,-1.21392 -0.10375,-0.79946 -0.46296,-1.5965 -0.99302,-2.21943 -0.64831,-0.7619 -2.56799,-0.10568 -3.15505,0.40289 -0.31649,0.27416 -0.53987,0.63415 -0.8098,0.95121 0.25026,0.76117 0.26316,1.63805 0.7508,2.28349 0.22984,0.30419 0.75721,0.20708 1.14696,0.22835 1.13569,0.062 2.22614,-0.92626 2.81953,-1.72554 -0.11361,-0.66232 0.0866,-1.45699 -0.34083,-1.98698 -0.3223,-0.39965 -1.01282,-0.38859 -1.53548,-0.33954 -0.33091,0.0311 -1.14136,0.52335 -0.81101,0.55976 0.59096,0.0651 1.13264,-0.36659 1.71958,-0.45961 0.11411,-0.0181 0.41324,0.19808 0.31654,0.13693 -0.21807,-0.13788 -0.45514,-0.24563 -0.68269,-0.36844 -1.00317,-0.25206 -1.95173,-0.0884 -2.81821,0.4857 -0.2324,0.15399 -0.56773,0.2761 -0.63365,0.54044 -0.19885,0.79748 -0.076,1.63876 -0.114,2.45814 0.52601,0.14665 1.03425,0.3779 1.578,0.43992 0.23629,0.0269 0.4718,-0.0868 0.68856,-0.18137 1.19908,-0.52324 1.95258,-1.58756 2.32383,-2.76828 0.0793,-0.19335 -2.75726,-1.27464 -2.83657,-1.08129 z" />
    <path
       style="fill:#000000;stroke-width:0.193476"
       id="path78"
       d="m -323.39413,151.33094 c -0.76441,1.83583 -1.35207,3.15257 -1.95364,5.14259 -0.37098,1.22715 -0.82825,2.45074 -0.95056,3.72349 -0.12345,1.28448 0.14757,2.57604 0.22137,3.86406 -0.0652,0.16809 2.40076,1.05701 2.46595,0.88891 v 0 c 0.61724,-1.03994 1.40995,-1.99993 1.85171,-3.11982 0.47051,-1.19278 0.61802,-2.48309 0.85378,-3.7388 0.47001,-2.50361 0.46767,-3.20175 0.62577,-5.47137 0.0945,-0.2123 -3.01984,-1.50136 -3.11438,-1.28906 z" />
    <path
       style="fill:#000000;stroke-width:0.193476"
       id="path79"
       d="m -329.48999,166.55878 c -0.4957,0.791 -1.13972,3.02758 -2.01823,3.38955 -0.083,0.0342 -0.18036,-0.007 -0.27053,-0.011 0,-0.006 -0.0849,-0.46081 -0.0641,-0.45891 0.17236,0.0158 0.26993,0.22151 0.43378,0.2754 0.11691,0.0385 -0.17095,-0.18416 -0.28626,-0.22688 -0.70903,-0.26263 -1.40913,-0.74039 -2.16623,-0.68158 -0.52021,0.0404 -0.81404,0.62977 -1.22105,0.94466 -0.5971,0.61922 -2.8028,3.7775 -3.90676,2.98136 -0.11593,-0.0836 -0.14294,-0.24278 -0.21443,-0.36416 0.14201,0.0346 0.36411,0.23187 0.42607,0.10389 0.0798,-0.16488 -0.16254,-0.3286 -0.23622,-0.49612 -0.61747,-1.40391 -0.63974,-1.78939 -3.38152,-1.49825 -0.38392,0.0408 -0.36372,0.65699 -0.54561,0.98549 -0.26595,0.76665 -0.65809,1.47408 -1.10032,2.15615 -0.0446,0.0688 0.0635,-0.16178 0.13369,-0.2067 0.87677,-0.5613 0.86865,-0.0276 0.59116,-0.85749 -0.308,-0.27003 -0.5484,-0.63692 -0.92399,-0.81008 -2.85212,-1.31499 -6.18091,-0.41584 -9.06332,0.20838 -3.36812,0.72942 -6.1097,1.49383 -9.44886,2.37441 -1.24438,0.27389 -5.37909,1.45429 -7.11419,1.03795 -0.33341,-0.08 -0.67483,-0.63596 -0.45588,-0.89124 0.34981,-0.4079 1.14757,-0.10885 1.58637,-0.4269 1.07847,-0.78166 1.82075,-1.92813 2.83952,-2.78096 1.51018,-1.26419 3.15447,-2.37134 4.7317,-3.557 7.47592,-4.61753 3.81266,-2.26663 10.9941,-7.04638 0.26944,-0.12434 -1.55464,-3.79762 -1.82408,-3.67328 v 0 c -9.46984,2.77258 -5.02633,0.72821 -13.30459,6.1853 -2.33105,2.31031 -6.91078,6.03939 -7.7041,9.64773 -0.74213,3.37552 0.23749,5.96369 3.50991,7.05797 2.74374,0.91748 5.99389,-0.0645 8.62371,-0.53152 5.93406,-1.79399 3.58905,-0.99993 9.18,-3.00902 0.45771,-0.16448 4.76051,-2.00201 5.7684,-1.62197 0.26525,0.10003 0.43372,0.35602 0.6506,0.53404 0.97977,0.78035 1.17141,1.19592 2.72293,1.01956 1.62483,-0.1847 2.41672,-2.31557 2.72164,-3.57609 -0.26468,-1.25918 -0.0409,-0.7988 -2.77186,-1.42231 -0.13001,-0.0297 -0.0333,0.25777 -0.02,0.38592 0.21322,2.0537 0.77076,2.5957 2.50008,3.96337 0.54084,0.16705 1.05702,0.45044 1.6225,0.50114 2.88045,0.25823 4.92734,-2.13268 6.01377,-4.37968 -1.00501,-0.23322 -0.27848,-0.0346 -2.07101,-0.88528 -0.15394,-0.0431 0.14097,0.28316 0.25134,0.39524 1.29583,1.31614 1.8829,1.76818 3.76949,1.66306 0.39963,-0.15533 0.83075,-0.25012 1.19888,-0.46598 1.84158,-1.07988 2.39052,-3.23607 2.76713,-5.12948 0.0588,-0.19929 -2.86483,-1.00163 -2.92366,-0.80234 z" />
    <path
       style="fill:#000000;stroke-width:0.193476"
       id="path80"
       d="m -335.06019,146.6225 c -2.29087,-0.36118 -4.61238,-0.41937 -6.91887,-0.61829 -1.32595,-0.11436 -2.64723,-0.27433 -3.97083,-0.4115 -0.3538,0.0141 -0.14644,4.83774 0.20737,4.82361 v 0 c 1.38275,0.003 2.76606,0.0463 4.14827,0.009 2.26718,-0.0617 4.51676,-0.34073 6.76293,-0.61829 0.23357,-0.0156 0.004,-3.19977 -0.22887,-3.18416 z" />
    <path
       style="fill:#000000;stroke-width:0.193476"
       id="path81"
       d="m -378.66212,139.7433 c 0.32903,1.40189 -0.17315,-0.79271 0.27231,1.47928 0.35214,1.7959 0.42093,1.49538 0.63168,3.49346 0.2333,2.2119 0.18015,3.06546 0.19715,5.34425 -0.0223,4.43088 -1.08807,8.75319 -1.6272,13.13131 -0.0124,0.25192 3.68316,0.42194 3.69564,0.17002 v 0 c 0.25406,-0.64258 0.54576,-1.27251 0.76222,-1.92777 1.29852,-3.93058 1.75134,-8.06533 1.64873,-12.17702 -0.093,-1.046 -0.13256,-2.09769 -0.27887,-3.138 -0.39973,-2.84215 -1.20452,-6.15882 -3.14678,-8.41975 -0.14994,-0.14689 -2.30482,1.89733 -2.15488,2.04422 z" />
    <path
       style="fill:#000000;stroke-width:0.193476"
       id="path82"
       d="m -381.22402,171.96078 c -0.0678,0.024 -0.32578,0.10448 -0.31363,0.17517 0.012,0.0694 0.14466,-0.0524 0.21566,-0.0362 0.51916,0.11831 1.31231,0.24862 1.6045,0.80346 0.0703,0.13355 -0.0103,0.29938 -0.0153,0.44907 0.42287,-0.40959 0.56054,-0.60626 1.08721,-0.87941 0.0882,-0.0457 0.38674,-0.0434 0.29105,-0.0718 -0.15672,-0.0467 -0.33513,0.0586 -0.49189,0.0121 -0.94632,-0.28101 -0.75417,-0.27223 -0.83392,-1.04065 -0.14119,0.11939 -0.26612,0.25944 -0.42355,0.35818 -0.21337,0.1338 -0.81675,0.44004 -0.73236,0.20854 0.0946,-0.25937 0.58019,0.12994 0.85387,0.0526 0.2087,-0.059 0.31904,-0.28505 0.47856,-0.42759 0.13995,0.4816 1.31347,-1.08084 1.69907,-0.67953 0.16409,0.17075 -0.16027,0.0997 -0.50846,0.0488 -0.74462,-0.0345 -0.0388,0.11067 -0.26512,-0.55544 -0.0279,-0.082 -0.13851,0.11133 -0.21777,0.15139 -0.1176,0.0594 -0.35709,0.22712 -0.38417,0.10178 -0.004,-0.0219 0.0453,-0.009 0.0681,-0.0136 1.40705,0.53834 -0.005,2.59613 -1.03826,1.56633 0.2072,-0.23352 0.4144,-0.46704 0.62161,-0.70055 0.026,0.0503 0.76305,-0.30443 0.73704,-0.35468 v 0 c 0.1767,-0.32522 0.3534,-0.65044 0.53012,-0.97566 -0.16046,-0.15855 -0.27116,-0.38619 -0.48136,-0.47565 -2.36581,-1.00686 -3.89364,2.06744 -2.08276,3.57744 0.31828,0.16184 0.60983,0.38705 0.95487,0.48555 1.09405,0.31227 2.72592,0.005 3.49795,-0.86903 0.46934,-0.53149 0.84043,-1.16239 1.0609,-1.82725 0.1474,-0.44457 0.006,-0.93343 0.009,-1.40015 -0.24248,-0.41238 -0.38243,-0.89938 -0.72743,-1.23715 -1.49264,-1.4613 -4.20589,-0.87295 -5.51414,0.51658 -0.58855,0.62511 -0.97293,1.40393 -1.45939,2.10589 -0.27826,1.39903 -0.71882,2.07417 0.38134,3.39052 1.0922,1.30683 3.1692,0.98566 4.40341,0.17174 0.42669,-0.28137 0.73317,-0.70276 1.09973,-1.05415 0.24007,-0.71261 0.7331,-1.38869 0.72018,-2.13783 -0.0103,-0.59338 -0.35388,-1.18783 -0.78483,-1.61162 -0.35985,-0.35385 -0.91787,-0.49545 -1.42702,-0.56344 -1.36717,-0.18257 -2.50708,0.85527 -3.35863,1.69563 -0.32877,0.61035 -0.83494,1.15898 -0.9863,1.83105 -0.11293,0.50155 -0.0699,1.10008 0.23089,1.52353 0.82708,1.16422 2.24956,1.10046 3.204,0.30708 0.23904,-0.19873 0.41671,-0.4572 0.62506,-0.6858 0.14194,-0.15868 -2.18603,-2.09377 -2.32797,-1.93508 z" />
    <ellipse
       style="fill:#000000;stroke-width:0.193476"
       id="path83"
       cx="80.922844"
       cy="181.51967"
       rx="1.4536012"
       ry="1.3345518" />
    <ellipse
       style="fill:#000000;stroke-width:0.193476"
       id="path84"
       cx="53.373638"
       cy="181.71986"
       rx="1.5920393"
       ry="1.4012794" />
  </g>
</svg>
