<?xml version="1.0" encoding="UTF-8" standalone="no"?>
<!-- Created with Inkscape (http://www.inkscape.org/) -->

<svg
   width="132.87004mm"
   height="31.041315mm"
   viewBox="0 0 132.87004 31.041315"
   version="1.1"
   id="svg1"
   xmlns:inkscape="http://www.inkscape.org/namespaces/inkscape"
   xmlns:sodipodi="http://sodipodi.sourceforge.net/DTD/sodipodi-0.dtd"
   xmlns="http://www.w3.org/2000/svg"
   xmlns:svg="http://www.w3.org/2000/svg">
  <sodipodi:namedview
     id="namedview1"
     pagecolor="#ffffff"
     bordercolor="#111111"
     borderopacity="1"
     inkscape:showpageshadow="0"
     inkscape:pageopacity="0"
     inkscape:pagecheckerboard="1"
     inkscape:deskcolor="#d1d1d1"
     inkscape:document-units="mm" />
  <defs
     id="defs1" />
  <g
     inkscape:label="Layer 1"
     inkscape:groupmode="layer"
     id="layer1"
     transform="translate(-49.254018,-104.94866)">
    <path
       style="fill:#000000;stroke-width:0.264583"
       id="path95"
       d="m 181.83902,129.63593 c -0.32612,0.0665 -0.65537,0.11924 -0.97836,0.19964 -0.51015,0.12698 -1.00788,0.30165 -1.51961,0.42213 -1.36001,0.3202 -3.47995,0.69222 -4.80656,0.87745 -0.99736,0.13926 -1.99497,0.29721 -3.00049,0.35248 -1.10245,0.0606 -2.20821,-0.004 -3.31232,-0.006 -3.26083,-0.17606 -6.53821,-0.53558 -9.47101,-2.09858 -1.69822,-0.90505 -2.96397,-1.93218 -3.97248,-3.57742 -0.20619,-0.33637 -0.1951,-0.76458 -0.29266,-1.14686 0.009,-0.79564 -0.17143,-1.61619 0.0263,-2.38691 0.55732,-2.17216 2.02756,-3.50621 3.70505,-4.87398 1.57187,-1.28164 4.50015,-3.07311 6.29244,-4.05627 0.87754,-0.48138 1.79233,-0.89148 2.6885,-1.33722 0.30094,-0.0952 -1.04496,-4.35112 -1.3459,-4.25595 v 0 c -1.25076,0.25845 -2.54979,0.34496 -3.75226,0.77535 -5.57141,1.99411 -10.54753,6.89665 -11.43451,12.93372 -0.1737,1.18225 0.0637,2.38904 0.0956,3.58356 0.6243,1.3702 1.0839,2.82814 1.8729,4.11059 2.61543,4.25117 7.84668,6.28895 12.5908,6.76313 1.26419,0.12636 2.54049,0.0494 3.81074,0.0741 1.20754,-0.17856 2.42823,-0.28372 3.62261,-0.53568 3.24879,-0.68534 6.53361,-2.04733 8.82874,-4.52451 0.23663,-0.2554 0.42326,-0.55295 0.63488,-0.82942 0.0328,-0.02 -0.24961,-0.48384 -0.28242,-0.46387 z" />
    <path
       style="fill:#000000;stroke-width:0.264583"
       id="path96"
       d="m 137.59616,126.41616 c -0.13179,-0.47247 -0.27283,-0.83885 -0.19979,-1.36217 0.0303,-0.21716 0.15547,-0.41102 0.25544,-0.60616 0.49071,-0.95784 0.84892,-1.57229 1.669,-2.33518 0.41338,-0.38455 0.90557,-0.67453 1.35835,-1.01179 0.49795,-0.22516 0.96581,-0.53466 1.49385,-0.67547 0.66107,-0.1763 1.85036,-0.28286 2.2786,0.53329 0.21841,0.41625 0.2432,0.94445 0.14058,1.40319 -0.0857,0.38315 -0.4689,0.63145 -0.67105,0.96804 -0.36922,0.61475 -0.69405,1.25509 -1.04107,1.88264 -1.34793,1.70808 -2.88641,3.49308 -4.97229,4.32966 -0.93982,0.37693 -1.83669,0.47743 -2.70416,-0.11867 -0.34989,-0.24043 -0.55409,-0.64334 -0.83113,-0.96502 -0.58521,0.12225 -0.43721,-2.49766 -0.78331,-2.44753 -0.15592,0.0226 -0.26493,0.17231 -0.38433,0.2751 -0.25591,0.22029 -0.49299,0.46155 -0.73948,0.69232 -1.25859,0.96924 -2.52595,2.02735 -4.12073,2.38796 -0.43843,0.0991 -0.90794,0.1816 -1.34604,0.081 -1.01976,-0.23409 -1.20461,-0.99539 -1.65444,-1.78936 -0.47394,-2.63604 -0.24678,-0.63264 -0.22437,-2.51725 0.007,-0.54936 -0.0285,-1.0985 -0.0316,-1.64789 -0.004,-0.65136 0.0971,-1.89521 -0.14046,-2.57735 -0.12619,-0.36235 -0.38872,-0.66164 -0.58308,-0.99246 -0.36279,-0.0968 -0.71366,-0.2664 -1.08837,-0.29048 -2.64494,-0.16995 -5.76754,1.6126 -7.04063,3.92034 -0.38968,0.70637 -0.50136,1.53359 -0.75204,2.30038 -0.0952,0.16027 2.17134,1.50683 2.26656,1.34656 v 0 c 0.11079,-0.51782 0.0991,-1.07807 0.33238,-1.55345 0.49065,-0.99984 1.86968,-2.14193 2.65832,-2.83445 0.96323,-0.84581 1.95294,-1.7737 3.07404,-2.40957 -0.41226,0.0153 -0.19389,-0.0221 -0.51385,0.88483 -0.72701,2.06071 -0.78292,4.06211 -0.18923,6.19538 0.18483,0.66414 0.58623,1.24792 0.87934,1.87188 1.10928,1.20929 1.42946,1.91859 3.1445,2.32312 2.1361,0.50385 4.3368,-0.53254 5.66337,-2.18756 0.40447,-0.50462 0.61645,-1.13708 0.92467,-1.70563 0.0463,-0.46672 0.21673,-0.93768 0.13877,-1.40016 -0.0905,-0.5368 -0.6197,-1.08272 -1.15569,-0.57773 -1.22932,1.1582 -0.0168,3.3681 0.60292,4.48111 1.24983,1.12782 1.61627,1.76158 3.39991,2.08341 2.67644,0.48292 5.34401,-0.85572 7.15542,-2.75006 0.71388,-0.74655 1.20523,-1.67788 1.80785,-2.51682 0.93196,-2.70299 1.53036,-3.20051 0.68542,-6.22493 -0.61466,-2.20012 -2.91965,-3.24494 -5.02894,-2.82777 -0.71506,0.14143 -1.34629,0.55927 -2.01943,0.8389 -0.56238,0.50043 -1.21057,0.91855 -1.68714,1.50129 -1.24541,1.52286 -2.1484,4.34219 -0.62457,5.99694 0.1222,0.1327 0.2981,0.20325 0.44714,0.30488 0.0196,0.0107 0.17036,-0.26668 0.15075,-0.27734 z" />
    <path
       style="fill:#000000;stroke-width:0.264583"
       id="path97"
       d="m 139.07015,113.60501 c -3.1835,-1.87719 -6.82218,-2.84299 -10.45358,-3.39273 -0.81579,-0.1235 -1.64015,-0.18162 -2.46022,-0.27243 -0.23335,-0.0277 -0.62509,3.27233 -0.39174,3.30003 v 0 c 0.8307,0.23259 1.65033,0.5091 2.4921,0.69778 3.50938,0.78662 7.2793,1.13205 10.77236,0.11186 0.0314,0.003 0.0725,-0.44161 0.0411,-0.44451 z" />
    <path
       style="fill:#000000;stroke-width:0.264583"
       id="path99"
       d="m 144.68503,111.10533 c 0.44822,0.22579 0.92162,0.49687 1.40821,0.63609 0.0323,0.009 -0.0506,-0.0509 -0.0838,-0.0562 -0.0749,-0.0118 -0.15156,0.005 -0.22733,0.007 -0.3623,-0.0537 -0.68804,-0.19401 -1.02435,-0.32344 -0.0978,-0.0376 -0.29407,-0.1277 -0.31343,-0.0247 -0.0199,0.10617 0.0251,0.2146 0.0376,0.3219 0.34638,0.36788 0.42629,-0.13137 0.51052,-0.39904 0.0346,-0.0194 0.0641,-0.0579 0.10372,-0.0581 0.1746,-8e-4 0.44814,0.32052 0.36895,0.48974 -0.0231,0.0494 -0.0657,0.0872 -0.0985,0.13086 -0.37109,0.12985 -0.63662,-0.14232 -0.95518,-0.25687 -0.0454,-0.0163 -0.005,0.0987 0.011,0.14422 0.0398,0.0813 0.91381,1.47042 0.34294,0.7177 -0.0361,-0.37236 -0.11346,-0.72097 -0.0927,-1.09892 0.0126,-0.22838 0.0519,-0.41912 0.14927,-0.36684 0.0687,0.0369 0.0757,0.13625 0.11359,0.20437 -0.0197,0.15513 0.22652,1.73988 -0.23975,1.47608 -0.0759,-0.0429 -0.10464,-0.13951 -0.15696,-0.20927 0.0342,-0.16087 -0.0404,-0.33286 5.2e-4,-0.49149 0.0896,-0.34685 0.5036,-0.34177 0.7661,-0.22909 0.095,0.0408 0.16726,0.12153 0.2509,0.18229 -0.29476,0.10954 -1.26343,-0.10266 -1.36227,-0.40637 0.0235,-0.0484 0.0204,-0.12569 0.0705,-0.14516 0.49491,-0.1922 1.30279,0.5075 1.60543,0.82718 -0.0536,0.0131 -0.10758,0.0535 -0.16092,0.0392 -0.5293,-0.14126 -1.19915,-0.56703 -1.63368,-0.89144 -0.49321,-0.3682 -0.17419,-0.22084 -0.36449,-0.30572 0.0267,-0.0171 0.0504,-0.0626 0.0799,-0.0513 0.3364,0.12944 0.65749,0.60798 0.83797,0.89593 0.0413,0.0658 0.0275,0.25214 0.0276,0.30576 -0.31785,-0.0411 -0.49524,-0.4447 -0.64253,-0.6907 -0.0177,-0.0295 -0.11105,-0.21473 -0.0319,-0.24973 0.0729,-0.0322 0.1583,0.0183 0.23745,0.0275 0.32893,-0.0207 1.11318,0.91181 0.41087,0.97276 -0.11721,0.0102 -0.2335,-0.029 -0.35026,-0.0436 -0.10864,-0.0326 -0.21729,-0.0653 -0.32593,-0.0979 -0.0387,-0.003 -0.0872,0.54381 -0.0486,0.54724 v 0 c 0.15925,0.0419 0.31851,0.0839 0.47777,0.12585 0.42565,-0.0808 0.67413,-0.0384 0.94573,-0.44261 0.56126,-0.83531 -0.48889,-1.57354 -1.24724,-1.4844 -0.22703,0.10959 -0.63485,0.21018 -0.62938,0.57367 0.009,0.58165 0.57456,1.12363 1.15291,1.09785 0.14628,-0.007 0.27274,-0.10665 0.40912,-0.15997 0.0636,-0.12955 0.19569,-0.2444 0.19085,-0.38864 -0.0241,-0.71892 -0.8703,-1.5901 -1.63801,-1.26431 -0.1365,0.0579 -0.21566,0.20357 -0.3235,0.30535 0.0355,0.22523 0.0174,0.46574 0.10637,0.67568 0.39505,0.93268 1.76348,1.40663 2.64604,0.89554 0.15806,-0.0915 0.24345,-0.27236 0.36517,-0.40854 -0.0619,-0.22529 -0.0689,-0.47347 -0.18561,-0.67587 -0.40929,-0.7099 -1.69886,-1.02903 -2.29106,-0.35497 -0.11124,0.12661 -0.12484,0.3131 -0.18726,0.46966 0.2723,0.42675 0.32751,0.70872 0.85242,0.84766 0.34778,0.0921 1.30428,-0.0492 1.35106,-0.55556 0.0164,-0.17789 -0.12372,-0.33518 -0.18557,-0.50277 -0.14937,-0.079 -0.28341,-0.19915 -0.44809,-0.23697 -0.67253,-0.15447 -1.50945,0.45024 -1.23921,1.1967 0.0732,0.20219 0.23858,0.35781 0.35787,0.53672 0.14616,0.0623 0.28011,0.17426 0.4385,0.18692 1.28075,0.10235 0.98804,-1.82506 0.24521,-2.28341 -0.13459,-0.0445 -0.26202,-0.13422 -0.40378,-0.13354 -0.13283,5.3e-4 -0.27155,0.0529 -0.37411,0.13726 -0.45561,0.37502 -0.38087,1.10723 -0.0887,1.55528 0.1198,0.1837 0.31071,0.3096 0.46607,0.4644 0.11935,0.017 0.23878,0.0685 0.35806,0.051 0.85603,-0.12561 -0.0448,-1.42501 -0.60435,-1.31774 -0.0725,0.0239 -0.18786,0.002 -0.21758,0.0718 -0.22501,0.53245 1.23873,0.90602 1.43439,0.40161 0.0497,-0.10308 0.14348,-0.19495 0.14912,-0.30925 0.0265,-0.53878 -0.62903,-0.92517 -1.03507,-0.56404 -0.0266,0.0774 -0.0797,0.15025 -0.0799,0.23207 -7.9e-4,0.2173 0.2899,0.50353 -0.0577,0.06 -0.0776,0.008 -0.17862,-0.0316 -0.23291,0.0245 -0.0411,0.0425 0.0108,0.12237 0.0425,0.17233 0.32425,0.51118 0.98881,0.53046 1.50809,0.38383 0.0914,-0.0698 0.21686,-0.10979 0.27427,-0.20948 0.46462,-0.80673 -1.01031,-1.15642 -1.51184,-1.08749 -0.0271,-7.9e-4 -0.0383,0.38306 -0.0112,0.38385 z" />
    <path
       style="fill:#000000;stroke-width:0.264583"
       id="path101"
       d="m 117.7987,117.37948 c -0.31521,0.0776 -0.63763,0.13022 -0.94562,0.23279 -0.96646,0.32186 -2.5988,1.07197 -3.44251,1.43664 -0.92167,0.39838 -1.85252,0.77575 -2.76813,1.18786 -2.36117,1.06276 -4.69248,2.19064 -7.04001,3.2832 -2.56324,1.03902 -5.062287,2.22588 -7.604782,3.31251 -1.016831,0.43458 -2.021679,0.90438 -3.068355,1.26114 -0.42628,0.1453 -3.277229,1.11181 -4.069162,0.40692 -0.468569,-0.41706 -0.394152,-1.19106 -0.59123,-1.78659 0.11375,-0.47377 0.269553,-0.93938 0.341252,-1.42131 0.648028,-4.35582 -0.206507,-1.12269 0.884918,-5.4702 0.119009,-0.47406 0.960617,-3.17219 1.033957,-3.96277 0.01662,-0.17911 -0.109366,-0.34272 -0.16405,-0.51409 -0.321455,0.16668 -0.674907,0.28249 -0.964369,0.50004 -0.698021,0.5246 -3.927501,3.54337 -4.255802,3.84121 -1.813218,1.64502 -3.702573,3.36037 -5.642837,4.8598 -0.801211,0.61917 -1.650386,1.17366 -2.475579,1.76049 -0.634304,0.37407 -1.268609,0.74813 -1.902913,1.1222 -0.22443,0.0763 0.854813,3.25024 1.079244,3.17392 v 0 c 0.988454,-0.12215 1.976911,-0.24431 2.965365,-0.36647 1.159166,-0.50598 2.39813,-0.85865 3.477498,-1.51793 2.427885,-1.48294 4.539046,-3.62846 6.06135,-6.0227 1.074052,-1.68924 2.209475,-4.24132 2.101392,-6.37203 -0.03157,-0.62231 -0.455207,-1.1601 -0.682813,-1.74016 -0.445463,-0.0683 -0.911685,-0.35579 -1.336389,-0.20501 -1.496605,0.53133 -2.546368,2.52287 -3.045716,3.78482 -0.783572,1.98023 -1.312387,4.78201 -0.902854,6.90852 0.28098,1.45899 1.012764,2.79368 1.519145,4.19053 0.739899,0.71619 1.35514,1.58919 2.219701,2.14858 1.726954,1.1174 3.935433,1.25912 5.901925,1.09809 4.257783,-0.34868 8.162394,-2.13674 11.799814,-4.25697 1.17557,-0.76775 2.38779,-1.4821 3.5267,-2.30323 1.95599,-1.41023 3.45854,-2.78168 5.1457,-4.4667 0.6949,-0.69402 1.90974,-2.00164 2.55042,-2.86741 0.19577,-0.26455 0.34623,-0.5598 0.51934,-0.83971 0.028,-0.0159 -0.1966,-0.41187 -0.2246,-0.39598 z" />
    <path
       style="fill:#000000;stroke-width:0.264583"
       id="path102"
       d="m 108.31236,112.95053 c 0.22076,-0.19383 0.47336,-0.35651 0.66228,-0.58148 1.51849,-1.80828 2.11163,-4.78673 0.17427,-6.62999 -0.51835,-0.49319 -1.33042,-0.52694 -1.99562,-0.7904 -0.78898,0.0649 -1.63163,-0.0985 -2.36694,0.19479 -1.72128,0.68657 -2.88499,2.25802 -2.94476,4.13758 -0.0406,1.27817 0.45669,2.51654 0.68504,3.77481 0.12884,0.18053 2.6819,-1.64152 2.55306,-1.82205 v 0 c -0.2438,-0.25758 -0.6207,-0.4358 -0.73139,-0.77275 -0.37988,-1.15636 -0.0101,-2.06123 0.91848,-2.78748 0.41728,-0.32637 0.96844,-0.42973 1.45266,-0.64459 0.36814,0.0353 0.74238,0.0304 1.10441,0.10598 0.16918,0.0353 0.40706,0.0606 0.46845,0.22221 0.48854,1.28581 -0.15564,3.82133 -0.3571,5.20262 -0.0276,0.0267 0.34953,0.41742 0.37716,0.39075 z" />
    <path
       style="fill:#000000;stroke-width:0.264583"
       id="path103"
       d="m 75.203886,113.10891 c 1.081749,0.84536 1.92995,2.20925 2.099027,3.59285 0.06704,0.54861 -0.65975,2.11044 -0.746602,2.33027 -0.414213,0.44438 -0.768585,0.95325 -1.242639,1.33316 -0.997016,0.799 -2.290638,1.40225 -3.568642,1.5601 -0.473247,0.0585 -2.476476,0.11215 -2.73613,-0.82945 -0.0819,-0.29702 0.44414,-0.42715 0.666207,-0.64073 0.557581,-0.57132 1.059797,-1.20249 1.672736,-1.71397 1.572731,-1.31238 4.38083,-3.04953 6.077172,-4.09918 2.769841,-1.7139 2.674414,-1.62484 5.260237,-3.05678 0.26185,-0.0797 -0.865148,-3.78282 -1.126998,-3.70313 v 0 c -1.113078,0.14055 -2.262045,0.10803 -3.339232,0.42166 -4.20909,1.2255 -8.042709,4.22202 -10.061067,8.15003 -0.568648,1.10667 -0.720212,2.38193 -1.080318,3.57289 0.355658,1.11229 0.412597,2.36967 1.066978,3.33686 0.448794,0.66332 1.279604,1.0247 2.044525,1.262 2.558783,0.79382 5.461164,-0.41237 7.224583,-2.26006 0.597037,-0.62558 0.971867,-1.43061 1.457798,-2.14592 0.17634,-0.76482 0.535567,-1.50961 0.529019,-2.29447 -0.01839,-2.20415 -1.238084,-4.69382 -3.568113,-5.15068 -0.189322,-0.0371 -0.385696,0.011 -0.578546,0.0165 -0.02249,-0.004 -0.07248,0.31447 -0.04999,0.31801 z" />
    <path
       style="fill:#000000;stroke-width:0.264583"
       id="path104"
       d="m 64.562211,121.49179 c -0.142628,0.14044 -0.263003,0.30784 -0.427886,0.42133 -1.203849,0.82865 -2.91482,1.43828 -4.290378,1.84502 -0.656354,0.19407 -1.307706,0.43991 -1.988251,0.51287 -0.669025,0.0717 -1.344567,-0.0556 -2.016852,-0.0835 -1.361935,-0.50669 -2.301489,-0.5758 -3.102494,-1.94052 -0.173858,-0.29621 -0.07847,-0.68601 -0.05712,-1.02881 0.04661,-0.74841 0.04658,-1.51571 0.260331,-2.23445 0.655326,-2.20348 1.690315,-3.27705 3.026659,-5.12373 2.578563,-3.03634 1.363699,-1.69239 3.880051,-4.3503 1.30792,-1.3815 0.742672,-0.87581 1.686732,-1.66418 0.09612,-0.004 0.0363,-1.36357 -0.05982,-1.35934 v 0 c -0.515853,-0.18029 -1.001255,-0.5282 -1.547558,-0.54086 -0.799404,-0.0185 -1.619491,0.1395 -2.356189,0.45041 -2.669508,1.12659 -3.426936,2.42111 -5.403442,4.52565 -1.638009,2.96711 -2.598775,3.93329 -2.871357,7.37574 -0.219593,2.77325 0.439521,4.51335 2.261775,6.64539 0.578856,0.67726 1.359615,1.18592 2.164324,1.56828 0.796951,0.37867 1.706141,0.45075 2.559214,0.67613 0.861919,-0.0623 1.738764,-0.0156 2.585759,-0.18701 2.338504,-0.47332 5.30542,-2.24064 6.018326,-4.68278 0.07468,-0.25581 -5.29e-4,-0.53298 -0.0011,-0.79946 0.0019,-0.0227 -0.319029,-0.0486 -0.320863,-0.0259 z" />
    <path
       style="fill:#000000;stroke-width:0.264583"
       id="path105"
       d="m 56.265945,133.46095 c 0.382963,0.24069 0.794914,0.47202 1.079161,0.83524 0.07865,0.10051 -0.164462,0.16295 -0.170048,0.1627 -0.184377,-0.008 -0.360092,-0.0812 -0.540141,-0.12177 -0.141007,0.1021 -2.186959,-0.72528 -0.871366,-0.81621 0.186404,-0.0129 0.373544,0.0107 0.560313,0.016 0.02606,0.0172 0.999453,0.19797 0.636136,0.39663 -0.07958,0.0435 -0.145415,0.1301 -0.235951,0.1355 -0.349665,0.0209 -0.568994,-0.23889 -0.815287,-0.42897 -0.134469,-0.15776 -0.268941,-0.31553 -0.403413,-0.47329 -0.05914,-0.0263 -0.430548,0.81008 -0.371408,0.83635 v 0 c 0.212846,0.14872 0.425696,0.29745 0.638545,0.44618 0.514107,0.12204 0.834419,0.31808 1.333116,7.9e-4 0.976964,-0.62136 -0.123867,-1.92624 -1.012676,-1.74319 -0.24328,0.0774 -0.509731,0.10278 -0.729835,0.2321 -0.292645,0.17194 -0.783699,0.68238 -0.646615,1.11167 0.16769,0.52514 0.791953,0.96186 1.305711,1.07142 0.267221,0.057 0.546364,-0.0102 0.819546,-0.0153 0.256382,-0.11768 0.925849,-0.30504 0.991074,-0.72232 0.03413,-0.21836 -0.06285,-0.44703 -0.168069,-0.6414 -0.27845,-0.51434 -0.858792,-0.64229 -1.385678,-0.60396 -0.02275,-0.001 -0.03586,0.32071 -0.01312,0.32164 z" />
  </g>
</svg>
