<?xml version="1.0" encoding="UTF-8" standalone="no"?>
<!-- Created with Inkscape (http://www.inkscape.org/) -->

<svg
   width="87.439583mm"
   height="38.127213mm"
   viewBox="0 0 87.439583 38.127213"
   version="1.1"
   id="svg1"
   xmlns:inkscape="http://www.inkscape.org/namespaces/inkscape"
   xmlns:sodipodi="http://sodipodi.sourceforge.net/DTD/sodipodi-0.dtd"
   xmlns="http://www.w3.org/2000/svg"
   xmlns:svg="http://www.w3.org/2000/svg">
  <sodipodi:namedview
     id="namedview1"
     pagecolor="#ffffff"
     bordercolor="#111111"
     borderopacity="1"
     inkscape:showpageshadow="0"
     inkscape:pageopacity="0"
     inkscape:pagecheckerboard="1"
     inkscape:deskcolor="#d1d1d1"
     inkscape:document-units="mm" />
  <defs
     id="defs1" />
  <g
     inkscape:label="Layer 1"
     inkscape:groupmode="layer"
     id="layer1"
     transform="translate(-101.83502,-173.30288)">
    <path
       style="fill:#000000;stroke-width:0.264583"
       id="path109"
       d="m 164.13768,191.52136 c -1.39909,1.92787 -2.2392,4.16513 -3.08558,6.37025 -0.70786,1.84419 -1.25303,3.33569 -1.93772,5.1871 -0.76953,1.75081 -2.18375,5.72252 -4.41356,6.20047 -1.12189,0.24047 -1.81913,-0.36753 -2.7365,-0.85611 -1.2005,-1.01776 -1.65929,-1.30749 -2.65279,-2.55597 -0.19489,-0.24491 -0.32246,-0.53665 -0.47616,-0.80931 -0.7369,-1.30721 -0.88317,-1.41657 -1.23991,-2.82082 -0.0956,-0.37629 -0.13203,-0.76519 -0.19804,-1.14779 0.0208,-0.44651 -0.0179,-0.97887 0.18751,-1.40665 0.0399,-0.0831 0.113,-0.21481 0.20164,-0.18938 0.32775,0.094 -0.051,0.74805 -0.0543,0.75721 -0.12263,0.34264 -0.23831,0.68773 -0.35746,1.03159 -0.69943,1.54194 -1.41024,3.08081 -2.19201,4.58325 -0.21544,0.41404 -0.86336,1.70488 -1.30443,2.10893 -0.12329,0.11295 -0.31561,0.11051 -0.47342,0.16576 -0.11814,-0.12338 -0.28849,-0.21254 -0.35443,-0.37012 -0.0603,-0.14401 0.019,-0.31299 0.004,-0.46834 -0.03,-0.30132 -0.0917,-0.59865 -0.13972,-0.89764 -0.10708,-0.66726 -0.0331,-1.05346 -0.61601,-1.49531 -0.20867,-0.15819 -0.48446,-0.19891 -0.72669,-0.29836 -1.00775,-0.0377 -2.02143,0.0805 -3.02756,-0.0263 -0.94604,-0.10045 -1.81678,-0.38298 -2.68787,-0.74355 -0.56182,-0.25442 -0.54239,-0.1912 -1.03216,0.0662 -0.19218,0.101 -0.39073,0.1894 -0.5864,0.28348 -1.18116,0.56796 -0.59965,0.30813 -1.92252,0.83809 -0.38757,0.0693 -0.76917,0.19591 -1.1627,0.20795 -1.1089,0.0339 -2.32664,-0.49053 -2.60132,-1.69316 -0.0611,-0.26762 0.10055,-0.54007 0.16685,-0.80646 0.13553,-0.54447 0.29227,-1.08345 0.4384,-1.62518 0.44109,-0.66975 0.84013,-1.36916 1.32325,-2.00925 1.82308,-2.41541 4.13072,-4.71271 6.20534,-6.92278 0.22781,-0.19564 -2.53897,-3.41741 -2.76678,-3.22176 v 0 c -0.86528,0.74734 -1.80866,1.41281 -2.59582,2.24202 -1.70212,1.79303 -3.03028,3.79852 -3.9286,6.10615 -0.37349,0.95941 -0.51965,1.99244 -0.77947,2.98866 -0.0175,0.79991 -0.20355,1.61399 -0.0526,2.39972 0.4881,2.54119 2.41599,4.6136 5.14328,4.21578 0.49584,-0.0723 0.94779,-0.32564 1.42169,-0.48846 0.91206,-0.69649 1.14412,-0.71215 1.68483,-1.67597 0.10821,-0.19288 0.15575,-0.41474 0.21297,-0.62837 0.0101,-0.0376 -0.0258,-0.15304 -0.0136,-0.11605 0.23045,0.69732 -0.11868,0.0766 0.52715,0.94628 0.27396,0.19706 0.52441,0.43182 0.82189,0.59118 1.66846,0.89378 3.70769,0.74291 5.20375,-0.41007 0.12433,-0.41137 -0.0336,0.10043 -0.041,0.21162 -0.0224,0.33837 -0.0497,0.68139 -0.003,1.01734 0.13723,0.99699 0.42901,1.67215 1.20061,2.38437 0.26088,0.2408 0.63045,0.32667 0.94567,0.49001 0.40571,-0.0169 0.82945,0.0702 1.21712,-0.0506 0.98105,-0.30569 1.82792,-1.20396 2.37643,-2.00912 1.11286,-1.63358 1.62747,-3.54231 1.70243,-5.4964 -0.15657,-1.07763 -0.0474,-1.64436 -0.82271,-2.45922 -0.59439,-0.62467 -1.51976,-0.0661 -1.89822,0.46903 -0.2231,0.31549 -0.3329,0.69744 -0.49936,1.04616 -0.0839,0.47495 -0.24314,0.94261 -0.25184,1.42484 -0.0546,3.02848 1.83693,5.84798 4.21989,7.57733 0.59307,0.4304 1.27262,0.72687 1.90893,1.09031 1.76217,0.46826 2.25285,0.81646 4.08798,0.45874 2.29483,-0.44733 4.14819,-2.10838 5.41684,-3.99494 0.52765,-0.78465 0.8943,-1.66632 1.34145,-2.49948 0.34259,-0.92423 0.74317,-1.82897 1.02775,-2.77266 0.28062,-0.93055 0.47746,-1.88532 0.66456,-2.83908 0.47844,-2.43889 0.80313,-4.98071 0.46287,-7.45804 0.0139,-0.0341 -0.46791,-0.23116 -0.48185,-0.19709 z" />
    <path
       style="fill:#000000;stroke-width:0.264583"
       id="path110"
       d="m 148.32075,187.91019 c 0.46837,0.0677 0.9319,0.19784 1.4051,0.20305 2.48275,0.0274 6.24616,-1.04099 7.24753,-3.62552 0.21235,-0.54807 0.086,-1.17238 0.12906,-1.75857 -0.4642,-0.66995 -0.76177,-1.49375 -1.39261,-2.00985 -0.65408,-0.53512 -1.49635,-0.82982 -2.31831,-1.02616 -2.90169,-0.69308 -6.33677,0.0235 -8.34689,2.37447 -0.6605,0.7725 -0.94683,1.79877 -1.42025,2.69816 -0.18736,2.8379 -0.61156,3.61973 0.71525,6.29531 0.62567,1.26168 1.56838,2.33952 2.35258,3.50928 0.20281,0.15527 2.3988,-2.71298 2.19598,-2.86826 v 0 c -1.3151,-1.60876 -2.31999,-3.08417 -2.58754,-5.21539 0.22425,-0.55227 0.29016,-1.19973 0.67276,-1.65679 0.44661,-0.53353 1.09163,-0.87959 1.7128,-1.19305 1.21739,-0.6143 3.11179,-1.06974 4.46337,-1.22683 0.5636,-0.0655 1.13564,0.006 1.70194,-0.0289 0.2463,-0.0153 0.48674,-0.0818 0.73012,-0.1227 -0.0319,0.21616 0.0397,0.47702 -0.0957,0.64849 -0.44871,0.56807 -2.23299,1.48941 -2.70399,1.74393 -1.53079,0.82723 -3.1508,1.51984 -4.55158,2.5679 -0.0489,0.006 0.0415,0.69782 0.0904,0.69143 z" />
    <path
       style="fill:#000000;stroke-width:0.264583"
       id="path111"
       d="m 188.81743,176.09589 c -0.30961,0.17809 -0.62649,0.34412 -0.92884,0.53428 -1.11332,0.70026 -2.17068,1.48668 -3.28063,2.19227 -0.8109,0.51549 -1.64405,0.99515 -2.46221,1.49906 -4.34677,2.67723 -1.03153,0.70298 -5.3842,3.2527 -1.27857,0.6305 -2.93546,1.57283 -4.39355,1.88407 -0.39275,0.0838 -0.88361,0.23783 -1.2048,-0.003 -0.24007,-0.18019 -0.16902,-0.65292 7.9e-4,-0.90052 0.27375,-0.39939 0.82858,-0.51119 1.18874,-0.83481 0.65856,-0.59176 1.23697,-1.26706 1.85545,-1.90058 1.70947,-1.58558 2.76896,-2.59094 4.50766,-4.1172 0.56023,-0.49178 1.11554,-0.99064 1.70306,-1.44949 0.27457,-0.21444 0.52993,-0.57054 0.8783,-0.56655 0.19403,0.002 0.0471,0.43541 -0.087,0.5756 -0.32956,0.34435 -0.80216,0.51505 -1.20324,0.77258 -0.66048,0.57482 -1.29305,1.18339 -1.98144,1.72447 -2.91172,2.28865 -6.68246,4.78681 -10.44743,5.26005 -0.53529,0.0673 -1.0787,-0.0259 -1.61804,-0.0388 -0.19398,-0.0152 -0.40888,2.72807 -0.2149,2.74326 v 0 c 0.81926,0.29404 1.59765,0.74869 2.45779,0.88211 4.98922,0.77387 10.05355,-2.19357 12.74141,-6.28033 0.62513,-0.95048 0.93414,-2.07466 1.40122,-3.11199 -0.0288,-1.0148 0.19116,-2.0679 -0.0865,-3.04439 -0.17053,-0.59968 -0.64523,-1.13942 -1.18961,-1.4433 -0.62644,-0.34968 -1.40126,-0.47774 -2.11458,-0.4011 -1.99479,0.21431 -4.09915,1.67719 -5.45325,2.99875 -0.88694,0.86564 -1.54991,1.93438 -2.32487,2.90156 -1.21923,2.65922 -2.16163,3.56661 -1.4773,6.64377 0.15873,0.71373 0.63052,1.37848 1.20155,1.83514 1.32391,1.05876 3.38682,0.99514 4.89487,0.69015 1.0477,-0.21189 2.02366,-0.68926 3.0355,-1.03388 0.99207,-0.57372 2.03247,-1.071 2.97623,-1.72114 2.75857,-1.90033 5.63888,-4.94999 7.07801,-8.02787 0.16886,-0.36114 0.25855,-0.75426 0.38783,-1.13139 0.0271,-0.0322 -0.42876,-0.41552 -0.45586,-0.38328 z" />
    <path
       style="fill:#000000;stroke-width:0.264583"
       id="path112"
       d="m 124.26107,186.3626 c 0.10673,-0.004 0.2208,-0.0499 0.32017,-0.0108 0.7883,0.31021 1.35003,1.57106 1.29845,2.34531 -0.0224,0.33603 -0.27236,0.61761 -0.44234,0.90834 -0.3337,0.57077 -0.711,1.11491 -1.0665,1.67236 -2.29916,2.68863 -5.32881,4.45305 -8.39223,6.11682 -0.2182,0.0821 0.94242,3.1679 1.16062,3.08583 v 0 c 0.92313,-0.20972 1.8902,-0.27821 2.7694,-0.62917 2.11019,-0.84235 4.06544,-2.31275 5.47714,-4.08987 0.69505,-0.87498 1.13213,-1.92693 1.6982,-2.8904 0.21533,-0.92936 0.63872,-1.83412 0.64601,-2.78807 0.007,-0.9041 -0.25856,-1.80884 -0.60449,-2.64417 -0.39406,-0.95153 -1.6564,-1.86229 -2.72938,-1.5417 -0.14857,0.0444 -0.23993,0.19651 -0.35989,0.29476 -0.0121,0.0159 0.21277,0.18666 0.22484,0.17076 z" />
    <path
       style="fill:#000000;stroke-width:0.264583"
       id="path113"
       d="m 120.67574,188.36771 c -0.35468,-0.12211 -0.69414,-0.30402 -1.06404,-0.36632 -2.52059,-0.42455 -5.762,0.31172 -7.55116,2.24228 -0.40286,0.4347 -0.62692,1.00598 -0.94039,1.50897 -0.13606,0.5922 -0.35571,1.17123 -0.4082,1.77658 -0.009,0.10291 0.19748,3.8643 0.19808,3.88979 0.0324,1.38614 0.0419,2.64311 -0.30427,3.99811 -0.14184,0.55516 -0.4104,1.06999 -0.6156,1.60498 -0.56251,0.6619 -0.99908,1.51462 -2.02346,1.54101 -1.52525,0.0393 -2.8536,-1.8359 -3.01434,-3.16499 -0.0567,-0.4685 0.23162,-0.91496 0.34742,-1.37244 0.25963,-0.90858 0.40067,-1.85978 0.77889,-2.72574 1.16564,-2.66878 2.96301,-4.81525 4.63371,-7.17184 2.12385,-2.9958 3.73713,-5.24632 5.62783,-8.37692 0.70824,-1.17271 1.33895,-2.39054 2.00842,-3.58581 0.27294,-0.26981 -3.54277,-4.12969 -3.81571,-3.85988 v 0 c -1.00798,0.98052 -2.0814,1.89799 -3.02396,2.94155 -4.56726,5.05664 -8.57649,11.74181 -9.57074,18.58412 -0.18648,1.2833 -0.0574,2.59291 -0.0861,3.88937 0.44625,1.26303 0.72366,2.5991 1.33873,3.78909 1.3286,2.57045 4.74798,3.87376 7.33575,2.42347 0.61766,-0.34616 1.07873,-0.91744 1.6181,-1.37617 1.10465,-1.95237 1.44781,-2.0658 1.60815,-4.40827 0.12272,-1.793 -0.20486,-2.80943 -0.70914,-4.47288 -0.15221,-0.50207 -0.39318,-0.97728 -0.51209,-1.48825 -0.0869,-0.37348 -0.0673,-0.76395 -0.10088,-1.14593 0.23103,-0.25155 0.41163,-0.56118 0.69309,-0.75466 0.42359,-0.29119 0.91661,-0.46656 1.3865,-0.67492 0.61726,-0.27372 3.05755,-1.23023 3.65222,-1.50393 0.52169,-0.24012 1.02234,-0.5236 1.53051,-0.79113 0.31293,-0.16474 0.62179,-0.33709 0.93269,-0.50564 0.0314,0.004 0.0813,-0.44007 0.0499,-0.4436 z" />
  </g>
</svg>
