<?xml version="1.0" encoding="UTF-8" standalone="no"?>
<!-- Created with Inkscape (http://www.inkscape.org/) -->

<svg
   width="210mm"
   height="297mm"
   viewBox="0 0 210 297"
   version="1.1"
   id="svg1"
   xmlns:inkscape="http://www.inkscape.org/namespaces/inkscape"
   xmlns:sodipodi="http://sodipodi.sourceforge.net/DTD/sodipodi-0.dtd"
   xmlns="http://www.w3.org/2000/svg"
   xmlns:svg="http://www.w3.org/2000/svg">
  <sodipodi:namedview
     id="namedview1"
     pagecolor="#ffffff"
     bordercolor="#111111"
     borderopacity="1"
     inkscape:showpageshadow="0"
     inkscape:pageopacity="0"
     inkscape:pagecheckerboard="1"
     inkscape:deskcolor="#d1d1d1"
     inkscape:document-units="mm" />
  <defs
     id="defs1" />
  <g
     inkscape:label="Layer 1"
     inkscape:groupmode="layer"
     id="layer1">
    <rect
       style="fill:#000000;stroke-width:0.32323"
       id="rect1"
       width="170.61932"
       height="170.61932"
       x="17.670658"
       y="53.594212" />
    <circle
       id="path1"
       style="fill:#ffffff;stroke:#000000;stroke-width:0.264583"
       cx="2.7171586"
       cy="117.38126"
       r="0.072384581" />
    <g
       id="g8"
       transform="translate(13.626063,-5.5969042)">
      <path
         style="fill:#ffffff;stroke-width:0.264583"
         id="path2"
         d="m 142.84152,96.338836 c -0.81098,2.314945 -0.5271,4.829044 -0.56234,7.233984 -0.0112,0.76424 -0.0531,1.52771 -0.0797,2.29157 -0.0632,0.8166 -0.13027,1.6329 -0.18949,2.44979 -0.0586,0.80874 -0.10111,1.61862 -0.16404,2.42703 -0.14407,1.85068 -0.38331,3.70714 -0.22439,5.56767 0.0261,0.30559 0.10204,0.60487 0.15307,0.9073 0.249,0.35472 0.22776,0.17699 0.1714,0.50889 -0.0884,0.001 -0.0718,1.25074 0.0165,1.24957 v 0 c 1.68829,0.54671 0.84203,0.5352 2.53868,0.0411 0.36756,-0.26668 0.78668,-0.47389 1.10266,-0.80002 0.82064,-0.84699 1.45332,-2.17085 1.81413,-3.252 0.25827,-0.77388 0.43345,-1.57481 0.58726,-2.37602 0.51809,-2.6988 0.39207,-2.80631 0.41687,-5.57575 -0.0899,-0.89302 -0.14039,-1.79088 -0.26968,-2.67904 -0.17027,-1.16964 -0.58882,-3.00596 -0.9724,-4.16683 -0.37591,-1.137657 -0.91091,-2.234561 -1.35864,-3.34507 0.0341,-0.210715 -2.94586,-0.692928 -2.97996,-0.482214 z" />
      <path
         style="fill:#ffffff;stroke-width:0.264583"
         id="path3"
         d="m 132.47435,97.056362 c -0.14219,-0.0236 -0.34807,-0.191709 -0.42656,-0.07082 -0.33931,0.522565 -0.68829,2.975895 -0.73016,3.326418 -0.32403,2.71274 -0.26336,5.41473 -0.18312,8.13778 0.0747,1.6863 0.39526,3.34731 0.54039,5.02605 0.032,0.36992 0.32936,1.87424 -0.34105,2.27026 -0.46462,0.27447 -2.51083,0.0135 -2.72657,-0.003 -2.05413,-0.41639 -4.90785,-0.76858 -6.38353,-2.46551 -0.73101,-0.8406 -0.75551,-1.43301 -1.01883,-2.4626 0.0691,0.0959 0.16516,0.39809 0.20732,0.28767 0.13267,-0.34752 -0.003,-0.75542 0.10695,-1.11082 0.30771,-0.9956 1.25347,-1.72019 2.30212,-1.68579 0.32258,0.0106 0.62445,0.16354 0.93667,0.2453 0.26514,0.32679 1.22879,1.14364 0.35974,1.71596 -0.26578,0.17504 -0.62533,-0.40352 -0.91514,-0.27204 -0.684,0.31034 -1.07001,1.07553 -1.71268,1.46429 -2.00558,1.21323 -5.61254,2.42909 -7.66131,3.19861 -1.69379,0.47928 -3.35828,1.0779 -5.08138,1.43785 -7.49508,1.56568 -15.939939,1.32375 -23.308863,-0.76301 -1.481817,-0.41962 -2.893488,-1.05603 -4.340233,-1.58405 -1.368006,-1.2167 -3.820149,-2.29995 -2.281891,-4.77515 0.348782,-0.56122 1.356696,-0.1881 1.900577,-0.56335 1.250037,-0.86246 2.116724,-2.20696 3.366105,-3.07037 3.874614,-2.67763 5.226709,-2.58182 9.724941,-3.70903 1.675796,0.0304 3.373858,-0.18284 5.02739,0.0911 3.048164,0.505 5.411174,1.63057 7.153524,4.25186 1.79112,2.69466 1.45315,4.53281 1.58268,7.56996 0.20994,0.50541 7.35761,-2.46348 7.14768,-2.9689 v 0 c -0.21828,-2.08151 -0.0439,-4.24276 -0.65484,-6.24454 -2.15366,-7.056639 -7.93445,-11.716663 -15.125539,-12.975098 -2.459916,-0.430485 -4.994399,-0.04474 -7.491598,-0.06711 -6.331926,2.035648 -8.277571,1.872236 -13.239858,6.562447 -1.699929,1.606722 -3.383545,3.388331 -4.31446,5.534181 -2.137711,4.92765 -2.780739,9.94514 -0.386641,14.80812 0.941964,1.91335 2.617227,3.36794 3.92584,5.0519 1.98142,1.19777 3.805314,2.70697 5.944256,3.59331 2.317181,0.96019 4.803622,1.51523 7.283984,1.88822 7.142255,1.07405 14.802386,-0.0264 21.494226,-2.65202 1.98389,-0.7784 3.82536,-1.87979 5.73805,-2.81968 1.57509,-1.17971 3.28177,-2.20161 4.72527,-3.53912 1.65513,-1.53358 4.566,-5.03285 5.08442,-7.53377 0.31218,-1.50605 0.28762,-3.11121 -0.0398,-4.61403 -0.18996,-0.8719 -0.80403,-1.63679 -1.45502,-2.24712 -0.58382,-0.54735 -1.41854,-0.74127 -2.1278,-1.1119 -0.76625,-0.0674 -1.53343,-0.27976 -2.29873,-0.20232 -2.34428,0.23721 -4.38368,1.80719 -5.37765,3.90979 -0.32415,0.68571 -0.61677,1.43019 -0.62233,2.18863 -0.009,1.26008 0.38594,2.4905 0.57891,3.73575 0.33498,0.71298 0.58338,1.47347 1.00494,2.13893 1.85374,2.92628 5.13018,4.76023 8.55054,5.06225 0.92431,0.0816 1.85534,-0.0416 2.78301,-0.0623 2.32649,-0.63263 3.07308,-0.55488 4.95519,-2.18296 2.6552,-2.29682 2.79086,-5.68036 2.84479,-8.91291 -0.0556,-0.98274 -0.0747,-1.96822 -0.16689,-2.9482 -0.2393,-2.54347 -0.70212,-5.14314 -1.49346,-7.577893 -0.17733,-0.545587 -0.43969,-1.060297 -0.63254,-1.600589 -0.20481,-0.573781 -0.37322,-1.159912 -0.55982,-1.739868 -0.0735,-0.153527 -2.2447,0.885454 -2.17123,1.038984 z" />
      <path
         style="fill:#ffffff;stroke-width:0.264583"
         id="path4"
         d="m 122.08844,88.353804 c 0.55411,0.450649 -0.57324,-0.450287 -0.42912,-0.338738 0.0912,0.07056 0.24832,0.101891 0.27094,0.214934 0.0675,0.337336 -0.10636,0.698465 -0.0215,1.031848 0.0406,0.159406 0.70775,0.351198 0.93294,0.43002 0.31128,0.142216 0.77997,0.27137 0.97089,0.61628 0.0444,0.08026 0.0442,0.352574 -0.005,0.27517 -0.58317,-0.91675 0.11714,-0.703488 -0.82505,-0.780521 -0.18047,-0.06466 -0.53293,-0.09121 -0.54261,-0.382847 -0.003,-0.09344 0.0613,-0.327742 0.11882,-0.254066 0.72092,0.922867 -0.27855,0.736171 0.77994,0.601178 0.13627,0.05557 0.50546,0.125386 0.47937,0.38716 -0.01,0.09659 -0.12572,0.294031 -0.18965,0.220988 -0.17138,-0.195816 -0.0976,-0.533197 -0.2609,-0.735772 -0.057,-0.07065 -0.16677,0.07362 -0.25462,0.09637 -0.13647,0.03534 -0.27719,0.0515 -0.41579,0.07725 -0.14241,-0.0078 -0.28677,0.0016 -0.42724,-0.02323 -0.0885,-0.01556 -0.17514,-0.0493 -0.2518,-0.09615 -0.0387,-0.02363 0.11967,-0.01905 0.13375,0.024 0.11149,0.340685 0.13286,0.704876 0.21865,1.05292 0.0238,0.09668 0.0344,0.212513 0.1094,0.277968 0.13153,0.11474 0.31411,0.152308 0.47117,0.228463 0.45335,0.243885 0.68566,0.350652 1.10088,0.641138 0.0376,0.0263 0.10197,0.144965 0.0949,0.09966 -0.007,-0.04755 -0.15233,-1.162386 -0.42164,-1.322502 -0.18188,-0.10814 -0.4013,-0.1344 -0.60195,-0.201599 -0.75499,-0.231674 -0.72705,-0.203181 -1.43177,-0.493136 -0.11221,-0.04617 -0.21274,-0.123557 -0.33064,-0.152262 -0.0384,-0.0094 0.0746,0.05096 0.0768,0.09047 0.0493,0.895192 0.0489,0.802021 -0.0795,1.366078 0.0373,0.068 0.25818,0.434534 0.24074,0.538237 -0.009,0.05495 -0.13742,0.129379 -0.14943,0.07496 -0.17473,-0.791924 0.21824,-1.202409 -0.31422,-0.557799 -0.0789,-0.0037 -0.13149,1.112512 -0.0526,1.116229 v 0 c 0.29021,0.130315 0.55252,0.393332 0.87065,0.390943 1.88513,-0.01416 1.97075,-2.841149 0.27431,-3.586102 -0.30727,-0.134929 -0.65914,-0.126534 -0.98871,-0.189801 -0.35899,0.120716 -0.84284,0.06445 -1.07696,0.362148 -0.91753,1.166675 -0.46685,2.616864 0.65184,3.350583 0.85616,0.561528 1.43665,0.497658 2.41954,0.600197 0.73038,-0.160848 2.07964,-0.263239 2.46908,-1.148985 0.67402,-1.533001 -0.0586,-2.937513 -1.48819,-3.467589 -0.38499,-0.142748 -0.80642,-0.155081 -1.20963,-0.232619 -0.6487,0.102192 -1.89031,0.127934 -2.26269,0.903523 -0.69356,1.444582 0.0582,2.771999 1.50464,3.04814 0.38727,0.07394 0.78853,-0.0038 1.1828,-0.0057 0.77529,-0.315643 1.82623,-0.552331 2.15982,-1.505109 0.57463,-1.641208 0.0783,-3.325387 -1.6724,-3.805783 -0.42332,-0.11616 -0.87733,-0.0327 -1.316,-0.04905 -0.77019,0.331708 -1.82444,0.576324 -2.10849,1.565442 -0.47544,1.655543 0.13489,3.297288 1.84465,3.768108 0.40469,0.11144 0.83923,0.0217 1.25884,0.03254 0.76105,-0.306379 1.83149,-0.527526 2.11409,-1.507117 0.44294,-1.535364 -0.20228,-2.956462 -1.61561,-3.573917 -0.33686,-0.147164 -0.71724,-0.161497 -1.07586,-0.242245 -0.51631,0.03102 -1.52958,-0.03214 -1.93548,0.471996 -0.64475,0.800796 -0.81148,1.364609 -0.17658,2.01618 0.12828,0.131646 0.306,0.219062 0.48433,0.263639 0.15948,0.03987 0.32852,-0.01291 0.49279,-0.01939 0.1105,0.0145 0.31556,-1.548267 0.20505,-1.562767 z" />
    </g>
    <g
       id="g7"
       transform="translate(-41.726914,-5.0605365)">
      <path
         style="fill:#ffffff;stroke-width:0.264583"
         id="path5"
         d="m 139.08035,142.73852 c -0.69644,0.27795 -1.83816,1.11263 -1.78815,1.96998 0.0334,0.57288 -0.004,1.24803 0.37362,1.68054 0.31743,0.36399 0.93599,0.23859 1.40399,0.35789 0.35521,-0.13897 0.74103,-0.21659 1.06563,-0.41689 0.47208,-0.29131 1.07123,-1.02824 1.27641,-1.54581 0.10069,-0.25397 0.21634,-0.55017 0.12973,-0.80928 -0.19826,-0.59316 -0.35599,-1.40519 -0.94249,-1.62237 -0.59226,-0.2193 -1.19608,0.40603 -1.79412,0.60904 -0.37123,0.28449 -0.75563,0.55256 -1.11368,0.85346 -1.55219,1.30444 -3.41018,3.4553 -5.69963,3.11718 -0.45817,-0.0677 -0.85803,-0.34898 -1.28705,-0.52347 -0.77181,-1.0476 -1.12675,-1.30055 -1.38798,-2.66478 -0.0157,-0.0818 0.24855,0.0478 0.24731,-0.0354 -0.008,-0.5366 -0.21298,-1.05346 -0.27141,-1.58692 -0.0782,-0.71405 -0.0695,-1.90997 -0.0736,-2.66572 -0.37215,0.21867 0.2214,-0.98734 -0.12761,-1.06507 -0.72037,-0.16042 -0.7394,0.7096 -1.52313,-0.11753 -0.65861,-0.69508 -0.47892,-0.79626 -0.1696,-1.07864 -0.10685,-0.31357 0.82205,-0.28237 0.66214,-0.61602 -0.008,-0.0168 -0.45214,-0.47951 -0.45316,-0.48086 -0.0655,-0.087 -0.10884,-0.18857 -0.16325,-0.28286 -0.29411,-0.19562 -0.37846,-0.56084 -0.61337,-0.80175 -0.89437,-0.91721 -2.18629,-1.3587 -3.43428,-1.49503 -0.76596,-0.0837 -1.54069,-0.0325 -2.31103,-0.0488 -1.11309,0.11288 -2.23939,0.13377 -3.33927,0.33864 -6.53705,1.21764 -13.84523,4.66053 -17.9276,10.06997 -1.035436,1.37203 -1.632873,3.02524 -2.449309,4.53786 -0.358592,5.14766 -1.273328,6.29342 2.802019,11.055 1.14197,1.33428 2.87483,2.0773 4.50329,2.73496 3.05608,1.23421 6.86613,1.57303 10.09428,0.85895 1.44479,-0.3196 2.73967,-1.11914 4.1095,-1.67871 0.91196,-0.99436 2.10039,-1.79289 2.73588,-2.98309 1.80091,-3.37289 0.74871,-6.44197 -1.24466,-9.59188 -0.83284,-1.31605 -2.17667,-2.25604 -3.45587,-3.14446 -3.5136,-2.44022 -4.96403,-2.41305 -9.01706,-3.42618 -1.64481,-0.0717 -3.29022,-0.29966 -4.93443,-0.21519 -5.393366,0.27707 -11.84963,2.50356 -14.756094,7.42502 -0.734256,1.2433 -1.081831,2.67756 -1.622748,4.01634 -0.191796,1.61165 -0.500822,3.21365 -0.575386,4.83496 -0.162513,3.53357 0.225398,8.30095 0.769672,11.74302 0.577432,3.65176 1.376678,7.26511 2.027873,10.90443 1.801392,10.06737 0.279657,3.87267 2.967426,13.25123 1.453682,3.30508 2.389601,6.44805 5.026144,9.03979 0.79792,0.78436 1.910644,1.16491 2.865964,1.74736 0.191278,0.27088 4.022059,-2.43418 3.830779,-2.70506 v 0 c 0.24779,-1.29318 0.64118,-2.56681 0.74337,-3.87955 0.26086,-3.35111 -0.33802,-7.41096 -0.67714,-10.6733 -1.10394,-6.81712 -0.97715,-7.25376 -2.9059,-14.0443 -0.27402,-0.96474 -0.690222,-1.88335 -1.046928,-2.82067 -0.795697,-2.09086 -1.525497,-4.20895 -2.410222,-6.26372 -0.003,-0.007 -3.565742,-7.2832 -3.995607,-8.16113 -0.138764,-0.65915 -0.57091,-1.32184 -0.416291,-1.97744 0.310113,-1.31492 2.680243,-2.23232 3.557731,-2.55774 3.334427,-1.23662 6.837377,-1.60418 10.369977,-1.32349 2.92399,0.58159 4.19036,0.6866 6.94337,1.79766 0.85455,0.34489 1.54903,1.13394 2.46231,1.25695 0.45817,0.0617 0.69144,-0.78214 1.15359,-0.76992 0.34971,0.009 0.76189,0.48384 0.65775,0.81781 -0.12858,0.41235 -0.74491,0.43743 -1.11737,0.65614 -0.91437,0.12183 -1.82307,0.29869 -2.74309,0.36548 -1.99175,0.14459 -5.19755,0.14246 -7.1932,-0.0789 -0.89565,-0.0993 -1.777,-0.71853 -2.65434,-0.5128 -0.50685,0.11885 -0.30145,1.33465 -0.822,1.32796 -0.44611,-0.006 0.009,-0.89223 0.0137,-1.33835 0.71454,-0.79534 1.37163,-1.64633 2.14362,-2.38603 1.11383,-1.06724 2.32873,-2.0238 3.5029,-3.02426 1.3193,-1.12412 2.63069,-2.25821 3.97739,-3.34934 3.00533,-2.435 6.14898,-4.69357 9.21197,-7.05386 0.40541,-0.22027 1.92185,-1.25376 2.60258,-1.0015 0.31716,0.11753 0.74484,0.82338 1.06327,1.00463 0.7111,0.53278 1.68744,1.15994 2.63387,0.82636 0.27316,-0.0963 0.49702,-0.2975 0.74553,-0.44625 0.10164,-0.15769 0.29756,-0.28561 0.30492,-0.47307 0.045,-1.14477 -0.0593,-1.79724 -1.25515,-2.05505 -0.49946,-0.10768 -1.37396,0.2071 -1.77823,0.51765 -0.31526,0.24218 -0.56288,0.56152 -0.84433,0.84228 -0.26081,0.48297 -0.5957,0.93277 -0.78244,1.44892 -0.23312,0.64435 -0.38727,1.32146 -0.46612,2.00213 -0.29937,2.58426 0.0799,4.0308 1.34915,6.58648 0.41569,0.83701 1.04337,1.57695 1.74459,2.19476 0.72951,0.64274 1.65548,1.02011 2.48322,1.53017 0.93475,0.18016 1.85237,0.52937 2.80426,0.54048 2.8266,0.033 5.37209,-1.35662 6.98096,-3.63939 0.39976,-0.5672 0.6694,-1.22203 0.90531,-1.87462 0.17126,-0.47378 0.20483,-0.98652 0.30724,-1.47978 -2.08087,-1.01063 -0.22087,0.1605 -1.88428,-2.0695 -0.0581,-0.0779 -0.13789,0.14079 -0.18327,0.22671 -0.005,0.009 -0.42188,1.01185 -0.42905,1.06058 -0.0177,0.12027 0.0477,0.2384 0.0715,0.35759 1.21611,0.798 0.4254,0.0202 0.84233,1.65367 0.0221,0.0866 0.0736,-0.16301 0.10497,-0.2467 0.2001,-0.53424 0.42601,-1.06224 0.56139,-1.61723 0.10185,-0.0745 -0.95169,-1.51489 -1.05354,-1.44039 z" />
      <path
         style="fill:#ffffff;stroke-width:0.264583"
         id="path6"
         d="m 148.90767,176.27689 c -0.33831,-0.41161 0.4859,0.539 0.44927,0.35226 -0.15216,-0.77554 -0.25325,-1.58235 -0.5944,-2.29525 -0.1243,-0.25975 -0.46484,-0.34761 -0.72716,-0.46636 -0.52747,-0.23879 -1.07874,-0.42309 -1.62984,-0.60067 -0.93616,-0.30165 -1.88647,-0.55753 -2.8297,-0.8363 -1.30043,-0.23628 -2.58984,-0.54434 -3.90128,-0.70883 -1.57971,-0.19814 -3.17056,-0.31234 -4.76131,-0.37768 -3.9708,-0.16309 -6.7678,-0.10806 -10.70318,0.51972 -4.0154,0.64055 -5.47249,1.24725 -9.22433,2.44061 -1.06592,0.52314 -2.13184,1.04628 -3.19776,1.56941 -0.3642,0.0294 0.0507,5.1798 0.41495,5.15046 v 0 c 1.14681,0.3219 2.29363,0.64381 3.44045,0.96571 4.13392,0.43883 5.37881,0.70922 9.631,0.57093 4.16685,-0.13551 6.46282,-0.5439 10.54537,-1.27658 1.53294,-0.27511 3.06785,-0.54711 4.58501,-0.899 1.28776,-0.29869 2.54929,-0.70093 3.82393,-1.05139 1.3845,-0.55587 2.96903,-1.10891 4.29025,-1.87326 0.31106,-0.17996 0.79234,-0.28328 0.87223,-0.63366 0.17824,-0.78165 -0.0448,-1.60824 -0.18085,-2.39833 -0.0408,-0.23699 -0.82668,0.88118 -0.59339,0.41031 -0.10167,0.0206 0.18907,1.45846 0.29074,1.4379 z" />
      <path
         style="fill:#ffffff;stroke-width:0.264583"
         id="path7"
         d="m 138.08803,143.29687 c 0.21493,-0.594 -0.0776,-1.65625 0.0608,-2.18852 0.0222,-0.0854 0.24465,0.0737 0.26425,-0.0123 0.0949,-0.41619 0.002,-0.85432 0.0304,-1.28027 0.0307,-0.46289 0.0974,-0.92268 0.14606,-1.38402 0.26438,-1.38979 0.44524,-2.80617 0.82251,-4.17288 0.097,-0.35124 0.35308,-1.17309 0.64337,-1.50173 0.0761,-0.0862 0.20833,-0.0975 0.3125,-0.14627 0.83093,0.20194 1.77605,0.74834 2.02909,1.6381 0.0751,0.26395 0.19386,0.59122 0.0454,0.822 -0.0939,0.14592 -0.34082,-0.0653 -0.51123,-0.0979 -0.5538,1.50211 -0.46416,1.40111 -1.30314,2.96716 -0.34953,0.65243 -0.85739,1.22934 -1.10121,1.92819 -0.28896,0.82824 -0.16247,1.76865 -0.47456,2.58845 -0.17009,0.4468 -2.10623,3.17349 -2.4362,3.64611 -0.17074,0.15275 1.98944,2.56726 2.16017,2.41451 v 0 c 4.9541,-4.8401 -1.66076,1.82971 3.2031,-3.81704 0.57909,-0.6723 1.43634,-1.09536 1.93167,-1.83155 0.49213,-0.73144 0.68432,-1.62707 0.95901,-2.46477 0.71312,-2.17468 0.62473,-2.36909 0.86626,-4.56221 -0.20165,-1.00121 -0.29327,-2.03103 -0.60496,-3.00362 -0.16357,-0.51042 -0.47378,-0.97032 -0.8039,-1.39258 -0.88299,-1.12949 -2.22615,-1.80183 -3.64779,-1.89421 -0.45328,-0.0294 -0.90685,0.0543 -1.36028,0.0814 -1.13817,0.40554 -1.48265,0.38916 -2.36965,1.24903 -1.68817,1.63657 -2.17686,4.00044 -2.38391,6.24442 0.0324,1.50478 -0.0383,1.91069 0.27865,3.33986 0.27433,1.23718 0.52491,2.78599 1.53322,3.72417 0.11681,0.10869 0.27454,0.16266 0.41181,0.24399 0.0804,0.0918 1.37899,-1.04569 1.29855,-1.13751 z" />
    </g>
  </g>
</svg>
