<?xml version="1.0" encoding="UTF-8" standalone="no"?>
<!-- Created with Inkscape (http://www.inkscape.org/) -->

<svg
   width="323.93732mm"
   height="181.02107mm"
   viewBox="0 0 323.93732 181.02107"
   version="1.1"
   id="svg1"
   xmlns:inkscape="http://www.inkscape.org/namespaces/inkscape"
   xmlns:sodipodi="http://sodipodi.sourceforge.net/DTD/sodipodi-0.dtd"
   xmlns="http://www.w3.org/2000/svg"
   xmlns:svg="http://www.w3.org/2000/svg">
  <sodipodi:namedview
     id="namedview1"
     pagecolor="#ffffff"
     bordercolor="#111111"
     borderopacity="1"
     inkscape:showpageshadow="0"
     inkscape:pageopacity="0"
     inkscape:pagecheckerboard="1"
     inkscape:deskcolor="#d1d1d1"
     inkscape:document-units="mm" />
  <defs
     id="defs1" />
  <g
     inkscape:label="Layer 1"
     inkscape:groupmode="layer"
     id="layer1"
     transform="translate(136.50949,-19.831533)">
    <path
       style="fill:#000000;stroke-width:0.264583"
       id="path4"
       d="m 178.16378,46.664329 c -3.79512,0.170167 -7.52745,0.923145 -11.25677,1.589201 -1.23921,0.221324 -2.48126,0.426443 -3.72188,0.639665 -1.02763,0.185655 -5.48326,1.019955 -6.69102,1.132798 -1.32885,0.124155 -2.83988,0.211902 -4.05698,-0.51471 -1.19298,-0.712211 -1.30376,-1.625547 -1.79394,-2.834548 0.0227,-0.301035 0.0841,-0.601646 0.068,-0.903105 -0.15339,-2.873872 -0.52802,-2.080656 0.0343,-5.052186 0.50926,-2.691181 1.71117,-5.112028 2.87664,-7.559665 0.30695,-0.610412 0.62029,-1.217652 0.92085,-1.831234 0.20533,-0.419177 0.41782,-0.835673 0.59672,-1.266796 0.0672,-0.162028 0.30811,-0.458896 0.13953,-0.507439 -0.39972,-0.11511 -0.85331,0.362561 -1.23295,0.192561 -2.06094,-0.922856 -0.85018,-2.320486 -1.9387,-0.441116 -1.39387,2.421832 -2.54239,4.976347 -3.97923,7.374919 -1.28669,2.147917 -3.08905,4.818833 -4.67764,6.744552 -0.84644,1.026081 -1.79843,1.960324 -2.69764,2.940487 -2.05155,1.632799 -3.06165,2.771306 -5.56253,3.576219 -1.86754,0.601073 -3.44944,0.38173 -5.35589,0.317042 -0.27872,-0.0502 -0.98867,3.891455 -0.70995,3.941657 v 0 c 1.30868,0.524095 2.5383,1.324295 3.92603,1.572284 2.79499,0.499464 6.04906,-0.303147 8.53197,-1.527485 1.40752,-0.694052 2.61832,-1.73079 3.92748,-2.596187 1.13954,-1.16731 2.38897,-2.236628 3.41861,-3.501932 3.41326,-4.194498 5.6501,-9.572038 6.72066,-14.844151 0.15781,-0.777158 0.23978,-1.56781 0.35967,-2.351712 0.14689,-1.699358 0.52907,-2.887435 -1.14089,-4.379476 -0.44801,-0.400281 -1.2087,-0.127563 -1.80204,-0.0333 -1.53747,0.244263 -3.12574,2.372752 -4.00269,3.39372 -1.3763,2.167898 -2.11823,3.106285 -3.04923,5.5884 -1.17595,3.135132 -1.88344,7.339055 -0.95961,10.634678 0.42708,1.523497 1.20852,2.92459 1.81278,4.386887 1.74206,2.109229 2.03721,2.916732 4.51349,4.180202 4.18478,2.135193 9.04367,1.366049 13.4524,0.621932 1.2954,-0.325673 2.60096,-0.613328 3.88621,-0.977016 3.41989,-0.967735 6.9607,-2.230985 9.94282,-4.216447 0.25636,-0.17068 0.4798,-0.386255 0.71971,-0.57938 0.20572,-0.08615 -1.0126,-2.995469 -1.21832,-2.909321 z" />
    <path
       style="fill:#000000;stroke-width:0.264583"
       id="path5"
       d="m 140.27446,23.440666 c -0.20472,0.197361 -0.43299,0.372913 -0.61417,0.592084 -0.31616,0.382444 -0.59235,0.796574 -0.87243,1.206179 -0.92801,1.35718 -1.85706,2.782912 -2.52896,4.286816 -0.44167,0.988611 -0.75208,2.030781 -1.12813,3.046172 -0.20272,0.320863 4.33499,3.187782 4.53771,2.866917 v 0 c 0.43865,-0.947106 0.92114,-1.87511 1.31593,-2.841316 0.96226,-2.354995 1.69801,-4.8701 1.9684,-7.403579 0.12398,-0.189388 -2.55437,-1.942661 -2.67835,-1.753273 z" />
    <path
       style="fill:#000000;stroke-width:0.264583"
       id="path6"
       d="m 129.60432,27.183056 c 0.26069,-0.371348 0.0541,-0.87182 0.23933,-1.25545 0.0322,-0.06664 0.13889,0.177546 0.18632,0.120737 0.14871,-0.17811 0.15484,-0.438317 0.25399,-0.648096 0.29724,-0.628902 0.3093,-0.579 0.73735,-1.064406 -0.24921,-0.290016 0.42831,-0.226767 0.40682,-0.08959 -0.0134,0.08569 -0.0925,0.147503 -0.12743,0.226871 -0.0467,0.105922 -0.0786,0.217747 -0.11672,0.327057 -0.0531,0.152442 0.005,0.459933 -0.15682,0.458182 -0.16539,-0.0018 -0.12093,-0.3079 -0.18139,-0.46185 -0.079,0.09207 -0.13501,0.210636 -0.2371,0.276203 -0.34696,0.222811 -1.07253,0.346465 -1.41546,0.393147 -1.20616,0.164193 -2.41895,0.161315 -3.63198,0.131677 -0.58553,-0.02175 -1.7902,-0.08864 -2.34732,-0.01097 -1.92446,0.268297 -3.52129,1.236999 -4.76045,2.740896 -0.56832,0.689739 -0.9812,1.494041 -1.47181,2.24106 -0.40451,0.98184 -0.88207,1.936671 -1.21354,2.945514 -1.95207,5.941263 -2.00323,12.628509 -1.37099,18.785242 0.18834,1.834054 0.52181,3.650292 0.78271,5.475438 1.64213,6.399157 0.61003,3.400975 2.99163,9.029896 -0.0309,0.323217 4.54013,0.759817 4.57101,0.436596 v 0 c 0.96257,-5.57943 0.72672,-2.627997 0.5327,-8.866531 -2.7007,-18.941314 1.25711,8.673566 -1.52613,-10.273538 -0.70668,-4.810744 -1.4405,-9.694685 -0.49134,-14.530736 0.23824,-0.981229 0.61159,-3.814308 2.00034,-4.125489 0.53462,-0.119791 1.66013,0.124896 2.10471,0.195643 0.50288,0.04261 1.00403,0.118679 1.50863,0.127839 2.2586,0.041 4.87101,-0.474279 6.4585,-2.231941 0.35856,-0.397002 0.56358,-0.909449 0.84536,-1.364173 0.0463,-0.761878 0.205,-1.525218 0.1389,-2.285634 -0.0401,-0.461717 -0.21956,-0.913864 -0.45186,-1.314898 -0.75638,-1.305772 -2.21285,-1.979532 -3.69946,-1.677873 -0.46459,0.09427 -0.87436,0.366666 -1.31153,0.549999 -0.35329,0.317679 -0.75775,0.586353 -1.05987,0.953037 -1.21005,1.46865 -1.60191,3.847763 -0.68105,5.563966 0.10988,0.204787 0.29088,0.362545 0.43632,0.543817 0.0935,0.145497 2.15108,-1.17615 2.05763,-1.321644 z" />
    <path
       style="fill:#000000;stroke-width:0.264583"
       id="path7"
       d="m 103.65016,19.850659 c -1.18814,1.968343 -1.60725,4.249482 -2.14658,6.448841 -0.21724,0.885937 -0.45455,1.766836 -0.68183,2.650253 -0.94349,4.303387 -2.138947,8.564829 -2.77306,12.931058 -0.130784,0.900522 -0.263052,1.804101 -0.300792,2.713286 -0.03001,0.723095 0.06543,1.445956 0.09814,2.168932 0.344763,0.580499 0.689525,1.160995 1.034288,1.74149 -0.0482,0.13815 1.905514,0.819825 1.953724,0.681676 v 0 c 0.48995,-0.287227 0.9799,-0.574453 1.46985,-0.861682 0.27354,-0.588886 0.59395,-1.158193 0.82062,-1.76666 0.57714,-1.549255 1.18591,-4.059515 1.53271,-5.611268 0.74971,-3.354609 1.38907,-6.748761 1.63208,-10.182169 0.16893,-3.064875 0.50547,-6.229434 0.006,-9.284641 -0.0287,-0.175414 -0.089,-0.344165 -0.13353,-0.516247 0.0787,-0.177576 -2.43259,-1.290444 -2.51128,-1.112869 z" />
    <path
       style="fill:#000000;stroke-width:0.264583"
       id="path15"
       d="m 97.528725,53.338081 c -0.138832,0.196649 -0.228541,0.427961 -0.313496,0.65182 -0.04801,0.126508 0.210499,-0.192522 0.343783,-0.215866 0.385953,-0.0676 0.782624,-0.04022 1.173935,-0.06034 0.350692,0.456719 0.820238,0.843058 1.052074,1.370153 0.100507,0.22851 -0.07789,0.493247 -0.124627,0.738471 -0.06288,0.329935 -0.540041,0.466762 -0.80381,0.460999 -0.28285,-0.0062 -0.548513,-0.138922 -0.822772,-0.208383 -0.224642,-0.498695 -0.500242,-0.977434 -0.673925,-1.496081 -0.03543,-0.105802 0.02721,-0.223041 0.06282,-0.328782 0.1051,-0.312071 0.429421,-0.501057 0.755256,-0.504298 0.17662,-0.0019 0.346014,0.07117 0.519022,0.106764 0.240816,0.37923 0.602946,0.704646 0.722453,1.13769 0.149439,0.541523 -0.350771,1.126022 -0.700567,1.425059 -0.113773,0.09726 -0.423447,0.211939 -0.60112,0.284578 -0.886642,-0.239977 -1.265552,-1.422739 -0.689625,-2.141717 0.184544,-0.230381 0.389056,-0.508389 0.677746,-0.569945 0.212804,-0.04537 0.385789,0.201361 0.578683,0.302043 -0.179268,-0.03864 -0.725728,2.49658 -0.546462,2.535219 v 0 c 0.325448,0.143394 0.623024,0.470739 0.976341,0.430178 0.397703,-0.04566 0.729761,-0.366836 1.004886,-0.657624 0.71755,-0.758386 0.41608,-1.643481 -0.026,-2.511764 -0.144775,-0.284371 -0.482278,-0.417991 -0.723419,-0.626988 -0.678688,-0.311444 -1.415285,-0.563994 -2.158534,-0.183782 -0.641723,0.328273 -1.444652,1.122087 -1.279816,1.973638 0.114588,0.591968 0.576352,1.059264 0.864526,1.588897 0.30126,0.156837 0.57513,0.384804 0.903779,0.470508 0.995098,0.25949 2.094326,-0.139644 2.686144,-0.978053 0.19752,-0.279823 0.43923,-0.598982 0.41377,-0.940549 -0.0531,-0.712674 -0.42433,-1.364858 -0.6365,-2.047287 -0.366689,-0.181155 -0.699246,-0.462093 -1.100066,-0.543463 -0.863026,-0.175201 -1.97725,0.308137 -2.359882,1.128522 -0.179443,0.384734 -0.472141,0.809766 -0.364289,1.220359 0.177564,0.676003 0.764042,1.170586 1.146064,1.755878 0.48293,0.0331 0.968914,0.162854 1.448792,0.09932 0.289806,-0.03837 0.545179,-0.224965 0.7831,-0.39483 0.672181,-0.479904 0.960071,-1.303533 1.116481,-2.07165 0.0848,-0.233683 -3.220011,-1.432378 -3.30477,-1.198695 z" />
    <path
       style="fill:#000000;stroke-width:0.264583"
       id="path16"
       d="m 169.2617,101.05458 c -0.60102,0.60801 -1.02771,1.26579 -1.74756,1.7838 -0.74955,0.53938 -2.95906,1.72774 -3.73493,2.05105 -0.63826,0.26597 -1.3158,0.42559 -1.9737,0.63838 1.59858,1.62987 -2.55858,-0.20617 -1.9228,-0.34756 0.52612,-0.11701 1.17136,0.52148 1.60442,0.20063 0.62379,-0.46216 0.63234,-1.41859 0.97787,-2.11381 1.15309,-2.32009 2.2722,-4.310743 3.51911,-6.591599 2.06853,-4.041709 1.17431,-2.094715 2.73483,-5.816748 0.25683,-0.30956 -4.12099,-3.94158 -4.37782,-3.632023 v 0 c -3.35167,3.09196 -1.74305,1.30652 -4.69843,5.468442 -1.614,3.341524 -2.56838,4.749367 -3.26391,8.433618 -0.25612,1.35673 -0.63939,2.78655 -0.31971,4.12973 0.74436,3.1275 1.85746,4.8726 4.78657,5.36162 0.87967,0.14686 1.78241,-0.0675 2.67362,-0.10131 0.92734,-0.33069 1.90011,-0.55441 2.78203,-0.99207 2.80032,-1.38967 5.65214,-4.01309 5.93283,-7.31546 0.0303,-0.35694 -0.0676,-0.71326 -0.10142,-1.06989 0.006,-0.20301 -2.86487,-0.28981 -2.871,-0.0868 z" />
    <path
       style="fill:#000000;stroke-width:0.264583"
       id="path17"
       d="m 168.26908,101.57228 c 0.0176,-0.0732 -0.002,-0.27155 0.0528,-0.21955 0.78332,0.74847 0.65382,0.72954 0.52796,1.59389 -0.0162,0.11156 -0.12294,0.23832 -0.0612,0.33261 0.0404,0.0617 0.73519,0.22191 0.8607,0.2534 0.0698,0.04 0.28877,0.10721 0.20935,0.12008 -0.90989,0.14742 -0.80696,-1.59637 -0.83897,-1.88713 -0.0193,-0.17534 0.15379,-0.32286 0.18168,-0.49705 0.0998,-0.62306 -0.25774,0.13957 0.0211,-0.38144 0.78107,-0.0119 0.58708,-0.13304 0.93305,1.23443 0.037,0.14629 -0.0792,0.29162 -0.10565,0.44019 -0.0312,0.1753 0.002,0.37686 2.7e-4,0.55432 -0.0592,0.0422 -0.13183,0.18292 -0.17775,0.12652 -0.42267,-0.51914 -0.79044,-0.99248 -0.44108,-1.59903 0.1225,-0.21269 0.27872,-0.42633 0.49196,-0.54788 0.22949,-0.1308 0.54078,-0.29865 0.77327,-0.17327 0.52109,0.28104 0.83217,0.84236 1.24825,1.26354 -0.0274,0.36036 0.0341,0.74061 -0.231,1.03244 -0.1575,0.1734 -0.81154,0.58584 -1.05063,0.3023 -1.22298,-1.45036 -1.1262,-1.48144 -0.99784,-2.58667 -0.33865,-0.0573 -0.67712,-0.0915 -0.99274,-0.24451 -0.0923,-0.0447 -0.33556,-0.1801 -0.23474,-0.19891 0.19208,-0.0359 0.48384,-0.039 0.57011,0.13631 1.2644,2.56929 -0.28649,1.62059 0.91845,2.25329 0.31765,0.0148 0.63655,0.0127 0.95296,0.0445 0.2858,0.0287 0.56789,0.0871 0.85081,0.13682 0.0578,0.0102 0.18813,0.0989 0.17084,0.0427 -0.48108,-1.56152 -0.35261,-1.62455 -0.69837,-0.98949 -0.0946,0.0819 1.06412,1.41999 1.15874,1.33805 v 0 c 0.43077,-0.36615 1.16951,-0.5466 1.29232,-1.09847 0.58192,-2.6151 -1.46267,-3.823899 -3.62425,-3.682141 -0.60838,0.0399 -1.18776,0.275913 -1.78164,0.413867 -0.5306,0.356438 -1.32766,0.487238 -1.5918,1.069314 -0.42644,0.93976 -0.50045,2.07144 -0.29204,3.08216 0.10656,0.51679 0.6975,0.81734 1.15155,1.08617 0.76808,0.45477 1.89468,0.47637 2.72965,0.28454 0.41848,-0.0961 0.79286,-0.3299 1.18929,-0.49484 0.3751,-0.36238 1.08304,-0.56728 1.12531,-1.08712 0.0748,-0.91989 -0.30121,-1.88195 -0.82187,-2.64399 -0.38821,-0.568204 -1.82722,-0.0771 -2.17218,0.15103 -0.2929,0.19369 -0.55211,0.46719 -0.70369,0.78394 -0.18112,0.37849 -0.17385,0.82099 -0.26078,1.23148 0.4665,0.56389 0.78124,1.30008 1.3995,1.69167 1.04533,0.66209 2.86518,-0.85586 2.75693,-1.95738 -0.0669,-0.68124 -0.37247,-1.3372 -0.73627,-1.91705 -0.21075,-0.33591 -0.62073,-0.493668 -0.93109,-0.740503 -0.95446,-0.290128 -1.37526,-0.56765 -2.40803,-0.254793 -0.73405,0.222363 -1.89977,1.020056 -1.9897,1.896426 -0.20563,2.00393 0.33568,2.12024 1.46776,3.10484 0.40254,0.11343 0.78994,0.31927 1.20763,0.34027 0.69042,0.0347 2.1809,-0.36168 2.43609,-1.15959 0.5389,-1.68497 0.20549,-2.56006 -1.02915,-3.33203 -0.31029,-0.19401 -0.68386,-0.26079 -1.02579,-0.391184 -0.93907,-0.05243 -1.4711,-0.195996 -2.37579,0.237264 -0.83338,0.39911 -1.80104,1.18361 -1.68794,2.28606 0.0606,0.59062 0.4765,1.10001 0.83486,1.57339 0.13408,0.17711 0.39357,0.20615 0.59035,0.30922 0.18831,0.0819 1.34664,-2.58117 1.15834,-2.66308 z" />
    <path
       style="fill:#000000;stroke-width:0.264583"
       id="path18"
       d="m 146.97193,102.38278 c -1.59619,0.34488 -3.16778,0.91362 -4.81945,0.94166 -0.35737,0.006 -0.72734,0.01 -1.06766,-0.0993 -0.22014,-0.0707 -0.36773,-0.28036 -0.55159,-0.42054 0.67173,-2.65605 -0.53011,1.16035 0.90242,-0.57273 0.40357,-0.48825 0.39631,-1.20601 0.65902,-1.78241 0.3952,-0.867079 0.83794,-1.713177 1.31118,-2.540251 1.25154,-2.187318 2.69654,-4.243379 4.10215,-6.331439 1.4188,-2.212147 2.59139,-3.822647 3.63268,-6.210893 0.31564,-0.723926 0.49001,-1.501561 0.73502,-2.252342 0.20479,-0.208532 -2.74429,-3.104677 -2.94908,-2.896145 v 0 c -0.76649,0.397261 -1.60453,0.67955 -2.29947,1.191781 -2.46379,1.816015 -3.26166,3.31152 -5.10524,5.78876 -0.74988,1.290236 -1.56231,2.546086 -2.24963,3.870704 -1.27847,2.463892 -2.30977,4.824341 -2.80845,7.566604 -0.19886,1.093571 -0.40194,2.225771 -0.24206,3.325721 0.18966,1.30481 0.61711,2.60061 1.26999,3.74615 0.40115,0.70387 1.1983,1.09064 1.79745,1.63596 0.64753,0.21493 1.27047,0.52755 1.94259,0.64478 2.31602,0.40398 4.79078,-0.57516 6.66309,-1.87474 0.31815,-0.22083 0.58866,-0.50342 0.88298,-0.75513 0.21046,-0.1277 -1.59549,-3.10394 -1.80594,-2.97624 z" />
    <path
       style="fill:#000000;stroke-width:0.264583"
       id="path22"
       d="m 142.87747,113.06644 c -0.33401,-0.24648 -0.64032,-0.53576 -1.00203,-0.73943 -1.77146,-0.99752 -4.75873,-1.65912 -6.74574,-1.04829 -0.46512,0.14298 -0.86445,0.44704 -1.29667,0.67056 -0.40125,0.7487 -1.19137,1.39674 -1.20375,2.2461 -0.0325,2.229 2.38417,4.82933 3.26364,6.83739 0.76035,1.73609 1.05806,1.71027 0.33193,1.64058 -0.0126,0.11506 0.088,1.08103 -0.24122,0.59824 -0.085,-0.12471 -0.0871,-0.30923 -0.20465,-0.40394 -0.15657,-0.12617 -0.38916,-0.11507 -0.56358,-0.21511 -0.34956,-0.20049 -0.66591,-0.45401 -0.99886,-0.68102 -0.12777,-0.1188 -1.8078,1.68808 -1.68004,1.80688 v 0 c 0.80494,1.62137 1.1806,3.18004 3.23486,3.78335 1.8186,0.5341 3.71609,-0.48087 4.78361,-1.86869 0.50037,-0.6505 0.61434,-1.52206 0.92151,-2.28309 -0.17425,-1.28843 -0.19584,-2.60689 -0.52274,-3.86528 -0.42733,-1.64498 -1.47971,-3.08325 -2.58153,-4.32609 -0.39743,-0.44829 -0.71444,-1.1394 -1.30588,-1.23487 -0.82058,-0.13246 0.21087,3.07214 -1.62592,1.89064 0.61048,0.0786 0.16992,0.0305 1.3426,0.0611 1.45796,0.0381 2.91793,0.0755 4.37597,0.0622 0.20727,0.12152 1.92576,-2.80973 1.71849,-2.93124 z" />
    <path
       style="fill:#000000;stroke-width:0.264583"
       id="path23"
       d="m 128.18336,92.636365 c -0.0612,0.190445 -0.12236,0.380889 -0.18354,0.571334 -0.17726,0.01741 -0.43638,-0.09819 -0.53177,0.05222 -0.2744,0.432708 -0.27008,0.98924 -0.43609,1.473981 -0.22502,0.657068 -0.45024,1.316273 -0.73622,1.949193 -0.90846,2.010584 -1.15221,2.172229 -2.41913,3.955877 -1.7452,2.00216 -0.98341,0.9368 -2.2968,3.18789 -0.18584,0.0841 1.00306,2.71232 1.1889,2.62825 v 0 c 4.10215,-0.18318 2.20518,0.44387 5.66196,-1.96658 0.65496,-0.89054 1.42369,-1.7077 1.96487,-2.67163 1.26314,-2.249891 2.0443,-5.495794 1.56487,-8.08348 -0.16198,-0.874281 -0.45674,-1.726142 -0.81503,-2.539923 -0.12711,-0.288706 -0.41238,-0.477473 -0.61857,-0.716206 -0.15267,-0.165709 -2.49612,1.993363 -2.34345,2.159071 z" />
    <path
       style="fill:#000000;stroke-width:0.264583"
       id="path24"
       d="m 121.82603,80.115406 c -0.18839,0.257368 -0.39435,0.502759 -0.56517,0.772107 -0.77658,1.224466 -1.16676,2.097061 -1.87604,3.411469 -0.63553,1.177711 -1.8163,3.313091 -2.53176,4.446146 -0.38037,0.602382 -0.80647,1.174639 -1.20971,1.761958 -0.34712,0.377582 -0.66513,0.784154 -1.04136,1.132745 -0.18416,0.17064 -0.40265,0.305567 -0.62875,0.414708 -0.0878,0.04239 0.1131,-0.244965 0.20401,-0.209683 0.52929,0.205431 0.94952,0.633844 1.47047,0.859581 0.21246,0.09207 0.37983,-0.426463 0.59007,-0.849627 0.0998,-0.218504 0.24742,-0.420989 0.29942,-0.655511 0.0257,-0.115961 0.0145,-0.272086 -0.0769,-0.347937 -0.94646,-0.785395 -1.855,-1.673439 -2.97401,-2.183784 -0.29583,-0.134919 -0.59725,0.261411 -0.87672,0.427588 -0.60961,0.362477 -2.11539,1.437106 -2.6805,1.834031 -0.36308,0.219702 -0.71578,0.457552 -1.08924,0.659106 -1.1839,0.638942 -0.0455,-0.269957 0.48584,0.153202 0.61604,0.490638 0.38904,1.476496 0.53226,0.51186 -0.39937,-1.379712 -0.18131,-0.938051 -3.25264,-1.791901 -0.21417,-0.05954 -0.3382,0.289187 -0.49624,0.445524 -0.8061,0.797427 -0.72957,0.84632 -1.62281,1.618898 -0.24604,0.212804 -0.51664,0.395428 -0.77497,0.593143 -0.18835,0.06685 -0.36718,0.172371 -0.56505,0.200543 -0.41287,0.05878 -0.18249,-0.380957 -0.54281,-0.462023 -1.26313,-0.284178 -1.40155,-0.08449 -2.719937,0.211836 -1.6705,0.862973 -1.013945,0.430472 -2.451547,1.523296 -0.303901,0.231016 -0.615054,0.453451 -0.905201,0.701524 -0.122703,0.104913 -0.486624,0.315524 -0.329967,0.354529 2.909596,0.724389 1.230614,-0.851858 2.727671,0.975659 0.117288,-0.392044 0.588074,-0.841981 0.351859,-1.176134 -3.487237,-4.933146 -4.880845,-5.106739 -10.442323,-6.863045 -6.009746,-1.897873 -8.106532,-2.02746 -14.192472,-3.4197 -1.816659,-0.415587 -3.616931,-0.899798 -5.425398,-1.349698 -0.907518,-0.452326 -1.821405,-0.892101 -2.722557,-1.356985 -0.292261,-0.15077 0.571061,0.469054 0.895342,0.414364 0.69183,-0.116673 1.256422,-0.628737 1.908662,-0.887243 1.394663,-0.552751 2.792333,-1.106889 4.227253,-1.544627 1.598565,-0.487658 11.309673,-2.895909 12.545666,-3.205498 0.543113,-0.109241 -1.001782,-7.789987 -1.544892,-7.680746 v 0 c -2.717667,0.294926 -5.499801,0.226587 -8.153005,0.884783 -3.837909,0.952095 -9.386036,3.766426 -12.104251,6.846916 -1.326862,1.503699 -2.740158,3.259892 -2.926191,5.256652 -0.510839,5.483013 2.63285,7.004135 5.950122,9.979022 2.078656,0.866156 4.076239,1.960811 6.235972,2.598468 4.478449,1.322252 10.022946,1.818894 14.67245,1.878314 1.801857,0.02302 3.73308,0.399941 5.398302,-0.288724 0.920959,-0.38087 0.752408,-1.940351 1.522206,-2.573308 0.342558,-0.281665 -0.0071,0.886946 -0.01061,1.33042 0.175093,0.890045 -0.06419,1.980668 0.525277,2.670133 0.87571,1.024257 2.296779,0.979685 3.22997,0.342005 0.309605,-0.211563 0.549897,-0.509971 0.823627,-0.766262 0.991652,-0.928487 0.603952,-0.537165 1.394902,-1.392709 0.007,-0.07217 0.0407,-0.146944 0.0204,-0.216521 -0.0105,-0.03599 -0.0833,0.07355 -0.055,0.09814 0.23917,0.207664 0.49744,0.402585 0.78489,0.535604 1.6397,0.75877 2.73969,0.554342 4.3433,-0.168547 0.44012,-0.327512 0.92177,-0.605587 1.32036,-0.982536 0.68914,-0.651703 1.30113,-1.577157 1.6995,-2.438895 0.14287,-0.309057 0.55914,-0.71959 0.32623,-0.967949 -0.80116,-0.854307 -1.91018,-1.384683 -2.97983,-1.861693 -0.15524,-0.06923 -0.22485,0.254956 -0.33728,0.382432 -0.10486,0.344673 -0.32252,0.673838 -0.31456,1.034018 0.0399,1.805593 0.12652,2.900505 1.74653,3.829243 0.99411,0.569913 2.34902,0.514847 3.38956,0.169876 0.6038,-0.200179 1.13464,-0.575464 1.70197,-0.863195 1.41399,-1.147485 1.69168,-1.223669 2.76779,-2.656227 0.29123,-0.387694 0.96582,-0.795178 0.7657,-1.23685 -0.55379,-1.222195 -1.9365,-3.701616 -3.27032,-2.355599 -0.33638,0.339453 -0.55504,0.778098 -0.83256,1.167144 -0.3185,0.957437 -1.08136,2.692815 -0.58027,3.737776 0.97957,2.042779 2.10634,2.827716 4.15376,2.617489 0.66583,-0.06837 1.31843,-0.29954 1.91583,-0.601422 0.71545,-0.36154 1.31918,-0.911095 1.97878,-1.366644 0.62666,-0.690907 1.32642,-1.321967 1.87998,-2.072722 1.89182,-2.565784 3.38988,-6.502001 3.59587,-9.707298 0.0294,-0.458211 -0.0301,-0.917816 -0.0452,-1.376722 0.064,-0.228659 -3.16978,-1.132944 -3.23373,-0.904283 z" />
    <path
       style="fill:#000000;stroke-width:0.264583"
       id="path25"
       d="m 154.89335,67.859817 c -3.00586,-0.0065 -5.97839,0.505975 -8.93104,1.007406 -5.49541,0.933254 -3.24541,0.513858 -8.864,1.727599 -2.85777,0.785313 -5.05487,1.196332 -7.65866,2.591364 -0.83766,0.448791 -1.54972,1.100323 -2.32458,1.650484 -0.23229,0.04845 0.45293,3.333559 0.68522,3.285106 v 0 c 1.0047,0.242642 1.98466,0.63532 3.01409,0.727927 3.19741,0.287637 5.29134,-0.347265 8.44428,-0.934894 1.52947,-0.442415 3.07748,-0.825175 4.58843,-1.327243 1.40881,-0.468127 2.78957,-1.018887 4.16362,-1.580944 2.43063,-0.994259 4.92359,-2.12884 7.09221,-3.636875 0.23706,-0.164846 0.44111,-0.372705 0.66166,-0.559056 0.20866,-0.06161 -0.66257,-3.01248 -0.87123,-2.950874 z" />
    <path
       style="fill:#000000;stroke-width:0.264583"
       id="path26"
       d="m 110.3898,76.565481 c -0.97557,-0.671703 -0.6131,-0.480732 -1.88257,-1.044083 -0.51794,-0.229846 -1.02953,-0.478184 -1.56465,-0.664559 -0.66658,-0.232159 -1.32976,-0.541687 -2.03404,-0.588817 -0.78468,-0.05251 -1.56045,0.197374 -2.34067,0.296061 -0.20411,-0.02978 -0.62521,2.856696 -0.4211,2.886472 v 0 c 0.66735,0.452011 1.27284,1.012645 2.00206,1.356034 0.62172,0.292775 1.32227,0.378288 1.99353,0.525503 1.17326,0.257307 2.41796,0.448995 3.62112,0.389826 0.22319,0.04429 0.84952,-3.112148 0.62632,-3.156437 z" />
    <path
       style="fill:#000000;stroke-width:0.264583"
       id="path27"
       d="m 104.58684,74.126761 c -1.15368,-0.52147 -2.3736,-0.857073 -3.59632,-1.175573 -1.017658,-0.275278 -2.048483,-0.444651 -3.089047,-0.596852 -0.605793,-0.300987 -1.234591,-0.522502 -1.903262,-0.640347 -0.360783,0.07047 -0.689361,-0.149498 -1.04504,-0.145606 -0.222901,0.0024 -0.442921,0.05086 -0.66438,0.0763 -0.806042,0.291296 -0.829273,-0.03727 -0.676354,0.851371 -0.150979,0.07764 0.946975,2.212819 1.097955,2.135183 v 0 c 0.469275,0.416676 0.604157,0.379843 0.375973,0.380891 -0.890426,0.04812 0.455885,0.149011 0.571918,0.284522 0.586935,0.212889 1.164254,0.451821 1.771414,0.605957 0.991587,0.370258 2.025872,0.601491 3.045443,0.880377 1.24316,0.317905 2.53966,0.634326 3.82941,0.564531 0.22775,0.01995 0.51004,-3.200789 0.28229,-3.220749 z" />
    <path
       style="fill:#000000;stroke-width:0.264583"
       id="path28"
       d="m 51.933096,75.435935 c 0.102952,-0.123994 0.205907,-0.247988 0.308859,-0.371983 0.106129,-0.172294 0.195553,-0.356071 0.318386,-0.516882 0.07752,-0.101481 0.395023,-0.31455 0.277876,-0.263721 -0.389797,0.169133 -0.697159,0.72195 -1.110898,0.625166 -2.60759,-0.609981 -1.520965,-2.597962 -2.337983,-0.15112 -0.619289,3.431564 -0.557067,6.935058 -0.890926,10.397718 -0.256995,2.665465 -0.456382,3.737422 -0.856218,6.363158 -0.277357,3.630591 -0.445138,1.888696 0.411803,5.233693 -0.08894,0.181483 2.4776,1.439334 2.566545,1.257851 v 0 c 2.919389,-2.281534 1.750886,-0.826567 3.333483,-4.497647 0.235757,-1.162974 0.543804,-2.313604 0.707274,-3.48892 0.670671,-4.822002 0.117671,-9.671455 -0.817327,-14.413669 -0.425432,-1.553282 -0.588807,-2.871732 -2.349363,-3.848836 -1.287145,-0.714362 -1.57445,1.615043 -1.737637,2.173222 -0.106207,0.153876 2.06992,1.655847 2.176126,1.50197 z" />
    <path
       style="fill:#000000;stroke-width:0.264583"
       id="path29"
       d="m 39.543897,71.374166 c -0.198152,0.680931 -0.332539,1.111911 -0.491969,1.863116 -0.467172,2.201217 -0.146045,1.351738 -0.806175,3.754218 -0.581395,2.115923 -0.850519,2.707217 -1.616059,4.784426 -0.348369,0.726459 -0.630946,1.488308 -1.045101,2.179378 -0.873805,1.458058 -2.258174,3.061917 -4.139957,3.014419 -1.34574,-0.03397 -1.854996,-0.601541 -2.905482,-1.310264 -0.274672,-0.444619 -0.697093,-0.826884 -0.824016,-1.333857 -0.04256,-0.169998 0.359299,-0.164473 0.406665,-0.333195 0.134122,-0.477753 -0.006,-1.001107 0.103775,-1.485043 0.163002,-0.718828 0.61768,-1.784861 1.259422,-2.273702 0.126002,-0.09598 0.315743,-0.02572 0.473614,-0.03857 -0.496334,1.815547 0.498118,-1.040972 -1.629923,0.620003 -0.62172,0.485264 -0.720606,1.408851 -1.173607,2.054455 -0.703623,1.002787 -1.474098,1.960269 -2.286651,2.877016 -2.827508,3.190076 -2.840039,2.93665 -6.213542,5.474726 -1.148729,0.534451 -2.237943,1.222087 -3.446186,1.603354 -2.205523,0.695965 -4.450042,0.783106 -6.6571456,0.03021 C 6.4056315,92.122817 4.0484496,90.351712 2.5322505,88.727133 1.6928524,87.827733 1.0696722,86.748521 0.33838306,85.759217 0.3132047,84.129223 0.1729222,82.627559 1.0242665,81.047769 2.6379575,78.053334 6.0566847,76.063146 8.6045063,74.161213 9.0409153,73.881863 5.0903213,67.71011 4.6539126,67.989457 v 0 c -2.1557135,1.58822 -4.61182207,2.834029 -6.4671404,4.764659 -2.7429482,2.854291 -5.2930656,7.748167 -4.7955981,11.940241 0.2830383,2.385118 1.6714512,4.503536 2.5071768,6.755304 1.1337158,1.27997 2.1110623,2.717718 3.40114674,3.839914 5.20040546,4.523629 12.57301936,6.233435 19.18070936,4.167738 1.662627,-0.519771 3.168151,-1.449409 4.752225,-2.174113 1.407049,-1.088512 2.941687,-2.029563 4.221144,-3.265538 2.532372,-2.446305 4.580755,-5.392094 5.605661,-8.796673 0.432348,-1.436185 0.869498,-2.995795 0.563576,-4.464114 -0.333597,-1.60116 -1.214919,-3.146078 -2.386841,-4.286953 -0.679312,-0.661318 -1.834999,-0.477491 -2.7525,-0.716238 -0.831244,0.279802 -1.752377,0.370742 -2.493732,0.839409 -0.782645,0.494771 -1.448103,1.198396 -1.955202,1.973109 -0.983905,1.503148 -1.779721,4.283649 -1.350253,6.079733 0.904487,3.782658 1.836996,4.054711 4.316251,6.257701 0.986927,0.380465 1.922258,0.940773 2.96078,1.141399 3.15663,0.609809 6.323674,-0.522478 8.62548,-2.685534 1.895491,-1.781233 2.201275,-2.874576 3.345235,-5.138142 0.302961,-0.97168 0.677474,-1.923881 0.908881,-2.915042 0.214699,-0.919583 0.326126,-1.86173 0.425609,-2.800789 0.240911,-2.274051 0.217511,-4.614773 -0.390155,-6.830235 0.0213,-0.23564 -3.311178,-0.53677 -3.332469,-0.301127 z" />
    <path
       style="fill:#000000;stroke-width:0.264583"
       id="path30"
       d="m 24.15367,61.545027 c -0.508746,-0.01212 -0.06444,-0.01479 -0.566782,0.02574 -0.02854,0.0024 -0.112962,-0.0122 -0.08585,-0.003 0.07582,0.0258 0.186415,-0.0108 0.234239,0.05344 0.395044,0.530638 0.966252,1.024753 1.056355,1.680128 0.0537,0.390615 -0.462423,0.638768 -0.693635,0.958152 -0.041,0.05342 -0.08201,0.106841 -0.123012,0.160263 0.02269,0.03558 0.09073,0.07112 0.06808,0.106728 -0.03697,0.05813 -0.127018,0.05353 -0.189047,0.08349 -0.03913,0.01889 -0.0929,0.100878 -0.114136,0.06297 -0.161238,-0.287862 -0.332566,-0.591498 -0.365775,-0.919763 -0.01993,-0.197049 0.144507,-0.368808 0.21676,-0.553212 0.115334,-0.04675 1.63866,-1.039429 2.179464,-0.471274 0.188263,0.197782 0.207691,0.505807 0.289364,0.766366 0.0047,0.01497 -0.0346,-7.94e-4 -0.04596,0.01013 -0.541352,0.515247 0.531315,-0.344244 -0.508355,0.448361 -0.05851,0.257498 -2.608774,0.276746 -1.283471,-0.858319 0.01272,0.01439 0.02032,0.05033 0.03816,0.04319 0.595724,-0.238514 -0.4025,0.0011 -0.429754,0.0019 -0.04541,0.0011 -0.08898,-0.01834 -0.133474,-0.0275 -1.32e-4,-0.01691 -0.01705,-0.05362 -3.97e-4,-0.05072 0.812287,0.141378 0.822238,0.325618 1.04661,1.462019 0.07692,0.389607 -0.40111,0.405476 -0.135653,0.670491 -0.954291,0.399561 -1.080802,-1.084334 -0.787927,-1.713458 0.692904,-0.520782 0.591417,0.486784 0.615797,0.932149 0.01507,0.275354 -0.176834,0.15377 0.04108,0.454101 0.154144,-0.04786 -0.01055,0.343009 -0.0574,0.26552 -0.165368,-0.273497 -0.323837,-0.567901 -0.371453,-0.883938 -0.02764,-0.183491 0.09564,-0.359016 0.157845,-0.533842 0.03741,-0.10514 0.165476,-0.19527 0.140288,-0.303993 -0.01816,-0.07839 -0.15243,-0.05159 -0.228645,-0.07739 -0.643516,-0.121087 -0.76468,-0.02598 -1.653271,0.06475 -0.0542,0.0055 -0.213014,0.03732 -0.162602,0.01664 0.0861,-0.0353 0.181524,-0.04108 0.272286,-0.06163 1.335351,0.385802 0.877208,-0.02156 1.244811,1.772147 0.01211,0.05911 -0.0702,0.146817 -0.01976,0.179919 0.07087,0.04651 0.168272,-0.02172 0.252881,-0.02693 0.410884,-0.02535 0.332115,-0.01482 0.752755,0.03778 0.08906,0.03729 0.261043,0.01551 0.267174,0.111861 0.0055,0.08636 -0.204431,0.07728 -0.259392,0.01045 -0.246827,-0.300162 -0.445928,-0.648983 -0.568842,-1.017646 -0.04879,-0.146341 0.06127,-0.302847 0.07743,-0.456258 0.0055,-0.05241 -0.02351,-0.200692 -0.03373,-0.258956 0.07117,-0.122158 0.171699,-0.366842 0.422762,-0.132625 0.723422,0.674878 0.188857,1.040202 -0.366474,1.435415 -0.561762,0.439934 -0.608754,0.295863 -0.890305,-0.554434 -0.0051,-0.01529 0.1064,-0.685565 0.21884,-0.03249 -0.155629,0.015 0.05639,2.215925 0.212021,2.200932 v 0 c 0.361787,0.04869 0.728073,0.22095 1.085362,0.146081 0.39393,-0.08255 0.776089,-0.300177 1.051344,-0.593828 1.062718,-1.133734 0.556943,-3.066489 -0.696362,-3.825028 -0.311021,-0.188241 -0.696734,-0.207931 -1.045101,-0.311896 -0.421571,0.107063 -0.885705,0.107796 -1.264713,0.321191 -0.318596,0.179379 -0.559485,0.491196 -0.741433,0.808331 -0.699854,1.219845 0.07113,2.780532 1.218866,3.397893 0.309238,0.166335 0.680347,0.174103 1.02052,0.261154 0.892983,-0.13543 1.42815,-0.05246 2.076168,-0.82514 1.160624,-1.383893 0.561054,-2.977213 -0.986325,-3.668152 -0.286257,-0.12782 -0.614554,-0.124285 -0.921832,-0.186428 -0.324005,0.0176 -0.652523,-0.0039 -0.972017,0.05276 -0.601201,0.106662 -1.181776,0.346419 -1.64673,0.749914 -0.843896,0.732351 -1.094972,1.374214 -0.440512,2.670305 0.173604,0.343807 0.701231,0.31881 1.051847,0.478216 0.215865,-0.02212 0.437771,-0.01103 0.647595,-0.06635 0.104214,-0.02748 0.374666,-0.145482 0.271279,-0.175922 -0.301786,-0.08886 -0.643939,-0.118015 -0.943531,-0.02201 -0.124813,0.03999 0.20847,0.16179 0.325944,0.219908 0.585811,0.289822 0.676064,0.24969 1.34481,0.358622 0.800934,-0.103696 1.349354,-0.05929 1.995143,-0.726403 1.05735,-1.092269 0.627084,-2.60499 -0.529812,-3.391273 -0.276878,-0.18818 -0.605831,-0.285065 -0.908746,-0.427596 -0.894278,-0.08151 -1.276756,-0.250127 -2.125908,0.247412 -1.422222,0.833308 -1.585168,2.600433 -0.481893,3.770836 0.256873,0.272502 0.630418,0.404395 0.945627,0.606592 0.912265,0.09965 1.376094,0.312182 2.215346,-0.229791 1.418975,-0.916344 1.465594,-2.732989 0.07634,-3.692101 -0.278731,-0.192429 -0.640393,-0.220853 -0.960589,-0.331283 -0.291195,0.02445 -0.591236,-0.0019 -0.873583,0.07337 -0.541878,0.144547 -1.568465,0.648737 -1.628014,1.341784 -0.114216,1.32928 0.281622,1.962013 1.328925,2.337477 0.21968,0.07876 0.464295,0.04774 0.696442,0.07161 0.208749,-0.0363 0.421787,-0.0533 0.626249,-0.108884 0.374579,-0.101823 0.370373,-0.158621 0.649199,-0.306234 0.410041,-0.21708 0.838181,-0.41384 1.158495,-0.763471 0.234725,-0.337458 0.5382,-0.659829 0.516133,-1.117802 -0.03998,-0.829746 -0.117705,-1.504942 -0.732326,-2.049285 -0.207977,-0.184195 -0.439456,-0.369019 -0.708208,-0.439409 -0.367381,-0.09622 -0.758973,-0.0295 -1.13846,-0.04425 -0.72313,0.41284 -0.989439,0.409371 -1.350117,1.193752 -0.109759,0.238696 -0.197924,0.507667 -0.172206,0.769128 0.05297,0.538557 0.312346,2.153928 1.273502,2.232205 0.650051,0.05294 1.262198,-0.329139 1.893297,-0.49371 0.126348,-0.291341 0.388866,-0.55662 0.379042,-0.874027 -0.0436,-1.40893 -1.068066,-2.7359 -2.549477,-2.711445 -0.279785,0.0046 -0.551069,0.09761 -0.826603,0.146412 -0.36378,0.371417 -1.08404,0.594408 -1.091339,1.114246 -0.02663,1.896242 1.690648,2.483021 3.008857,1.872202 0.192463,-0.08918 0.355145,-0.232066 0.532717,-0.348099 0.183084,-0.0978 -1.200034,-2.686992 -1.383117,-2.589192 z" />
    <path
       style="fill:#000000;stroke-width:0.264583"
       id="path31"
       d="m -0.24608807,60.527866 c 0.27574456,0.106727 -0.0999083,0.421322 -0.19103076,0.33192 -0.26898084,-0.263904 -0.28347342,-0.737725 -0.57986587,-0.970421 -0.1222545,-0.09598 -0.2884493,0.11593 -0.4316973,0.176253 -1.2885958,0.542612 -0.4638024,0.241842 -1.9743828,0.719 -0.5005345,0.04882 -1.8967889,0.465129 -2.3516519,-0.02874 -0.054077,-0.05871 0.19293,-1.376132 0.2010143,-1.433787 0.02231,0.05698 0.0647,0.232092 0.066927,0.170942 0.011142,-0.306028 0.015004,-0.616535 -0.039735,-0.917834 -0.3496154,-1.924423 -0.2224736,-2.385341 -1.8452862,-3.430733 -1.2377065,-0.797312 -2.2688398,-0.860804 -3.6729094,-1.139455 -0.68891,-0.03602 -1.376942,-0.117409 -2.066729,-0.108056 -2.156827,0.02924 -4.976527,0.510183 -6.680004,1.949839 -0.53771,0.454433 -0.943075,1.045551 -1.414612,1.568328 -0.315393,0.689142 -0.73674,1.339054 -0.946181,2.067425 -1.026953,3.571431 0.211667,8.142777 2.657929,10.867689 0.449889,0.501134 1.02878,0.869342 1.54317,1.304012 0.492725,0.210723 0.945846,0.570474 1.478177,0.632167 1.621461,0.187923 3.046255,-0.617059 3.207903,-2.562156 0.08361,-1.006089 -0.539572,-1.961404 -1.006215,-2.856643 -0.739104,-1.417945 -2.003511,-2.185077 -3.210797,-3.130947 -0.83638,-0.322765 -1.628541,-0.800208 -2.50914,-0.968298 -5.041786,-0.962369 -9.194932,2.25516 -11.074201,6.759477 -0.583676,1.398979 -0.785109,2.928292 -1.177663,4.392438 -0.24665,4.482139 -0.602393,5.930246 0.304837,10.443043 0.35461,1.763934 1.023414,3.449852 1.53512,5.174779 -0.01005,0.492741 6.958356,0.635061 6.96842,0.142319 v 0 c -0.197159,-1.626058 -0.324526,-3.262106 -0.591477,-4.878173 -0.256116,-1.550477 -0.650807,-3.074858 -0.97621,-4.612285 -0.226203,-1.369783 -0.452406,-2.739562 -0.678609,-4.109345 0.0012,-1.06205 -0.11089,-2.130287 0.0036,-3.186154 0.212946,-1.964389 1.079763,-4.175297 3.084893,-4.947079 1.181622,-0.454811 1.736632,-0.09165 2.851753,0.236588 0.426606,0.288028 0.870044,0.552574 1.279818,0.864087 0.348633,0.26503 0.560998,0.780343 0.991189,0.86234 0.228709,0.04359 0.159137,-0.466463 0.344144,-0.607817 0.481474,-0.367866 1.029317,-0.654256 1.59429,-0.873233 0.235788,-0.09139 0.619904,0.173707 0.757669,-0.03835 0.117438,-0.180772 -0.270291,-0.335889 -0.405436,-0.503833 -1.025306,-1.524529 -0.506257,-0.679911 -1.5206,-2.555957 -0.115638,-0.182978 -0.347577,-0.282078 -0.439476,-0.478055 -0.663845,-1.415669 -0.987663,-2.99571 -0.843218,-4.550214 0.07308,-0.266324 0.07032,-0.566393 0.219231,-0.798975 0.343157,-0.535972 1.05384,-0.659162 1.610394,-0.727329 0.489889,-0.06001 0.986121,-0.04405 1.479063,-0.06853 1.913602,-0.09502 1.460921,-0.07292 3.359185,-0.204038 0.439984,-0.01585 0.879984,-0.03124 1.319952,-0.04751 0.2331876,-0.0086 0.4696751,0.01315 0.6995144,-0.02716 0.1694286,-0.02972 0.4043675,-1.472451 0.07867,-0.83185 -0.473039,0.930402 0.7391559,2.357887 -0.042742,3.13096 0.2974335,1.2025 0.2975491,1.783766 1.1700031,2.778448 1.1288609,1.287007 2.8427476,1.801633 4.5115025,1.620927 0.6116791,-0.06623 1.1962385,-0.288387 1.7943578,-0.43258 C -0.52265063,63.988529 0.20844943,63.750163 1.150189,62.580144 1.512071,62.1305 1.9304297,61.648326 2.008903,61.076485 2.2306705,59.460452 2.0364086,58.67818 0.81864342,58.01624 0.62419261,57.910541 0.38596257,57.92286 0.16962216,57.876172 c -0.18750301,-0.02939 -0.60321299,2.622299 -0.41571023,2.651694 z" />
    <path
       style="fill:#000000;stroke-width:0.264583"
       id="path32"
       d="m -12.891723,98.515605 c -1.787883,-0.473035 -2.126044,-0.623377 -4.167676,-0.837311 -1.030357,-0.107966 -2.074241,-0.322648 -3.102028,-0.192476 -1.126288,0.142647 -2.170945,0.665197 -3.256417,0.997797 -0.284772,0.01037 -0.138052,4.037665 0.14672,4.027285 v 0 c 1.204894,0.3951 2.360417,0.99903 3.61468,1.18529 1.014459,0.15066 2.050959,-0.0834 3.070727,-0.19247 1.990594,-0.21291 2.269022,-0.3545 3.988281,-0.83732 0.293506,-0.0208 -7.93e-4,-4.171604 -0.294287,-4.150795 z" />
    <path
       style="fill:#000000;stroke-width:0.264583"
       id="path33"
       d="m -57.076104,68.451187 c 0.188471,0.06778 0.367811,0.170664 0.565417,0.203348 3.997841,0.661249 -1.665234,-0.601028 3.692861,0.367358 1.539494,0.278238 3.830442,0.939451 5.222478,1.631762 0.754391,0.375187 1.414746,0.915408 2.12212,1.373111 0.339088,0.590412 0.862542,1.108194 1.01726,1.77124 0.05206,0.223096 -0.37274,0.284287 -0.491967,0.479906 -0.321632,0.527704 -0.396211,1.210943 -0.815371,1.66506 -0.587211,0.63618 -1.344028,1.113171 -2.114132,1.508752 -2.616296,1.343927 -4.092877,1.401017 -6.986339,1.957464 -2.704804,-0.03172 -4.222999,0.202335 -6.761194,-0.722116 -0.714878,-0.260369 -1.426178,-0.621755 -1.968344,-1.155515 -0.350195,-0.344765 -0.627684,-0.865518 -0.581478,-1.354767 0.0222,-0.23517 0.478526,0.211965 0.697723,0.123931 0.344185,-0.138232 0.554913,-0.4923 0.832368,-0.73845 0.535123,-0.131268 1.055346,-0.361204 1.60537,-0.393803 1.335373,-0.07915 3.063835,0.233397 4.202986,0.980601 0.499446,0.327605 0.973235,0.779283 1.197766,1.332775 0.07849,0.193482 -0.456502,-0.03774 -0.619472,0.09278 -0.339566,0.271957 -0.527878,0.691671 -0.791816,1.037505 -0.719217,0.356616 -1.396187,0.815639 -2.15765,1.069851 -2.301013,0.76818 -4.716717,1.05905 -7.137141,0.845354 -1.7214,-0.151982 -4.295793,-0.619286 -5.506352,-2.172158 -0.401415,-0.514921 -0.315235,-1.267176 -0.472853,-1.900766 0.304229,-0.139721 0.678336,-0.180086 0.912683,-0.419161 0.520025,-0.530524 0.778857,-1.276869 1.283859,-1.821714 0.794477,-0.857163 2.147633,-2.005452 3.441081,-2.128335 0.281138,-0.02671 0.66911,0.111358 0.757417,0.379603 0.106347,0.323048 -0.208486,0.64747 -0.312729,0.971203 -0.314741,0.04263 -0.716209,-0.09321 -0.944219,0.1279 -0.496001,0.480991 -0.625086,1.240141 -1.037862,1.794203 -1.243058,1.668528 -3.05171,3.160061 -5.239348,3.225196 -0.547794,0.0163 -1.077619,-0.200297 -1.61643,-0.300444 -1.062405,-0.726692 -1.315172,-0.682879 -1.863024,-1.864019 -0.02887,-0.06224 0.201369,0.07099 0.205793,0.0026 0.01939,-0.300334 -0.139885,-0.589759 -0.148418,-0.890598 -0.01442,-0.508709 0.0667,-0.606679 0.24193,-0.974194 -0.612794,0.291791 -0.961655,0.536319 -1.840929,0.0078 -0.349371,-0.210024 -0.289912,-0.792404 -0.584435,-1.074227 -0.260128,-0.248912 -0.500073,0.849844 -0.741656,0.04926 0.128016,-0.292619 0.260008,-0.496102 0.197395,-0.846963 -0.15153,-0.849125 -0.922563,-1.737714 -1.758064,-1.964058 -0.517022,-0.140065 -1.069713,-0.05859 -1.604568,-0.08788 -1.508974,0.508785 -0.664911,0.17545 -1.91194,0.75597 -0.171368,0.07978 -0.340204,0.166198 -0.517176,0.232621 -0.01648,0.0062 -0.06508,-0.01336 -0.04884,-0.02019 0.493583,-0.206881 0.207086,0.06473 0.525356,-0.350708 -0.08285,-0.89807 -0.329702,-2.904355 -1.299667,-3.301521 -0.57172,-0.234101 -1.214599,-0.226753 -1.8219,-0.34013 -0.380952,0.154527 -0.764786,0.302133 -1.14286,0.463579 -0.733274,0.313127 -1.405104,0.712049 -2.215986,0.329078 -0.705315,-0.333113 -0.901837,-0.812681 -1.355531,-1.440918 -0.890913,-1.182629 -1.74094,-2.70207 -3.214537,-3.273179 -1.48722,-0.576387 -2.748664,-0.432959 -4.119361,0.445958 -0.62719,0.402161 -1.03363,1.073304 -1.55045,1.609955 -1.1332,2.598261 -1.66449,2.94799 -0.8369,6.375051 0.26,1.07664 0.92318,2.030322 1.57512,2.925709 1.188443,1.632215 3.025379,3.127037 4.81773,4.051838 0.696431,0.359338 1.479484,0.517382 2.219227,0.776075 0.523452,-0.09337 1.32583,0.192048 1.570358,-0.280103 0.676595,-1.30642 1.183589,-2.910944 0.820692,-4.336712 -0.307567,-1.208384 -1.644496,-1.890016 -2.607259,-2.682401 -2.50633,-2.0628 -5.791679,-3.883742 -8.763818,-5.117581 -1.57986,-0.655855 -3.24496,-1.083829 -4.86744,-1.625746 -1.48029,-0.199229 -2.95441,-0.743902 -4.44087,-0.597686 -3.64687,0.358733 -6.69071,2.151968 -8.39994,5.526514 -2.66931,5.270031 -3.06944,10.444091 -2.83154,16.18697 0.112,2.703592 0.61835,5.376378 0.92753,8.064568 1.09442,4.37133 1.8405,8.943927 4.21144,12.892797 0.75339,1.25479 1.96541,2.16923 2.94811,3.25385 0.15173,0.28805 4.22549,-1.85774 4.07376,-2.14579 v 0 c 0.13294,-1.48312 0.42844,-2.96058 0.39882,-4.44934 -0.0652,-3.27926 -1.21415,-9.617713 -1.70197,-12.654494 -0.38796,-2.359155 -0.8084,-4.713198 -1.16389,-7.077462 -0.31494,-2.094515 -0.42433,-4.22203 -0.84717,-6.297453 -0.20651,-1.013645 -0.89513,-1.901386 -1.03214,-2.926739 -0.12047,-0.901568 -0.17122,-3.697274 1.73044,-3.625691 1.19765,0.04508 2.27579,0.752599 3.41368,1.128897 2.92843,1.141032 6.12629,2.418107 9.09168,3.443039 1.406695,0.486199 2.814993,0.975389 4.252279,1.361901 0.91531,0.246144 1.919131,0.899477 2.793134,0.532738 2.501593,-1.049689 2.424364,-1.68802 2.43482,-3.097662 -1.749173,-1.071465 -3.533304,-2.101027 -4.974595,-3.59066 -0.41657,-0.430546 -0.655563,-1.022753 -1.108969,-1.414317 -0.166116,-0.14346 -0.567613,0.0986 -0.650073,-0.104812 -0.177232,-0.437187 0.02267,-0.943216 0.03403,-1.414825 0.08893,-0.362136 0.221549,-0.716265 0.266792,-1.086403 0.02469,-0.201967 -0.07149,-0.404353 -0.05973,-0.607484 0.0027,-0.04729 0.06541,-0.131884 0.100677,-0.100269 0.230669,0.206772 0.40399,0.470371 0.589203,0.718683 1.83088,2.454584 0.137081,0.476538 2.468245,3.016353 0.647615,0.408125 1.243552,0.912984 1.942843,1.224375 1.670815,0.744008 3.493604,0.681649 5.080953,-0.205288 0.864515,-0.483052 0.786056,-0.362566 0.752287,-0.941424 -0.353597,-0.168799 -0.705781,-0.340593 -1.060791,-0.506399 -0.06907,-0.03226 -0.189617,-0.160796 -0.211225,-0.08769 -0.0563,0.190482 0.02995,0.396621 0.06198,0.592646 0.173768,1.063411 0.478663,2.047787 1.119746,2.93311 0.327453,0.299799 0.600561,0.672827 0.982363,0.899395 1.339967,0.795166 3.241403,0.525584 4.191659,-0.72721 -0.166166,-0.09167 -0.328078,-0.191524 -0.498502,-0.275021 -0.07121,-0.03489 -0.21545,-0.157927 -0.224342,-0.07913 -0.02389,0.211683 0.08941,0.418092 0.163565,0.617794 0.707247,1.90459 1.252786,2.360687 3.196553,3.032969 1.422244,-0.128185 1.953522,0.07538 3.047304,-0.987822 0.999405,-0.971475 1.488861,-2.574379 0.690189,-3.926406 -0.987335,-1.671407 -2.249789,-0.92447 -3.442623,-0.576312 -0.387898,0.402436 -0.865698,0.73442 -1.163688,1.207304 -0.340106,0.539716 -0.586978,1.150154 -0.715626,1.774989 -0.448448,2.1781 0.09428,3.549232 1.348489,5.527088 0.48783,0.769297 1.165817,1.428443 1.908354,1.956114 0.823614,0.585285 1.81451,0.889466 2.721764,1.334199 1.081381,0.111583 2.159727,0.41144 3.244141,0.334748 3.648609,-0.258035 6.965764,-2.471052 8.762396,-5.635051 0.61205,-1.077867 1.197266,-2.254112 1.281483,-3.490767 0.108924,-1.599498 -0.479949,-3.170279 -0.719923,-4.755422 -0.801595,-0.8153 -1.404758,-1.891628 -2.404779,-2.445906 -3.442367,-1.907985 -7.629742,0.189481 -9.820791,2.944603 -0.911908,1.146675 -1.824241,2.425568 -2.090473,3.866248 -0.352663,1.908384 0.201028,3.87618 0.301543,5.814272 0.794978,1.243592 1.334032,2.694379 2.384935,3.730773 4.841068,4.774237 13.634932,4.432009 18.96736,0.749731 1.32646,-0.91598 2.257409,-2.301767 3.386114,-3.452648 0.395801,-1.367132 1.33727,-2.686035 1.187402,-4.101394 -0.657024,-6.204902 -7.457315,-8.967647 -12.745532,-6.93076 -1.171792,0.451344 -2.117016,1.351105 -3.175524,2.026658 -0.621291,1.048266 -1.675635,1.940875 -1.863873,3.144798 -0.245329,1.569074 0.100979,3.225993 0.633868,4.722055 0.411517,1.155311 1.228595,2.164525 2.119368,3.007503 2.133087,2.018639 5.032682,3.081764 7.90171,3.408333 1.685642,0.191871 3.392503,-0.0611 5.088757,-0.09166 4.14532,-1.197218 6.008632,-1.239689 9.365988,-4.167153 2.01903,-1.7605 4.280003,-4.876522 4.175329,-7.798823 -0.155427,-4.339275 -1.52586,-5.068618 -3.985996,-7.832485 -1.067726,-0.599048 -2.06507,-1.345919 -3.20318,-1.797142 -3.517456,-1.39455 -7.980474,-1.459688 -11.211002,0.698299 -0.358825,0.239694 -0.634738,0.584758 -0.952108,0.877139 -0.146061,0.113294 1.45619,2.178901 1.60225,2.065607 z" />
    <path
       style="fill:#000000;stroke-width:0.264583"
       id="path34"
       d="m -73.067944,98.092828 c -3.487179,-0.987645 -7.117677,-1.332453 -10.717551,-1.621542 -1.326385,-0.106513 -2.653516,-0.339812 -3.982548,-0.274076 -1.250436,0.06185 -2.465681,0.435993 -3.69852,0.653992 -0.311872,-0.0099 -0.452281,4.400628 -0.140409,4.410548 v 0 c 1.313545,0.54107 2.561402,1.28281 3.940635,1.6232 1.387581,0.34246 2.840477,0.34894 4.268674,0.40285 1.242507,0.0469 2.487774,-0.0245 3.728812,-0.10097 2.323566,-0.14319 4.628407,-0.48073 6.850259,-1.18806 0.276193,-0.0176 0.02684,-3.923574 -0.249352,-3.905942 z" />
    <path
       style="fill:#000000;stroke-width:0.264583"
       id="path35"
       d="m -86.465142,50.902835 c -2.100347,-0.739148 -4.250404,-1.352836 -6.425636,-1.829506 -1.350224,-0.295884 -2.715223,-0.519788 -4.072832,-0.77968 -0.498107,-0.03339 -0.970301,7.010905 -0.472194,7.044293 v 0 c 1.424832,0.06458 2.848232,0.203118 4.274497,0.193744 2.390138,-0.01572 4.790647,-0.28834 7.041973,-1.115494 0.248431,-0.02445 -0.09738,-3.53781 -0.345808,-3.513357 z" />
    <path
       style="fill:#000000;stroke-width:0.264583"
       id="path36"
       d="m -132.7168,75.330808 c -1.63035,0.38512 -1.82203,0.751825 -1.89013,3.112381 -0.007,0.251172 0.3378,0.372092 0.5067,0.558136 0.0683,0.0813 0.16014,0.147611 0.20488,0.243906 0.0146,0.0315 -0.0808,0.0056 -0.10184,-0.02209 -0.11843,-0.156192 -0.36938,-0.323512 -0.2989,-0.506415 0.62435,-1.620153 0.83623,-2.352329 2.17315,-2.13958 0.0805,0.0097 0.21244,-0.04645 0.24164,0.02925 0.51048,1.323552 -0.45703,1.768385 -1.5816,1.670238 -0.12422,-0.03796 -0.33627,0.01082 -0.37264,-0.113874 -0.24386,-0.835967 0.0956,-1.659461 1.00454,-1.653694 0.1627,0.0011 0.32152,0.05016 0.48229,0.07524 0.0762,0.32159 0.15237,0.643183 0.22856,0.964776 0.022,-0.01624 0.17604,-0.03104 0.16355,-0.02959 -0.62387,0.07243 -0.22585,0.110551 -1.00368,-0.182255 -0.26861,-1.776 0.10799,-1.55961 -1.17379,-1.307127 -0.0622,0.01225 -0.23621,0.006 -0.18515,0.04356 0.15123,0.111358 0.34956,0.137464 0.52434,0.206195 1.18712,1.658969 0.64986,0.321863 0.29923,2.235415 -0.0123,0.06731 0.13749,-0.01064 0.20529,-0.0013 0.16299,0.02233 0.25764,0.115464 0.21307,0.143253 -0.0568,0.03544 -0.13394,-0.0016 -0.20092,-0.0026 -0.63221,-0.69456 -0.67764,-0.512363 -0.13203,-1.895253 0.0752,-0.19073 0.74433,-0.456959 0.52542,-0.160803 -0.0746,0.100886 -0.18648,0.167857 -0.27973,0.251786 -0.11251,-0.09017 -1.38771,1.500989 -1.2752,1.591159 v 0 c 0.10572,0.267819 0.13116,0.583663 0.31716,0.803455 0.2052,0.242496 0.49885,0.41742 0.80043,0.517218 0.57486,0.190233 1.80242,0.09063 2.19423,-0.430313 1.22564,-1.629603 0.81384,-1.901513 0.26595,-3.283948 -0.29965,-0.25609 -0.55711,-0.572026 -0.89896,-0.76827 -1.72519,-0.990367 -4.22688,-0.208624 -4.72354,1.912879 -0.13966,0.596545 0.34324,1.176292 0.51486,1.764437 0.37139,0.253339 0.70082,0.583237 1.11418,0.760016 1.16044,0.496276 2.70813,0.03838 3.65445,-0.695156 0.39347,-0.305001 0.85424,-0.628716 1.00776,-1.102299 0.2619,-0.807929 0.11574,-1.69469 0.17362,-2.542034 -0.35323,-0.374293 -0.61854,-0.857806 -1.05967,-1.122881 -1.15466,-0.693828 -2.75463,-0.236705 -3.6452,0.660548 -0.33618,0.338711 -0.67569,0.735203 -0.77921,1.20107 -0.16452,0.740463 0.004,1.517037 0.007,2.275555 0.28709,0.404675 0.47772,0.899263 0.86127,1.214024 0.3639,0.298646 0.83073,0.496764 1.29754,0.557628 0.75119,0.09794 2.0583,-0.251767 2.46129,-1.016751 0.8719,-1.655101 0.53704,-1.890572 0.0278,-3.238519 -0.78978,-0.707953 -1.0511,-1.228288 -2.28553,-1.086646 -0.45763,0.05251 -0.90089,0.276365 -1.26272,0.561435 -0.91238,0.718833 -0.83326,1.689786 -0.6436,2.753122 0.0577,0.323461 0.29817,0.585592 0.44725,0.878388 0.26422,0.215773 1.28012,1.269862 1.84357,0.846113 1.79245,-1.348025 2.13525,-2.474457 0.59388,-3.602918 0.57366,0.916506 0.27485,0.310081 -0.56124,2.615941 -0.026,0.07168 -0.26874,0.08296 -0.19876,0.113241 0.29771,0.128815 1.02695,-0.219194 1.28324,-0.381346 0.23156,-0.07664 -0.85229,-3.351377 -1.08385,-3.274735 z" />
    <path
       style="fill:#000000;stroke-width:0.264583"
       id="path37"
       d="m 159.73235,147.93299 c -0.79809,1.21479 -1.07096,2.66509 -1.56162,4.00763 -2.09702,5.73782 0.25166,-1.40596 -1.90867,5.39888 -0.51091,1.80713 -1.47032,5.11619 -1.88081,6.92027 -0.24732,1.08694 -0.52693,2.17471 -0.62638,3.28498 -0.20953,2.33931 0.10465,2.9123 0.63858,5.03681 -0.079,0.16348 2.23298,1.2807 2.31198,1.11722 v 0 c 0.60023,-0.42661 1.2945,-0.74499 1.80068,-1.27983 1.68593,-1.7814 2.13423,-3.288 2.80967,-5.63148 0.59598,-2.06774 1.11835,-5.01183 1.52738,-7.12092 0.72964,-6.44608 0.15189,-0.34553 0.39689,-5.86271 0.0677,-1.52474 0.40965,-3.04659 0.24261,-4.5808 0.0912,-0.26519 -3.65909,-1.55524 -3.75031,-1.29005 z" />
    <path
       style="fill:#000000;stroke-width:0.264583"
       id="path38"
       d="m 184.67159,137.22376 c -0.25987,0.0232 -0.52609,0.008 -0.77962,0.0695 -1.31469,0.31958 -2.64595,0.94049 -3.90205,1.38486 -0.91799,0.32476 -1.83843,0.64559 -2.77377,0.91635 -2.88992,0.83656 -3.2094,0.7963 -6.17396,1.27703 -3.19372,0.20089 -6.75994,0.27267 -9.39776,-1.86329 -0.79402,-0.64295 -2.13409,-2.34121 -2.73558,-3.06376 -1.66946,-1.73499 -3.70034,-4.05742 -6.37286,-4.10931 -1.37019,-0.0266 -2.77305,0.25428 -4.03494,0.78883 -3.40256,1.4414 -4.42002,3.41608 -6.6716,6.17652 -2.73895,6.01658 -1.89988,2.8898 -2.56351,9.36779 -0.14151,0.3086 4.22288,2.30979 4.36438,2.00118 v 0 c 2.63647,-4.49893 1.414,-2.1828 3.66058,-6.952 1.51827,-2.63393 1.59819,-3.05068 3.37408,-5.2277 0.28492,-0.34929 0.50804,-0.8503 0.94276,-0.96943 0.38847,-0.10646 0.8104,0.16804 1.1408,0.39843 0.54144,0.37754 2.57217,2.66922 2.91627,3.04714 1.21197,1.29714 2.41919,2.70034 3.85822,3.76235 2.70496,1.99626 5.91456,3.05517 9.26931,3.2083 1.26218,0.0576 2.52396,-0.12359 3.78594,-0.18539 1.24161,-0.25033 2.50469,-0.41111 3.72483,-0.75101 3.55888,-0.99144 8.07837,-3.16311 10.3412,-6.22932 0.33609,-0.4554 0.52026,-1.00534 0.78039,-1.50801 0.10883,-0.19467 -2.64427,-1.73378 -2.75311,-1.53911 z" />
    <path
       style="fill:#000000;stroke-width:0.264583"
       id="path39"
       d="m 142.94094,158.68733 c -0.61083,0.64153 -0.54754,0.55448 -1.29236,1.5083 -0.4249,0.54414 -0.82074,1.11064 -1.24782,1.65308 -1.47585,1.87446 -3.04832,3.67416 -4.57975,5.50294 -1.32639,1.8413 -0.9319,0.83738 -1.24796,2.9856 -0.13011,0.0643 0.77909,1.90436 0.9092,1.84007 v 0 c 2.76944,0.4303 1.43008,0.62716 4.00707,-0.6613 0.68656,-0.56167 1.42748,-1.06278 2.05967,-1.68502 2.41052,-2.37258 4.39567,-5.68813 4.94486,-9.05826 0.0751,-0.46073 0.0473,-0.93242 0.071,-1.39862 0.0486,-0.25625 -3.57538,-0.94303 -3.62394,-0.68679 z" />
    <path
       style="fill:#000000;stroke-width:0.264583"
       id="path40"
       d="m 131.92982,154.60264 c -0.26867,0.15159 -0.55043,0.28202 -0.80599,0.45478 -0.4325,0.29238 -0.83719,0.62394 -1.25423,0.93797 -2.08687,1.57141 -4.10653,3.21254 -6.08899,4.91331 -0.20846,0.16302 -0.40748,0.33891 -0.6254,0.48908 -0.0469,0.0324 0.0671,-0.0929 0.1081,-0.13261 0.13129,-0.12714 0.36029,-0.19021 0.40757,-0.36675 0.0446,-0.16642 -0.24773,-2.09543 -0.24742,-2.12781 10e-4,-0.11843 0.12447,-0.20154 0.1867,-0.30231 1.15582,-4.02639 3.17792,-7.7203 4.92765,-11.50194 0.53719,-1.161 1.13496,-2.30088 1.54893,-3.5113 0.39356,-1.15074 0.57617,-2.36312 0.86426,-3.54468 0.20962,-0.30603 -4.11833,-3.27051 -4.32795,-2.96448 v 0 c -0.82398,0.91822 -1.75957,1.7474 -2.47195,2.75467 -1.29785,1.83508 -2.89096,5.42578 -3.667,7.47303 -0.87802,2.31626 -1.75058,5.15585 -2.00217,7.64825 -0.10982,1.08802 0.0102,2.18708 0.0153,3.28062 0.44474,1.84089 0.57547,3.2749 1.52859,4.84927 0.71157,1.17539 1.53037,2.03472 2.89458,2.47748 1.3379,0.43423 2.13636,0.0373 3.3773,-0.29968 0.5498,-0.3092 1.13329,-0.56495 1.64941,-0.9276 0.60225,-0.42316 1.15188,-0.91889 1.69129,-1.4197 1.84182,-1.71004 3.49147,-3.67702 4.57004,-5.95968 0.15698,-0.16113 -2.1217,-2.38104 -2.27867,-2.21992 z" />
    <path
       style="fill:#000000;stroke-width:0.264583"
       id="path41"
       d="m 128.79259,172.26551 c -0.33733,-0.16096 -0.66367,-0.34735 -1.01201,-0.48287 -2.91581,-1.1344 -6.616,-2.11158 -9.70506,-2.27905 -1.69364,-0.0918 -3.39085,0.0978 -5.08627,0.14669 -0.39107,-0.0366 -0.90827,5.49402 -0.5172,5.5306 v 0 c 1.67254,0.4243 3.31686,0.9817 5.01763,1.27291 1.41147,0.24168 2.85283,0.27416 4.28411,0.31976 2.34907,0.0748 4.73384,-0.0809 7.0188,-0.6507 0.27276,0 0.27276,-3.85734 0,-3.85734 z" />
    <path
       style="fill:#000000;stroke-width:0.264583"
       id="path43"
       d="m 95.169036,152.74796 c -0.186102,-0.0302 -0.697031,-0.10485 -0.864176,-0.1686 -0.228013,-0.087 -0.436589,-0.21831 -0.657548,-0.32191 -0.572736,-0.26853 -1.18826,-0.51041 -1.730547,-0.84026 -0.272611,-0.16582 -0.519798,-0.37021 -0.779696,-0.55532 -0.129936,-0.14457 -0.915175,-0.88962 -0.831265,-1.23972 0.03914,-0.16332 0.182669,0.45277 0.333084,0.37805 0.168656,-0.0838 -0.0013,-0.37986 0.04028,-0.56351 0.153966,-0.67873 0.310475,-0.78374 0.706467,-1.36351 0.25093,-0.25239 1.564856,-1.68127 1.959006,-1.55139 0.04183,0.0138 -0.03619,0.0846 -0.0312,0.12838 0.0098,0.0856 0.04937,0.16518 0.07405,0.24778 0.163139,0.58684 0.520925,1.09469 0.630769,1.70219 0.007,0.0387 -0.125783,-0.0415 -0.117835,-0.003 0.07259,0.3514 0.228669,0.68045 0.328946,1.02498 0.108683,0.37341 0.19848,0.75206 0.29772,1.12809 0.480772,1.61265 1.028425,3.20536 0.580766,4.89804 -0.408086,1.54305 -0.743038,1.75257 -1.687568,3.15245 -3.056599,3.4118 -6.997835,5.80038 -11.045185,7.8576 -1.143926,0.58144 -2.317649,1.10231 -3.476474,1.65346 -0.380929,0.13618 1.544926,5.52334 1.925854,5.38716 v 0 c 1.533025,-0.36146 3.119504,-0.5443 4.599075,-1.08438 4.078782,-1.48886 7.922959,-4.48722 10.60958,-7.86965 0.75415,-0.94947 1.325462,-2.03078 1.988193,-3.04617 0.373893,-0.90698 0.822796,-1.78655 1.121682,-2.72094 0.913966,-2.85727 0.627042,-5.85377 -0.398917,-8.62432 -0.716992,-2.02041 -1.56472,-4.49995 -3.111408,-6.03092 -0.265205,-0.2625 -0.576458,-0.47399 -0.86469,-0.71099 -0.961429,-0.40979 -1.17916,-0.62308 -2.275234,-0.58433 -1.185129,0.0419 -2.389375,0.6816 -3.267815,1.43769 -0.386739,0.33287 -0.708298,0.7347 -1.062448,1.10205 -0.273936,0.4552 -0.597358,0.88406 -0.821809,1.36559 -0.345424,0.74104 -0.786926,2.23877 -0.652288,3.07161 0.231225,1.43027 0.731464,2.63584 1.707872,3.66653 0.347356,0.36667 0.778735,0.64341 1.168101,0.96511 0.433957,0.2308 0.848932,0.50153 1.301872,0.69241 1.50259,0.63321 3.377369,0.82554 4.864227,0.0605 0.186727,-0.0397 -0.374714,-2.68045 -0.561441,-2.64075 z" />
    <path
       style="fill:#000000;stroke-width:0.264583"
       id="path44"
       d="m 66.270658,139.4736 c -0.199996,-0.0724 -0.394346,-0.16281 -0.599988,-0.21709 -0.327652,-0.0865 -0.668203,-0.11787 -0.99591,-0.20414 -0.881475,-0.23205 -1.117045,-0.31575 -1.849287,-0.8081 -0.231225,-0.15547 -0.561036,-0.25263 -0.659844,-0.51315 -0.05658,-0.14919 0.223911,-0.22737 0.335867,-0.34106 0.228291,0.21806 0.369186,0.65152 0.684871,0.65417 0.43543,0.004 0.761082,-0.42336 1.139444,-0.63889 1.02688,-0.58496 1.881632,-1.17525 3.025471,-1.51332 1.228159,-0.36298 1.049401,-0.29176 0.810575,0.344 -0.319752,-0.0928 -0.688964,-0.47277 -0.959255,-0.27836 -0.421066,0.30285 -0.357425,0.98169 -0.631142,1.42225 -0.439846,0.70795 -0.955718,1.36893 -1.496843,2.00283 -2.051749,2.40353 -4.472022,4.43149 -6.881125,6.45744 -0.534514,0.42332 -1.063008,0.85436 -1.603544,1.26996 -0.283033,0.21762 -0.594649,0.3981 -0.86668,0.62933 -0.03964,0.0337 -0.08835,0.11518 -0.04831,0.14841 0.48932,0.40617 1.183245,0.5884 1.556355,1.10337 0.306954,0.42366 0.0368,1.02969 -0.115501,1.45076 -0.01095,0.0503 -0.03838,0.0998 -0.03287,0.15101 0.01479,0.13744 0.25205,0.12654 0.389316,0.14288 0.52551,0.0626 1.037842,0.0264 1.561997,-0.0189 -0.326639,0.011 0.931873,-0.0687 0.704162,-0.143 -0.219953,-0.0717 -0.539853,0.14032 -0.693285,-0.0328 -4.297722,-4.85028 -0.57704,-0.60372 -0.898496,-2.49764 -0.0168,-0.099 -0.165552,0.11367 -0.248327,0.1705 0.02652,0.0455 -0.651777,0.32891 -0.354092,0.27722 0.290425,-0.0504 2.640338,-0.54486 1.97209,0.87907 0.006,0.0732 0.08965,0.20431 0.01783,0.21951 -1.047715,0.22163 -2.125173,0.27107 -3.181083,0.44964 -0.02871,0.005 0.0011,0.0587 0.0079,0.087 0.04547,0.19005 0.01347,0.42594 0.148601,0.56708 0.466772,0.48749 0.982974,0.96034 1.59214,1.25093 0.308986,0.1474 0.684684,-0.001 1.027026,-0.002 2.077177,-0.0792 4.348387,-0.81619 6.341144,0.1161 0.33506,0.15675 0.610537,0.41785 0.915805,0.62677 -0.110199,0.003 -0.300884,-0.0978 -0.330597,0.008 -0.235974,0.84304 0.81884,0.62626 -0.310647,1.43233 -0.528656,0.37729 -1.177153,0.54919 -1.766528,0.82206 -3.955158,1.83117 -2.04484,0.99383 -6.385192,2.75035 -1.147149,0.42198 -2.283693,0.87397 -3.441443,1.26592 -2.246371,0.76048 -3.383307,1.03191 -5.611831,1.57072 -0.889339,0.21503 -2.378864,0.51279 -3.300601,0.83929 -0.347189,0.12299 -0.671928,0.30195 -1.00789,0.45293 -0.345393,0.26909 -0.793607,0.44277 -1.036183,0.80728 -0.337862,0.5077 -0.646136,1.10362 -0.641313,1.71344 0.01291,1.63175 1.516214,3.82928 2.674896,4.91045 0.513797,0.47942 1.110752,0.86114 1.666128,1.29171 0.647756,0.31255 1.266384,0.69453 1.943264,0.93765 2.534576,0.91034 5.570488,0.78316 7.599151,-1.18683 0.415626,-0.4036 0.671748,-0.9441 1.007621,-1.41615 0.143412,-0.54751 0.417671,-1.07668 0.430233,-1.64252 0.03829,-1.72435 -0.871026,-2.97596 -2.290333,-3.97809 -0.614498,-0.43388 -1.402041,-0.58315 -2.144909,-0.70151 -2.019001,-0.32169 -2.915113,0.0847 -4.860861,0.53193 -2.577044,0.69225 -4.711721,2.25579 -6.960383,3.60341 -0.494369,0.29628 -0.973511,0.628 -1.504498,0.85213 -1.003181,0.42344 -0.846481,0.30711 -1.150194,-0.37034 -0.0024,-0.35417 -0.105322,-0.72232 -0.0068,-1.06251 0.06865,-0.23696 0.405802,-0.32903 0.478218,-0.56487 0.23739,-0.77311 0.245298,-1.60035 0.428501,-2.38806 0.484423,-2.08282 1.256877,-4.36882 1.888112,-6.39741 0.354705,-1.13992 0.703929,-2.28153 1.055896,-3.42229 0.390316,-1.45575 1.056415,-3.69418 1.26378,-5.26898 0.052,-0.39488 0.37203,-1.06683 -0.0051,-1.19486 -0.820245,-0.27846 -1.712976,0.31947 -2.579198,0.31752 -2.704624,-0.006 -0.472152,-1.81748 -2.976245,2.13813 -2.513034,3.85764 -5.08091,7.68606 -8.421685,10.89417 -1.126101,1.08138 -2.300023,2.12808 -3.587504,3.01119 -0.940409,0.64504 -5.667898,2.93956 -6.82886,3.51314 -0.337831,0.0596 0.504403,4.83721 0.842234,4.77765 v 0 c 1.769633,0.0855 3.564972,0.56889 5.308899,0.25644 1.900862,-0.34058 3.703817,-1.19655 5.371623,-2.17004 4.862166,-2.83803 8.736492,-8.01293 11.03693,-13.06008 0.661763,-1.45191 1.055267,-3.01169 1.582902,-4.51753 0.236616,-1.58834 1.250285,-5.71643 -0.179872,-7.2284 -0.668123,-0.70634 -1.96074,-0.33014 -2.913592,-0.13682 -0.463259,0.094 -0.772882,0.56678 -1.059227,0.94288 -1.031701,1.35507 -1.877164,3.51154 -2.542524,4.98138 -0.402688,1.19728 -0.852874,2.37963 -1.208064,3.59185 -0.727713,2.4836 -1.344049,5.09672 -1.504797,7.69192 -0.07155,1.15518 -0.127439,2.3317 0.07424,3.47139 0.232417,1.31342 0.611986,2.62278 1.214715,3.81266 0.382185,0.75449 1.11988,1.26774 1.679821,1.90161 0.744577,0.30844 1.443836,0.76534 2.233734,0.92532 3.630149,0.73518 7.481975,-2.62778 10.426697,-4.27872 1.329058,-0.49302 1.600647,-0.68188 2.930732,-0.87773 0.27709,-0.0408 0.649994,0.16991 0.839443,-0.0364 0.178001,-0.19381 -0.182811,-0.54044 -0.08524,-0.78483 0.07515,-0.18822 0.727273,0.0819 0.500864,0.34465 -0.06553,0.14086 -0.10047,0.30052 -0.196583,0.42258 -1.076666,1.36723 -3.883392,0.0698 -5.034753,-0.50178 -1.313151,-0.79707 -1.096989,-0.57375 -2.182268,-1.57227 -0.225515,-0.20749 -0.342333,-0.6593 -0.648676,-0.65145 -0.225118,0.006 0.03142,0.47734 -0.08478,0.67023 -0.233177,0.38709 -0.64638,0.62341 -1.015574,0.85687 3.779229,0.90011 7.736917,0.69411 11.488507,-0.29584 1.376241,-0.36316 2.698742,-0.9058 4.048112,-1.3587 1.329685,-0.7036 2.730323,-1.28697 3.989057,-2.11081 2.934311,-1.92049 6.169837,-4.83217 6.146987,-8.6758 -0.0049,-0.82789 -0.147505,-1.70821 -0.577672,-2.41558 -0.581817,-0.95675 -1.56712,-1.59988 -2.350678,-2.39982 -0.637019,-0.30406 -1.239686,-0.69421 -1.911056,-0.91218 -2.537576,-0.82386 -5.358426,-0.31855 -7.588485,1.0671 0.484015,0.40526 0.971936,0.80746 1.379791,1.297 0.06082,0.073 0.07686,0.24615 -0.0099,0.28489 -0.07937,0.0354 0.02727,-0.25345 -0.05965,-0.25384 -3.375076,-0.015 -3.395721,-0.8062 -3.1915,0.53323 0.483375,1.42014 1.939782,1.65769 3.07643,1.09345 0.329676,-0.16365 0.5407,-0.38568 0.815168,-0.62767 0.217818,-0.27773 0.834361,-1.03502 0.801907,-1.23661 -0.359521,-2.23304 -0.877523,-2.40503 -2.491211,-2.43102 -0.783926,-0.0381 -1.887834,-0.25146 -2.618552,-0.0912 -0.342614,0.0751 -0.65686,0.2463 -0.985293,0.36945 -0.646411,0.64704 -1.773121,1.42656 -1.19023,2.66018 0.989412,2.09396 3.546948,2.28067 5.428496,1.77291 0.897157,-0.24212 1.731195,-0.67602 2.596792,-1.01403 0.977167,-0.65708 2.020634,-1.22497 2.931502,-1.97125 3.096125,-2.53666 5.76939,-5.88616 6.686719,-9.86721 0.229002,-0.99382 0.399698,-2.05993 0.174508,-3.05463 -0.273298,-1.20721 -1.081484,-2.22678 -1.622223,-3.34018 -0.731274,-0.36251 -1.398593,-0.90371 -2.193817,-1.08754 -2.157973,-0.49886 -5.114637,0.96441 -6.595086,2.42162 -0.655582,0.64529 -1.356958,1.33921 -1.652156,2.21044 -0.356397,1.05186 -0.148778,2.2162 -0.223166,3.3243 0.363924,0.56727 0.626272,1.21443 1.091772,1.70183 0.357282,0.37408 0.843592,0.61253 1.317246,0.82048 1.652254,0.7254 3.244112,0.56179 4.877356,-0.052 0.174956,-0.0268 -0.203621,-2.501 -0.378577,-2.47423 z" />
    <path
       style="fill:#000000;stroke-width:0.264583"
       id="path45"
       d="m 52.361343,124.58419 c -0.463349,1.00116 -0.64261,2.23453 -1.641711,2.88273 -0.153408,0.0995 -0.336513,0.14323 -0.504769,0.21485 -0.158113,0.0808 -0.765099,-0.11243 -0.664988,-0.36054 0.195059,-0.48342 0.966219,0.79072 0.356076,0.52889 -0.614288,-0.57516 -1.056182,-1.42666 -1.84286,-1.72547 -0.43466,-0.1651 -0.851821,0.37433 -1.287634,0.53637 -0.34635,0.12877 -0.701985,0.2315 -1.056643,0.33522 -0.66248,0.19374 -3.096773,0.85141 -3.628366,0.96292 -0.72312,0.15168 -1.457777,0.24191 -2.186665,0.36286 -1.179197,-0.0344 -3.397546,0.51716 -4.202472,-0.82583 -0.152786,-0.25492 -0.248873,-0.58832 -0.170797,-0.87508 0.03554,-0.13054 0.270468,0.008 0.405705,0.0123 0.05814,-0.49134 0.116276,-0.98268 0.174413,-1.47402 0.349499,-1.70327 1.130631,-3.2642 1.779939,-4.86498 0.162859,-0.12638 -1.624481,-2.42959 -1.78734,-2.3032 v 0 c -0.871997,0.42888 -1.877586,0.65492 -2.615993,1.28664 -1.394698,1.19319 -1.686092,3.00672 -2.173192,4.62526 -0.123037,2.6655 -0.424752,3.21804 0.911214,5.97465 1.115605,2.30191 3.74011,3.41905 6.141164,3.58811 0.897232,0.0632 1.797206,-0.0781 2.695811,-0.11721 0.893442,-0.22206 1.809139,-0.36856 2.680324,-0.66619 1.461199,-0.4992 2.959158,-1.29245 4.149103,-2.29254 0.378955,-0.3185 0.805199,-0.64854 0.988298,-1.10846 0.06286,-0.15787 -0.304892,-0.15014 -0.45734,-0.22522 -0.53227,-0.58239 -1.06454,-1.16478 -1.596813,-1.74716 -0.03556,0.18815 -0.143828,0.37661 -0.106693,0.56445 0.286184,1.44773 0.879906,2.62648 2.359398,3.1106 1.163277,0.38065 1.517123,0.15931 2.679295,-0.0602 0.426066,-0.22695 0.890294,-0.3935 1.278197,-0.68085 1.435743,-1.06355 2.291342,-2.88568 1.915019,-4.65295 0.07113,-0.18312 -2.51855,-1.18907 -2.58968,-1.00595 z" />
    <path
       style="fill:#000000;stroke-width:0.264583"
       id="path46"
       d="m 163.83751,197.37332 c -9.75978,-3.08492 -19.9974,-4.18617 -30.07387,-5.71558 -4.52253,-0.68643 -9.03662,-1.42739 -13.55493,-2.14109 -18.30861,-2.54252 -18.10071,-2.64676 -37.557222,-4.74254 -19.492923,-2.0997 -28.419073,-3.02263 -48.172758,-3.91947 -18.557361,-0.84253 -27.2406728,-0.64966 -45.524624,-0.65556 -14.07011,0.48039 -19.025396,0.40596 -32.287558,1.66381 -3.255259,0.30875 -6.507152,0.68611 -9.734407,1.21228 -1.860331,0.30331 -3.725995,0.66325 -5.509512,1.27309 -0.677502,0.23166 -1.65218,0.51003 -1.770583,1.21619 -0.148765,0.88723 0.771932,1.62523 1.157901,2.43785 0.104846,-0.002 0.06956,-1.48524 -0.03529,-1.48275 v 0 c -0.297723,0.76851 -1.128689,1.51573 -0.893173,2.30553 0.219673,0.73668 1.224074,0.97648 1.948529,1.23361 1.862723,0.66114 3.799973,1.10746 5.738247,1.49466 14.137359,2.82423 28.596836,3.67373 42.9170554,4.99274 19.0943006,1.2449 25.7009656,1.77606 45.1752206,2.6176 20.713766,0.89509 27.096773,0.94091 47.597282,1.29917 22.952342,0.40112 15.861688,0.30497 37.153432,0.38973 17.96008,-0.27345 8.14629,-0.22723 23.54395,-0.12736 3.98436,0.0258 9.5573,0.0495 13.69327,0.0502 1.29476,2.2e-4 2.59028,0.0349 3.88426,-0.0101 0.78848,-0.0274 1.57187,-0.13793 2.3578,-0.20689 0.22523,-0.004 0.1722,-3.18891 -0.053,-3.18516 z" />
    
  </g>
</svg>
